<?xml version="1.0" encoding="UTF-8"?><svg id="Layer_1" xmlns="http://www.w3.org/2000/svg" viewBox="0 0 300 100"><defs><style>.cls-1{fill:#fff;}</style></defs><path class="cls-1" d="M82.48,43.42l3.58-9.03,3.31,9.03h-6.89Zm15.74,9.1l-9.08-23.86h-8.16l1.16,.87c.58,.43,.8,.8,.8,1.32s-.17,1.2-.46,1.89l-7.92,20.07c-.86,2.16-1.62,3.34-2.65,4.05l-1.26,.88h9.38l-.88-.83c-.75-.71-1.09-1.23-1.09-1.64,0-.57,.11-1.12,.34-1.64l2.57-6.42h9.83l2.4,6.49c.24,.63,.44,1.17,.44,1.73,0,.35-.32,.7-1.07,1.49l-.77,.82h10.48l-1-.85c-1.87-1.59-2.49-2.92-3.06-4.36h0Z"/><path class="cls-1" d="M114.72,39.98c-.62,0-1.21-.03-1.8-.1v-7.35c.96-.19,1.77-.28,2.46-.28,2.91,0,4.57,1.37,4.57,3.74,0,2.54-1.91,4-5.24,4h0Zm1.41,13.77c-.73,0-1.83-.11-3.21-.24v-9.73c1.27-.2,2.3-.3,3.08-.3,3.84,0,6.52,2.2,6.52,5.36s-2.39,4.91-6.4,4.91h0Zm5.99-13.03c2.29-1.39,3.45-3.19,3.45-5.36,0-4.13-3.71-6.7-9.69-6.7h-10.87l.98,.85c1.39,1.21,1.49,2.53,1.49,4.57v18.2c0,2.04-.1,3.37-1.5,4.62l-.94,.84h10.3c7.84,0,12.71-3.59,12.71-9.36,0-3.62-2.05-6.25-5.94-7.66h0Z"/><path class="cls-1" d="M143.54,53.62c-1.14,0-2.75-.15-4.66-.43v-9.18h2.05c2.02,0,3.3,.04,3.98,.86l.86,1.03v-5.93h-6.88v-7.04c1.5-.3,2.72-.45,3.7-.45,2.06,0,3.55,.44,4.85,1.44l.78,.59v-5.86h-17.21l.98,.85c1.39,1.21,1.49,2.53,1.49,4.57v18.2c0,2.04-.1,3.37-1.5,4.62l-.94,.84h18.69l2.54-7.2-1.2,.79c-2.36,1.56-4.75,2.28-7.53,2.28h0Z"/><path class="cls-1" d="M162.67,42.34v-9.72c1.09-.19,1.98-.29,2.59-.29,2.93,0,4.9,1.74,4.9,4.33,0,2.79-2.11,4.5-6.83,5.54l-.66,.14h0Zm13.88,10.57l-6.93-9.25c4.11-1.83,6.03-4.18,6.03-7.37,0-4.55-3.93-7.61-9.77-7.61h-11.04l.98,.85c1.39,1.21,1.49,2.53,1.49,4.57v18.2c0,2.04-.1,3.37-1.5,4.62l-.94,.84h10.24l-.94-.84c-1.4-1.25-1.5-2.58-1.5-4.62v-9.85l8.74,12.08c1.41,1.97,3.61,3.15,5.86,3.15l3.72-.19-.86-.78c-1.54-1.38-2.75-2.66-3.59-3.79h0Z"/><path class="cls-1" d="M204.7,43.12c0,6.21-4.35,10.71-10.34,10.71-.96,0-2.3-.13-4.08-.39v-20.39c1.29-.31,2.56-.47,3.79-.47,6.46,0,10.63,4.14,10.63,10.55h0Zm.41-11.07c-3.51-2.81-7.17-3.38-11.58-3.38h-11.08l.98,.85c1.38,1.2,1.45,2.52,1.45,4.57v18.2c0,2.06-.07,3.38-1.46,4.62l-.94,.84h9.72c6.96,0,11.07-1.39,14.21-4.8,2.53-2.75,3.82-6.17,3.82-10.15,0-4.43-1.72-8.05-5.11-10.74h0Z"/><path class="cls-1" d="M225.52,53.62c-1.14,0-2.75-.15-4.66-.43v-9.18h2.05c2.03,0,3.3,.04,3.98,.86l.85,1.03v-5.93h-6.89v-7.04c1.5-.3,2.72-.45,3.7-.45,2.06,0,3.55,.44,4.85,1.44l.78,.59v-5.86h-17.2l.98,.85c1.39,1.21,1.49,2.53,1.49,4.57v18.2c0,2.04-.1,3.37-1.5,4.62l-.94,.84h18.69l2.54-7.2-1.2,.79c-2.35,1.56-4.75,2.28-7.53,2.28h0Z"/><path class="cls-1" d="M249.35,53.62c-1.16,0-2.73-.14-4.66-.43v-9.18h2.05c2.02,0,3.3,.04,3.98,.86l.86,1.03v-5.93h-6.88v-7.04c1.5-.3,2.72-.45,3.7-.45,2.06,0,3.55,.44,4.85,1.44l.78,.59v-5.86h-17.21l.98,.85c1.39,1.2,1.49,2.53,1.49,4.57v18.2c0,2.04-.1,3.37-1.5,4.62l-.95,.84h18.69l2.54-7.2-1.2,.8c-2.35,1.56-4.74,2.28-7.53,2.28h0Z"/><path class="cls-1" d="M280.92,28.66l.98,.85c1.39,1.21,1.49,2.53,1.49,4.57v14.78l-15.91-20.19h-7.26l.98,.85c1.39,1.21,1.49,2.53,1.49,4.57v18.2c0,2.04-.1,3.37-1.5,4.62l-.95,.84h8.92l-.95-.84c-1.39-1.24-1.46-2.56-1.46-4.62v-15.7l13.65,17.2c2.01,2.56,3.76,4.53,6.5,4.62l.5,.02v-24.34c0-2.04,.1-3.37,1.49-4.57l.98-.85h-8.98Z"/><path class="cls-1" d="M82.48,43.42l3.58-9.03,3.31,9.03h-6.89Zm15.74,9.1l-9.08-23.86h-8.16l1.16,.87c.58,.43,.8,.8,.8,1.32s-.17,1.2-.46,1.89l-7.92,20.07c-.86,2.16-1.62,3.34-2.65,4.05l-1.26,.88h9.38l-.88-.83c-.75-.71-1.09-1.23-1.09-1.64,0-.57,.11-1.12,.34-1.64l2.57-6.42h9.83l2.4,6.49c.24,.63,.44,1.17,.44,1.73,0,.35-.32,.7-1.07,1.49l-.77,.82h10.48l-1-.85c-1.87-1.59-2.49-2.92-3.06-4.36h0Z"/><path class="cls-1" d="M114.72,39.98c-.62,0-1.21-.03-1.8-.1v-7.35c.96-.19,1.77-.28,2.46-.28,2.91,0,4.57,1.37,4.57,3.74,0,2.54-1.91,4-5.24,4h0Zm1.41,13.77c-.73,0-1.83-.11-3.21-.24v-9.73c1.27-.2,2.3-.3,3.08-.3,3.84,0,6.52,2.2,6.52,5.36s-2.39,4.91-6.4,4.91h0Zm5.99-13.03c2.29-1.39,3.45-3.19,3.45-5.36,0-4.13-3.71-6.7-9.69-6.7h-10.87l.98,.85c1.39,1.21,1.49,2.53,1.49,4.57v18.2c0,2.04-.1,3.37-1.5,4.62l-.94,.84h10.3c7.84,0,12.71-3.59,12.71-9.36,0-3.62-2.05-6.25-5.94-7.66h0Z"/><path class="cls-1" d="M143.54,53.62c-1.14,0-2.75-.15-4.66-.43v-9.18h2.05c2.02,0,3.3,.04,3.98,.86l.86,1.03v-5.93h-6.88v-7.04c1.5-.3,2.72-.45,3.7-.45,2.06,0,3.55,.44,4.85,1.44l.78,.59v-5.86h-17.21l.98,.85c1.39,1.21,1.49,2.53,1.49,4.57v18.2c0,2.04-.1,3.37-1.5,4.62l-.94,.84h18.69l2.54-7.2-1.2,.79c-2.36,1.56-4.75,2.28-7.53,2.28h0Z"/><path class="cls-1" d="M162.67,42.34v-9.72c1.09-.19,1.98-.29,2.59-.29,2.93,0,4.9,1.74,4.9,4.33,0,2.79-2.11,4.5-6.83,5.54l-.66,.14h0Zm13.88,10.57l-6.93-9.25c4.11-1.83,6.03-4.18,6.03-7.37,0-4.55-3.93-7.61-9.77-7.61h-11.04l.98,.85c1.39,1.21,1.49,2.53,1.49,4.57v18.2c0,2.04-.1,3.37-1.5,4.62l-.94,.84h10.24l-.94-.84c-1.4-1.25-1.5-2.58-1.5-4.62v-9.85l8.74,12.08c1.41,1.97,3.61,3.15,5.86,3.15l3.72-.19-.86-.78c-1.54-1.38-2.75-2.66-3.59-3.79h0Z"/><path class="cls-1" d="M204.7,43.12c0,6.21-4.35,10.71-10.34,10.71-.96,0-2.3-.13-4.08-.39v-20.39c1.29-.31,2.56-.47,3.79-.47,6.46,0,10.63,4.14,10.63,10.55h0Zm.41-11.07c-3.51-2.81-7.17-3.38-11.58-3.38h-11.08l.98,.85c1.38,1.2,1.45,2.52,1.45,4.57v18.2c0,2.06-.07,3.38-1.46,4.62l-.94,.84h9.72c6.96,0,11.07-1.39,14.21-4.8,2.53-2.75,3.82-6.17,3.82-10.15,0-4.43-1.72-8.05-5.11-10.74h0Z"/><path class="cls-1" d="M225.52,53.62c-1.14,0-2.75-.15-4.66-.43v-9.18h2.05c2.03,0,3.3,.04,3.98,.86l.85,1.03v-5.93h-6.89v-7.04c1.5-.3,2.72-.45,3.7-.45,2.06,0,3.55,.44,4.85,1.44l.78,.59v-5.86h-17.2l.98,.85c1.39,1.21,1.49,2.53,1.49,4.57v18.2c0,2.04-.1,3.37-1.5,4.62l-.94,.84h18.69l2.54-7.2-1.2,.79c-2.35,1.56-4.75,2.28-7.53,2.28h0Z"/><path class="cls-1" d="M249.35,53.62c-1.16,0-2.73-.14-4.66-.43v-9.18h2.05c2.02,0,3.3,.04,3.98,.86l.86,1.03v-5.93h-6.88v-7.04c1.5-.3,2.72-.45,3.7-.45,2.06,0,3.55,.44,4.85,1.44l.78,.59v-5.86h-17.21l.98,.85c1.39,1.2,1.49,2.53,1.49,4.57v18.2c0,2.04-.1,3.37-1.5,4.62l-.95,.84h18.69l2.54-7.2-1.2,.8c-2.35,1.56-4.74,2.28-7.53,2.28h0Z"/><path class="cls-1" d="M280.92,28.66l.98,.85c1.39,1.21,1.49,2.53,1.49,4.57v14.78l-15.91-20.19h-7.26l.98,.85c1.39,1.21,1.49,2.53,1.49,4.57v18.2c0,2.04-.1,3.37-1.5,4.62l-.95,.84h8.92l-.95-.84c-1.39-1.24-1.46-2.56-1.46-4.62v-15.7l13.65,17.2c2.01,2.56,3.76,4.53,6.5,4.62l.5,.02v-24.34c0-2.04,.1-3.37,1.49-4.57l.98-.85h-8.98Z"/><path class="cls-1" d="M79.08,84.58c-4.27,0-7.6-2.52-7.6-6.78v-11.61h3.56v11.3c0,2.4,1.47,3.98,4.07,3.98s4.07-1.55,4.07-3.96v-11.33h3.48v11.61c0,4.27-3.31,6.78-7.57,6.78Z"/><path class="cls-1" d="M104.97,84.5l-7.77-8.48c-1.27-1.38-2.66-3.02-3.79-4.35l-.06,.03c.06,1.47,.06,2.91,.06,4.15v8.37h-3.48v-18.03h2.74l6.95,7.6c.96,1.05,2.43,2.68,3.39,3.9l.06-.03c-.06-1.24-.06-2.6-.06-3.82v-7.66h3.48v18.31h-1.53Z"/><path class="cls-1" d="M110.06,84.22v-18.03h3.56v18.03h-3.56Z"/><path class="cls-1" d="M125.09,84.41h-2.23l-6.87-18.23h3.67l3.08,8.28c.45,1.22,.93,2.68,1.36,4.13h.06c.4-1.41,.88-2.88,1.33-4.13l3.08-8.28h3.39l-6.87,18.23Z"/><path class="cls-1" d="M134.02,84.22v-18.03h10.06v2.97h-6.53v4.52h5.43v3h-5.43v4.58h7.43v2.97h-10.96Z"/><path class="cls-1" d="M157.14,84.22l-5.26-7.52h-1.61v7.52h-3.48v-18.03h6.02c2.83,0,5.62,1.84,5.62,5.26,0,2.26-1.33,3.87-2.97,4.58l5.96,8.2h-4.3Zm-4.89-15.06h-1.98v4.75h1.98c1.36,0,2.68-.73,2.68-2.37s-1.3-2.37-2.68-2.37Z"/><path class="cls-1" d="M166.91,84.41c-1.98,0-3.82-.57-4.8-1.22l-.37-3.48c1.38,1.02,3.22,1.7,5.09,1.7,1.75,0,2.91-.88,2.91-2.23s-.79-2.09-2.68-2.66c-3.36-.99-5-2.8-5-5.45s2.03-5.12,5.88-5.12c1.89,0,3.5,.57,4.21,1.02l-.68,2.91c-.68-.42-2.09-.99-3.42-.99-1.67,0-2.57,.9-2.57,1.98s.85,1.72,2.49,2.23c3.25,1.02,5.34,2.6,5.34,5.79s-2.2,5.51-6.39,5.51Z"/><path class="cls-1" d="M176.24,84.22v-18.03h3.56v18.03h-3.56Z"/><path class="cls-1" d="M190.96,69.15v15.06h-3.56v-15.06h-5.48v-2.97h14.53v2.97h-5.48Z"/><path class="cls-1" d="M207.41,76.02v8.2h-3.48v-8.14l-6.81-9.89h3.84l3.31,4.72c.48,.68,1.05,1.58,1.5,2.35h.06c.45-.76,1.07-1.72,1.53-2.35l3.28-4.72h3.59l-6.81,9.83Z"/><path class="cls-1" d="M229.03,76.7h-2.83v7.52h-3.48v-18.03h6.3c2.83,0,5.62,1.84,5.62,5.26s-2.8,5.26-5.62,5.26Zm-.57-7.55h-2.26v4.75h2.26c1.36,0,2.68-.73,2.68-2.37s-1.3-2.37-2.68-2.37Z"/><path class="cls-1" d="M247.51,84.22l-5.26-7.52h-1.61v7.52h-3.48v-18.03h6.02c2.83,0,5.62,1.84,5.62,5.26,0,2.26-1.33,3.87-2.97,4.58l5.96,8.2h-4.3Zm-4.89-15.06h-1.98v4.75h1.98c1.36,0,2.68-.73,2.68-2.37s-1.3-2.37-2.68-2.37Z"/><path class="cls-1" d="M252.54,84.22v-18.03h10.06v2.97h-6.53v4.52h5.43v3h-5.43v4.58h7.43v2.97h-10.96Z"/><path class="cls-1" d="M269.92,84.41c-1.98,0-3.82-.57-4.8-1.22l-.37-3.48c1.38,1.02,3.22,1.7,5.09,1.7,1.75,0,2.91-.88,2.91-2.23s-.79-2.09-2.68-2.66c-3.36-.99-5-2.8-5-5.45s2.03-5.12,5.88-5.12c1.89,0,3.5,.57,4.21,1.02l-.68,2.91c-.68-.42-2.09-.99-3.42-.99-1.67,0-2.57,.9-2.57,1.98s.85,1.72,2.49,2.23c3.25,1.02,5.34,2.6,5.34,5.79s-2.2,5.51-6.39,5.51Z"/><path class="cls-1" d="M283.51,84.41c-1.98,0-3.82-.57-4.8-1.22l-.37-3.48c1.38,1.02,3.22,1.7,5.09,1.7,1.75,0,2.91-.88,2.91-2.23s-.79-2.09-2.68-2.66c-3.36-.99-5-2.8-5-5.45s2.03-5.12,5.88-5.12c1.89,0,3.5,.57,4.21,1.02l-.68,2.91c-.68-.42-2.09-.99-3.42-.99-1.67,0-2.57,.9-2.57,1.98s.85,1.72,2.49,2.23c3.25,1.02,5.34,2.6,5.34,5.79s-2.2,5.51-6.39,5.51Z"/><g><path class="cls-1" d="M17.55,57.44c-.28-.07-.47-.23-.51-.43v-.05c-.05-.19-.08-.36-.36-.4-.02,0-.04,.01-.04,.03,0,.02,.01,.04,.03,.04,.23,.03,.26,.16,.3,.35v.05c.06,.23,.26,.4,.57,.48,.29,.07,.5,.37,.5,.38,0,0,.02,.01,.03,.01,0,0,.01,0,.02,0,.02-.01,.02-.03,0-.05,0-.01-.23-.32-.54-.4h0Z"/><path class="cls-1" d="M18.03,54.94s.08-.19,.26-.28c-.27-.11-.36-.17-.79-.09,.27,.02,.32,.16,.53,.37h0Z"/><path class="cls-1" d="M16.41,57.62s-.01-.04-.03-.04h0s-.03,.01-.03,.03c-.02,.26,.05,.39,.05,.4,0,.01,.02,.02,.03,.02,0,0,.01,0,.02,0,.02,0,.02-.03,.01-.05,0,0-.06-.12-.04-.36h0Z"/><path class="cls-1" d="M17.17,57.65s-.01,.04,0,.05c.15,.13,.18,.36,.18,.37,0,.02,.02,.03,.03,.03h0s.03-.02,.03-.04c0-.01-.03-.26-.2-.41-.01-.01-.04-.01-.05,0h0Z"/><path class="cls-1" d="M16.64,57.48s0-.04-.03-.04c-.02,0-.04,0-.04,.03-.04,.23,.06,.42,.1,.49,0,.01,.02,.02,.03,.02,0,0,.01,0,.02,0,.02,0,.02-.03,.01-.05-.04-.06-.13-.24-.1-.45h0Z"/><path class="cls-1" d="M14.42,58.39c-.11-.05-.16-.08-.26-.28,0-.02-.03-.02-.05-.02-.02,0-.02,.03-.02,.05,.11,.22,.18,.26,.29,.31,.02,.01,.05,.02,.08,.04,0,0,.01,0,.02,0,.01,0,.02,0,.03-.02,0-.02,0-.04-.01-.05-.03-.02-.06-.03-.08-.04h0Z"/><path class="cls-1" d="M17.49,57.67s-.04,0-.05,.02c0,.02,0,.04,.02,.05,.23,.11,.28,.2,.35,.31,0,.02,.02,.04,.03,.05,0,.01,.02,.02,.03,.02,0,0,.01,0,.02,0,.02-.01,.02-.03,.01-.05-.01-.02-.02-.03-.03-.05-.06-.11-.12-.22-.38-.34h0Z"/><path class="cls-1" d="M16.17,57.62s-.04,0-.04,.03c-.04,.23,0,.43,0,.44,0,.02,.02,.03,.03,.03,0,0,0,0,0,0,.02,0,.03-.02,.03-.04,0,0-.04-.2,0-.41,0-.02,0-.04-.03-.04h0Z"/><path class="cls-1" d="M15.93,57.69s-.04,.01-.04,.03c-.02,.19,0,.44,0,.45,0,.02,.02,.03,.03,.03h0s.03-.02,.03-.04c0,0-.02-.26,0-.44,0-.02-.01-.04-.03-.04h0Z"/><path class="cls-1" d="M14.73,58.31s-.14-.06-.19-.24c0-.02-.02-.03-.04-.03-.02,0-.03,.02-.03,.04,.05,.22,.19,.27,.23,.29h0s.02,0,.02,0c0,0,.02,0,.02-.01,.01-.01,.01-.04,0-.05,0,0-.01,0-.02-.01h0Z"/><path class="cls-1" d="M15.46,57.81s-.01-.04-.03-.04c0,0,0,0,0,0-.02,0-.03,.01-.03,.03-.02,.15,.03,.37,.03,.38,0,.02,.02,.03,.03,.03,0,0,0,0,0,0,.02,0,.03-.02,.03-.04,0,0-.05-.22-.03-.35h0Z"/><path class="cls-1" d="M14.8,58.02s-.02-.03-.03-.03-.03,.02-.03,.03c0,.1,.09,.17,.13,.21,0,0,.02,.01,.02,.02,0,0,.02,.01,.03,.01,0,0,.02,0,.02,0,.01-.01,.02-.03,0-.05,0,0-.02-.01-.03-.02-.04-.03-.11-.08-.11-.15h0Z"/><path class="cls-1" d="M11.6,57.14c.3-.2,.48-.25,.61-.25,.07,0,.12,.02,.16,.03,.54,.22,.69,.14,.86,.05,.07-.04,.15-.08,.27-.09,.19-.03,.33-.02,.44-.01,.02,.02,.04,.04,.05,.05l.02,.02s.02,.01,.02,.01c0,0,0,0,.01,0,.01,0,.02-.01,.02-.03,0-.01,0-.01,0-.03,.06,.01,.11,.03,.16,.05h.03c.05,.07,.1,.12,.13,.15,0,0,.01,0,.02,0,0,0,.01,0,.02,0,.01,0,.02-.02,.02-.03,0,0,0-.01,0-.02,.13,.05,.31,.12,.58,.18-.11,.06-.24,.14-.31,.26,0,0-.01,0-.01,.02-.22-.08-.33-.22-.46-.39-.03-.04-.06-.08-.1-.13,0,0-.02-.01-.03-.01-.01,0-.02,.01-.03,.02,0,.02-.16,.46,.05,.75-.13,.02-.28,.04-.37,.04-.03,0-.06,0-.09,0-.13,0-.25-.02-.63,.21-.38,.23-.55,.17-1.38-.18-.16-.07-.25-.18-.27-.32-.01-.14,.07-.27,.21-.36h0Zm1.78-.77s.03,0,.05,0c.07-.03,.13-.05,.18-.06,.01,.06,.03,.13,.05,.18,0,.09,0,.17,.02,.25-.18-.12-.27-.27-.31-.36h0Zm.43,.35s-.03,0-.04,0c0-.02,0-.05,0-.07,.02,.03,.03,.05,.05,.07h0Zm-.13-.44c.09-.02,.17-.01,.27,.03,.02,.1,.04,.19,.07,.27-.01,.04-.01,.08-.02,.13,0,.04,0,.08,0,.13-.1-.11-.26-.29-.31-.56h0Zm-.82-.16c-.04-.06-.08-.28-.04-.46,.02-.08,.06-.14,.11-.17,.34-.18,.41-.44,.42-.52,.06-.1,.19-.16,.32-.16h.01c.14,0,.27,.09,.34,.22,.02,.03,.03,.07,.04,.1,.05,.12,.1,.25,.33,.38,.11,.06,.19,.21,.18,.36,0,.12-.06,.22-.15,.26-.23,.12-.27,.1-.36,.05h-.02c-.25-.14-.4-.08-.67,.02-.24,.09-.47-.02-.53-.11h0Zm3.24,.39c.09,.29,.23,.45,.32,.52-.19,.02-.26,.05-.34,.11l-.03,.02s-.1,.07-.15,.08c0-.33,.13-.62,.2-.74h0Zm-.49,.19c.11-.13,.15-.25,.16-.34,.07,.15,.07,.26,.07,.31-.08,0-.17,.02-.24,.03h0Zm-.93-.16c.02-.06,.06-.1,.11-.12,0,0,0,0,0,0,.01,0,.33-.19,.36-.49,.02-.15-.04-.3-.16-.44,.21,.03,.36,.11,.45,.22,.11,.13,.14,.33,.09,.59-.04,.27-.2,.36-.29,.42h0c-.19,.13-.38,.05-.38,.05-.05-.02-.08-.03-.1-.04-.04-.01-.04-.01-.07-.06-.02-.03-.03-.08-.01-.13h0Zm-.14,.02s.04,.04,.06,.06c0,.03,.01,.07,.03,.09,.04,.06,.05,.06,.1,.08,.02,0,.05,.02,.09,.04,.02,.01,.09,.03,.17,.03,.03,0,.07,0,.11-.01,.09,.01,.18,.02,.27,0,.05,0,.09-.02,.14-.03,.14-.03,.26-.05,.39-.04-.04,.12-.07,.26-.07,.42-.07,0-.15,0-.29-.05-.09-.02-.18-.03-.27-.02h0c-.43-.09-.67-.17-.83-.24,.02-.18,.06-.28,.09-.33h0Zm-.43,.2s-.03,0-.04-.01c0-.01,0-.03,0-.04,0-.01,0-.02,0-.02,.01,.02,.02,.05,.04,.07h0Zm-.08-.42c.09,.05,.18,.06,.34,0,.04,.06,.07,.12,.12,.17-.05,.07-.12,.2-.12,.48-.1-.1-.27-.32-.34-.65h0Zm.19,1.39c-.17-.2-.12-.52-.09-.66,.02,.02,.04,.05,.05,.07,.12,.16,.24,.32,.46,.4-.07,.07-.15,.12-.22,.14-.04,.01-.12,.03-.2,.04h0Zm.06-2.73c.08,.01,.19,.02,.28,.03,.07,0,.13,.01,.17,.02,.08,0,.2-.02,.29-.1,.07-.06,.12-.15,.12-.25,0-.12-.02-.21-.09-.28-.05-.05-.13-.09-.23-.1,.28-.09,.55-.01,.78,.09,.06,.03,.1,.05,.14,.08,.16,.09,.25,.11,.43-.13,.18-.23,.49-.25,.76-.18-.02,.02-.04,.04-.05,.07-.02,.03-.02,.07,.01,.1,.03,.02,.07,.02,.1,0,.28-.32,.57-.49,.86-.49h.02c.16,0,.29,.05,.39,.11,0,0,0,0,.01,0,.09,.05,.15,.11,.18,.15,.02,.03,.07,.04,.1,.01,.03-.02,.04-.07,.01-.1-.04-.05-.1-.11-.18-.16,.08-.31,.4-.6,.78-.69,.42-.11,.5-.22,.67-.46,.04-.06,.09-.13,.16-.21,.06,.14,.09,.28,.12,.41-.3,.38-.55,.52-.71,.6-.04,.02-.07,.03-.09,.05-.01,0-.02,.02-.01,.04,0,.02,.02,.02,.03,.02,.16,0,.34,0,.43,.02-.15,.23-.42,.47-.54,.57-.4,.1-.6,.31-.63,.89,0,.04,.03,.07,.07,.08,.04,0,.07-.03,.08-.07,.03-.63,.27-.73,.75-.8l.11-.02s0,0,.01,0l.4-.06s.64-.11,.95-.79c.02,.17,.02,.32,.02,.45-.36,.81-.74,1.04-1.07,1.25-.05,.03-.1,.06-.15,.09-.01,0-.02,.02-.01,.04,0,.01,.02,.02,.03,.03,.18,0,.33-.02,.41-.04-.25,.44-.67,.9-.67,.9,0,0-.01,.02,0,.03,0,.01,.01,.02,.03,.02,.23,.04,.47,.05,.68,.05,.24,0,.44-.01,.53-.02,.02,.02,.04,.04,.07,.03,.23-.07,.39-.12,.51-.18-.25,.61-.6,.71-.78,.76-.03,0-.06,.04-.05,.08,0,.04,.04,.06,.07,.06,.26,0,.51-.05,.69-.11-.14,.28-.26,.45-.37,.55-.78-.08-1.38-.46-1.61-.62-.02-.01-.04,0-.05,0-.01,.02,0,.04,0,.05,.23,.16,.82,.52,1.59,.62-.07,.06-.13,.09-.18,.12-.02,.01-.05,.03-.07,.04-.1,.07-.49,.07-.72-.09-.03-.02-.08-.01-.1,.02-.02,.03-.01,.08,.02,.1,.24,.16,.39,.29,.52,.38,.05,.04,.1,.08,.15,.11-.09,.03-.18,.03-.26,.04-.6-.34-.98-.79-.99-.8-.01-.01-.03-.02-.05,0-.01,.01-.02,.03,0,.05,0,0,.35,.41,.9,.75-.24-.02-.44-.11-.58-.21-.02-.02-.05-.02-.07,0-.02,.01-.04,.03-.04,.06-.02,.14-.03,.31,0,.44-.13-.05-.21-.14-.24-.18,0,0-.01-.02-.02-.02l-.03-.04s0,0,0,0c-.17-.2-.24-.61-.24-.61,0-.02-.02-.03-.04-.03-.02,0-.03,.02-.03,.04,0,.02,.07,.36,.21,.58-1.14,.17-1.7,.02-1.88-.06-.23-.09-.45-.12-.79,.03-.16,.07-.55,.11-.71,.06-.23-.09-.43,.02-.57,.12-.02,.01-.04,.03-.06,.05-.17,.14-.44,.35-.86-.09-.13-.15-.21-.16-.32-.17-.02,0-.04,0-.06,0-.05,0-.09-.17-.09-.26,.02,0,.04,0,.05,0,.03,0,.07,0,.11,0,.18-.01,.56-.07,.68-.1,.17-.05,.3-.14,.38-.28,.1-.18,.41-.27,.44-.28h0c.08,0,.16,0,.24,.02,.14,.04,.24,.06,.33,.06,.1,0,.18-.03,.26-.09,.02-.02,.04-.03,.05-.04,.07-.05,.1-.08,.36-.09,.03,0,.05-.02,.06-.04,.01-.03,0-.06-.01-.08-.09-.11-.18-.18-.27-.23-.06-.09-.11-.2-.15-.36,0-.01-.01-.02-.03-.03-.02,0-.03,0-.03,.01,0,0-.06,.1-.12,.23-.01,0-.03,0-.04,0,0-.08-.02-.22-.13-.4,0-.01-.02-.02-.04-.01-.01,0-.02,.02-.03,.03v.02c-.01,.08-.03,.23-.18,.39-.02,0-.04,0-.06,.01-.03,0-.06,.01-.1,.02,.09-.07,.18-.18,.21-.39,.04-.29,0-.5-.11-.65-.12-.15-.31-.23-.59-.26-.01,0-.03,0-.03,.02,0,.01,0,.03,0,.04,.16,.15,.23,.3,.21,.45-.03,.25-.3,.42-.32,.44-.05,.02-.09,.06-.11,.11-.05-.05-.1-.12-.14-.19,.14-.07,.22-.21,.22-.38,0-.2-.1-.4-.26-.48-.19-.11-.22-.2-.27-.31-.02-.04-.03-.08-.05-.12,0-.02-.02-.02-.03-.04,.05,.02,.09,.05,.15,.06h0Zm5.75-1.26c-.15,.29-.39,.4-.43,.41l-.12,.02s-.07,.01-.11,.02c.15-.14,.37-.36,.49-.56,0,0,0-.02,0-.03,0-.01-.01-.02-.03-.02,0,0-.17-.02-.35-.02,.15-.08,.38-.22,.65-.55,.04,.28,.01,.53-.1,.73h0Zm.56,1.21s-.03,.05-.02,.07,.03,.04,.05,.05c.19,.04,.36,.01,.49-.02-.27,.41-.56,.52-.82,.56-.04,0-.06,.04-.06,.08,0,.04,.04,.07,.08,.06,.48-.05,.82-.14,1.03-.24-.18,.38-.37,.51-.56,.63-.01,0-.02,.02-.03,.03-.17,.01-.67,.05-1.13-.02,.12-.14,.47-.56,.68-.94,0-.01,0-.03,0-.04,0-.01-.02-.02-.04-.01,0,0-.14,.05-.35,.05,.02,0,.03-.02,.05-.03,.31-.19,.68-.42,1.03-1.14-.03,.43-.15,.65-.4,.89h0Zm-8.98,2.99c.49,.21,.78,.33,1.03,.33,.16,0,.31-.05,.49-.16,.17-.1,.27-.15,.36-.17,0,.08,.03,.37,.22,.38,.03,0,.05,0,.07,0,.08,0,.12,0,.22,.12,.23,.24,.42,.31,.59,.31,.21,0,.37-.13,.47-.21,.02-.01,.04-.03,.05-.04,.17-.13,.3-.15,.44-.1,.19,.07,.63,.03,.82-.06,.3-.13,.48-.11,.68-.03,.2,.08,.79,.24,1.96,.06l.02,.02c.05,.06,.19,.22,.45,.26,.03,0,.06,0,.07-.03,.02-.02,.02-.05,0-.08,0-.01-.05-.1-.03-.37,.24,.14,.64,.28,1.15,.08,.03-.01,.04-.03,.05-.06,0-.03-.01-.05-.03-.07-.08-.05-.16-.11-.25-.19-.05-.04-.1-.08-.16-.12,.18,.02,.35,0,.43-.06,.02-.01,.03-.02,.06-.03,.16-.09,.42-.23,.76-.99,.01-.03,0-.07-.02-.09-.03-.02-.07-.02-.09,0-.03,.03-.17,.1-.38,.14,.19-.14,.4-.4,.55-.87,.01-.03,0-.07-.03-.08-.03-.02-.07,0-.09,.02-.04,.04-.12,.09-.24,.14,.13-.14,.25-.33,.37-.64,.01-.03,0-.07-.03-.09-.03-.02-.06-.02-.09,0-.08,.07-.27,.16-.57,.23,.16-.12,.31-.3,.46-.57,.01-.03,0-.06-.01-.08-.02-.02-.06-.03-.08-.01-.02,.01-.21,.11-.45,.1,.35-.4,.41-.83,.29-1.83,0-.03-.03-.06-.07-.06-.03,0-.07,.02-.07,.05-.23,.85-.92,.98-.94,.98h-.07c.07-.06,.15-.15,.21-.25,.16-.27,.27-.76-.06-1.5-.01-.02-.03-.04-.06-.04-.03,0-.05,0-.06,.03-.1,.12-.18,.22-.24,.31-.17,.23-.23,.31-.59,.41-.41,.1-.76,.41-.87,.76-.11-.05-.24-.09-.38-.09-.29,0-.56,.11-.82,.36-.33-.11-.76-.11-1,.2-.13,.17-.14,.16-.25,.1-.04-.02-.09-.06-.16-.08-.2-.09-.67-.29-1.16,.05-.03,.02-.04,.05-.03,.08,.01,.03,.04,.05,.07,.05,.21-.02,.34,0,.41,.07,.04,.04,.05,.09,.05,.17,0,.06-.03,.11-.07,.15-.06,.05-.15,.07-.18,.07-.04,0-.1-.01-.17-.02-.09,0-.2-.02-.27-.03-.04,0-.08-.03-.13-.05-.09-.05-.22-.11-.47-.12,0,0,0,0,0,0h0c-.19,0-.37,.09-.46,.24,0,0,0,.02,0,.03,0,.01-.04,.26-.35,.42-.09,.05-.15,.13-.18,.26-.05,.2-.01,.46,.05,.57,.07,.12,.26,.21,.46,.21,.04,0,.08-.01,.11-.02,.03,.08,.12,.22,.28,.35-.04,0-.07,0-.11,0-.14,.02-.23,.07-.31,.11-.15,.08-.26,.13-.74-.06-.2-.08-.43-.07-.9,.23-.19,.12-.29,.3-.27,.49,.02,.19,.14,.35,.35,.43h0Z"/><path class="cls-1" d="M17.39,55.19c.05,.05,.1,.11,.13,.13,0,0,0,.01,0,.02,0,.04,0,.11,0,.18,0,0,0,.01,0,.02-.14-.11-.26-.22-.28-.26h0s0,0,0,0c-.01,.16,.02,.32,.06,.45-.02,0-.03,.01-.05,.01-.16,0-.29-.13-.29-.29s.13-.29,.29-.29c.05,0,.09,.02,.13,.04h0Zm-.83,.6s.02,.02,.03,.02c0,0,0,0,.01,0,.02,0,.03-.03,.02-.05,0,0-.06-.13-.26-.18,.03-.07,.08-.22,.01-.33,.04-.02,.11-.05,.16-.09,.1,.04,.32,.02,.51,0-.09,.07-.15,.17-.15,.29,0,.2,.16,.36,.36,.36,.03,0,.05,0,.07-.01,.04,.12,.08,.2,.08,.2h0s0,0,0,0c0-.02,.02-.03,.02-.05,.02-.03,.03-.07,.05-.09,.02-.02,.05-.03,.07-.05,.02,0,.03-.02,.05-.02,.07-.02,.14-.03,.18-.03,.03,0,.04,0,.04,0h.02s-.02,0-.02,0c-.09-.05-.17-.1-.25-.16,0-.02,0-.04,0-.06,0-.03,.02-.06,.02-.09,0-.04-.01-.07-.02-.1,0-.01,0-.03,0-.03,0,0,0-.02,0-.02,0,0-.01-.01-.02-.02-.03-.06-.08-.1-.13-.14-.04-.05-.08-.09-.09-.1,0-.01-.03-.02-.04-.01-.21,.08-.64,.13-.75,.07-.01,0-.03,0-.04,0-.08,.06-.2,.11-.2,.11-.01,0-.02,.01-.02,.02,0,.01,0,.02,0,.03,.1,.1-.01,.33-.02,.33,0,0,0,.02,0,.03,0,.01,.01,.02,.03,.02,.2,.03,.25,.14,.25,.15h0Z"/><path class="cls-1" d="M14.23,55.89s0-.02,0-.03c0-.01-.02-.02-.03-.02-.08,0-.1-.03-.1-.04,0-.02,.02-.07,.05-.1,.02-.01,.04-.02,.07-.01,.08,.02,.09,.05,.1,.09,0,0,0,.01,0,.02,0,.03-.03,.14-.06,.16-.04,.02-.09,.02-.13,.02,.04-.02,.07-.05,.1-.09h0Zm-.08,.16s.09,0,.13-.03c.08-.03,.12-.2,.1-.25,0,0,0,0,0-.01-.01-.04-.03-.11-.15-.14-.04,0-.09,0-.12,.02-.07,.05-.08,.14-.08,.15,0,0,0,.07,.1,.09-.05,.04-.1,.05-.11,.05-.01,0-.04,0-.05,.02,0,.01,0,.03,0,.04,.02,.02,.09,.04,.18,.04h0Z"/><path class="cls-1" d="M13.29,55.78s-.07,.05-.09,.06c0,0-.04-.02-.04-.1,0-.01,0-.02-.02-.03,0,0,0,0-.01,0,0,0-.01,0-.02,0-.04,.03-.07,.07-.08,.11,0-.04,0-.09,.01-.13,.01-.04,.14-.07,.16-.07,0,0,.01,0,.02,0,.03,0,.07,.01,.09,.09,0,.03,0,.05,0,.07h0Zm-.07-.23s-.01,0-.01,0c-.05-.02-.21,.03-.24,.11-.05,.12,0,.29,.03,.31,0,0,.02,0,.03,0,0,0,.01,0,.02,0,.02-.01,.02-.03,.02-.05,0-.01,.01-.07,.04-.12,.03,.1,.1,.1,.11,.1,0,0,.1-.02,.14-.09,.02-.03,.03-.07,.02-.12-.03-.12-.1-.13-.14-.14h0Z"/><path class="cls-1" d="M34.66,65.39l-11.62-6.58-10.54,5.59c-1.23-2.63-1.86-5.25-1.86-7.82,0-.87,0-2.64,0-4.9h24.02v13.72h0Zm0,19.61l-.44-.29c-8.63-4.97-15.06-10.35-19.01-15.78l7.83-4.15,11.62,6.58v13.63h0Zm.38-48.28h23.97c0,4.81,.01,10.44,.01,14.57h-23.99v-14.57h0Zm0-9.5h3.83v9.28h-3.83v-9.28h0Zm8,0h3.78v9.28h-3.78v-9.28h0Zm7.98,0h3.9v9.28h-3.9v-9.28h0Zm-2.6,40.98s-.01,0-.02,0-.01,0-.02,0h-.67v-.99h1.15l.03,.03v.97h-.47Zm.04,.8v-.69h.43v.69h-.43Zm-.66,.79v-.67h1.09v.67h-1.09Zm.65,.81v-.69h.44v.69h-.44Zm-.65,.12h1.09v.59h-1.09v-.59h0Zm-.75-.12v-.69h.68s0,0,.01,0,0,0,.01,0h.57v.69h-1.28Zm-.75,.12h1.38v.59h-1.38v-.59h0Zm-.65-.12v-.69h.57s0,0,.01,0,0,0,.01,0h.68v.69h-1.28Zm-.6,.12h1.13v.59h-1.13v-.59h0Zm-3.39-1.72v-.69h.48v.69h-.48Zm-.66,.79v-.67h1.14v.67h-1.14Zm.65,.81v-.69h.49v.69h-.49Zm-.63,.12h1.13v.59h-1.13v-.59h0Zm-.75-.12v-.69h1.27v.69h-1.27Zm-.74,.12h1.38v.59h-1.38v-.59h0Zm-.64-.12v-.69h1.27v.69h-1.27Zm.53,.12v.59h-1.08v-.59h1.08Zm-.64-.81v.69h-.44v-.69h.44Zm.64-.79v.67h-1.08v-.67h1.08Zm-.66-.8v.69h-.42v-.69h.42Zm.74-1.11v.99h-.68s0,0,0,0c0,0,0,0,0,0h-.48v-.99h1.16Zm.78,1.8v-.69h1.28v.69h-1.28Zm-.74,.12h1.36v.67h-1.36v-.67h0Zm.08-.92v-.99h1.28v.99h-1.28Zm.55,.12v.69h-1.28v-.69h1.28Zm6.91,.69v-.69h1.28v.69h-1.28Zm-.76,.12h1.38v.67h-1.38v-.67h0Zm0-.92v-.99h1.29v.99h-1.29Zm-.65,.8v-.69h.57s.01,0,.02,0,.01,0,.02,0h.68v.69h-1.29Zm-.6,0v-.69h.48v.69h-.48Zm.48,.91v.69h-.48v-.69h.48Zm-.48-.12v-.67h1.13v.67h-1.13Zm3.11-3.28l.57,.57h-1.07s-.03,0-.05,0h-6.65s-.03,0-.05,0h-2.49l.59-.57h9.14Zm-.64-.64l.52,.53h-8.9l.54-.53h7.84Zm-6.63-8.74v.86h-1.18v-.86h1.18Zm-.47-.8v.68h-.71v-.68h.71Zm1.97,.8v.86s-1.38,0-1.38,0v-.86h1.38Zm.49-.12h-.94v-.68h.94s0,.68,0,.68h0Zm.7,.12v.86s-1.07,0-1.07,0v-.86h1.07Zm1.77-.8v.68h-.94v-.68h.94Zm1.19,2.58h-.64l.38-.8h1.24l-.98,.8h0Zm-.33,6.12h1.17l.09,.62h-1.27v-.62h0Zm-.6-.12v-.68h1.08v.68h-1.08Zm-.71,.12h1.2v.62h-1.2v-.62h0Zm-.68-.12v-.68h1.28v.68h-1.28Zm-.51,.12h1.07v.62h-1.07v-.62h0Zm-.5-.12v-.68h.88v.68h-.88Zm-.7,.12h1.08v.62h-1.08v-.62h0Zm-.69-.12v-.68h1.28v.68h-1.28Zm-.59,.12h1.17v.62h-1.17v-.62h0Zm-.61-.12v-.68h1.09v.68h-1.09Zm-.7,.12h1.19v.62h-1.29l.09-.62h0Zm1.3-6.12h-.46l-.97-.8h1.14l.29,.8h0Zm.13,0l-.29-.8h1.36l.08,.8h-1.14Zm1.56,.22v.77h-1.09v-.77h1.09Zm.69-.22h-.99l-.08-.8h1.07v.8h0Zm-.58-2.25h1.29v.36h-1.29v-.36h0Zm.44-1.11c.02-.18,.12-.26,.21-.26h0c.09,0,.19,.08,.21,.26v.5h-.42v-.5h0Zm.85,.78v.21h-1.29v-.21h1.29Zm-.59,1.66v-.86s1.08,0,1.08,0v.86s-1.08,0-1.08,0h0Zm1.78,1.14v.77h-1.08v-.77h1.08Zm.12,.77v-.77h.88l.12,.77h-1Zm.4,1v-.88h.61l.14,.88h-.75Zm.32,.8v-.68h.44l.1,.68h-.55Zm-.37,.8v-.68h.93l.1,.68h-1.04Zm.61,.8v-.68h.45l.1,.68h-.55Zm-1.16,0v-.68h1.05v.68h-1.05Zm-.41,.12h1.09v.7h-1.09v-.7h0Zm-.48-.12v-.68s.76,0,.76,0v.68h-.76Zm-2.12,.12h.44s0,0,.01,0c0,0,0,0,.01,0h2v.7h-2.47v-.7h0Zm-.39-.12v-.67h.8v.67h-.8Zm-.79,.12h1.06v.7h-1.06v-.7h0Zm-.36-.12v-.67h1.03v.67h-1.03Zm-.12-.67v.67h-.57l.1-.67h.47Zm.6-.81v.69h-1.06l.1-.69h.95Zm-.36-.8v.68h-.58l.1-.68h.47Zm.3-1v.88h-.76l.13-.88h.62Zm.4-.12h-1.01l.12-.77h.89v.77h0Zm.65,1h-.94v-.88h.94v.88h0Zm-1.24,.8v-.68h.68v.68h-.68Zm.36,.12h1.35v.69h-1.35v-.69h0Zm1.35-.8v.68h-.91v-.68h.91Zm1.56,2.27h-1.41v-2.35c0-.39,.32-.7,.7-.7s.7,.32,.7,.7v2.35h0Zm1.01-2.27v.68h-.87v-.68s.87,0,.87,0h0Zm.5-.12h-.93v-.88h.93v.88h0Zm-.05,.91v.68h-1.32v-.68s1.32,0,1.32,0h0Zm-.33-.12v-.68h.71v.68h-.71Zm-.67-1.68v.88h-.33c-.02-.45-.39-.81-.84-.81s-.82,.36-.84,.81h-.36v-.88h2.37Zm-1.14-1.91h1.07l-.11,.8h-.96v-.8h0Zm.58,1.02v.77h-1.27v-.77h1.27Zm-3.79,5.1v.68h-.56l.1-.68h.46Zm-.44-.12l.11-.7h.95v.7h-1.05Zm7.21,.12l.1,.68h-.55v-.68h.45Zm-1.05-.12v-.7h.93l.11,.7h-1.03Zm-.06-6l-.38,.8h-.98l.11-.8h1.26Zm.04-.98v.86h-1.29v-.86h1.29Zm-.72-.47h1.29v.36h-1.29v-.36h0Zm.43-1.12c.02-.18,.12-.26,.22-.26h0c.09,0,.19,.08,.21,.26v.5h-.42v-.5h0Zm.86,.79v.21h-1.29v-.21h1.29Zm-1.4-1.94h1.48l-.17,.49h-1.16l-.16-.49h0Zm.16,.57h1.15l.18,1.08h-.46v-.51c-.02-.23-.16-.33-.28-.33h0c-.12,0-.26,.1-.29,.34v.5h-.48l.18-1.08h0Zm-2.61-.55h1.48l-.17,.48h-1.15l-.15-.48h0Zm.15,.56h1.15l.18,1.08h-.46v-.51c-.03-.23-.16-.33-.28-.33h0c-.12,0-.26,.1-.29,.34v.5h-.47l.18-1.08h0Zm-2.52,1.7h1.28v.34h-1.28v-.34h0Zm.4-1.12c.02-.18,.12-.26,.21-.26h0c.09,0,.19,.08,.21,.26v.5h-.42v-.5h0Zm.88,.79v.22h-1.28v-.22h1.28Zm-1.41-1.9h1.47l-.16,.46h-1.16l-.16-.46h0Zm.16,.54h1.15l.18,1.08h-.46v-.51c-.02-.23-.16-.33-.28-.33h0c-.12,0-.26,.1-.29,.34v.5h-.47l.18-1.08h0Zm6.3,2.05v-.68h.72s0,.68,0,.68h-.72Zm.72,.12v.86h-1.28v-.86h1.28Zm-1.99-3.04h.34s.08-.04,.08-.08v-.32h.2v.32s.04,.08,.08,.08h.34s.08-.04,.08-.08v-.31h.14v.53h-1.54v-.54h.18v.32s.04,.08,.08,.08h0Zm-2.45,.02h.34s.08-.04,.08-.08v-.32h.2v.32s.04,.08,.08,.08h.34s.08-.04,.08-.08v-.31h.14v.54h-1.54v-.54h.19v.32s.04,.08,.08,.08h0Zm-2.51,.02h.34s.08-.04,.08-.08v-.32h.2v.32s.04,.08,.08,.08h.34s.08-.04,.08-.08v-.31h.14v.54h-1.54v-.54h.18v.32s.04,.08,.08,.08h0Zm4.27,14.21v2.97h-2.62v-2.96c.29-.39,.8-.63,1.34-.63,.02,0,.03,0,.05,0,.52,.01,.98,.24,1.23,.62h0Zm-1.23-.77c-.58-.02-1.11,.22-1.45,.63h-1.23v-.99h5.17v.99h-1.2c-.28-.38-.76-.61-1.3-.63h0ZM21.73,27.26v.67s.02,.32-.36,.91l-.02,.04-.04-.5-.4,.29v-.36l-.41,.23,.11-.44-.56,.13,.38-.52-.51-.03,.74-.43h1.1s-.03,.01-.03,.03h0Zm3,.29l-.6,.11,.33,.34-.58-.08,.35,.5-.52-.23,.16,.52-.48-.37,.05,.58-.22-.13c-.01-.19-.04-.44-.08-.78,0,0-.02-.51,.11-.74,0-.01,0-.02,0-.04h.79l.7,.32h0Zm-7.01,10.44c.25,.08,1.53,.53,2.5,1.2-.04,.14-.08,.29-.12,.46,0,.02,0,.04,.01,.05,.01,.01,.03,.02,.04,.02,0,0,0,0,0,0,.24-.02,.43-.05,.58-.1,.11,.11,.19,.21,.22,.28,.03,.08,.04,.09,.07,.09,0,0,0,0,0,0,.02,0,.04-.01,.05-.03,0,0,0-.03,0-.05h0s0-.02-.02-.04c-.03-.1-.11-.24-.14-.31,.16-.07,.27-.15,.36-.25,.03,.05,.07,.11,.1,.16,.02,.29,.13,.59,.42,.85,.07,.18,.14,.37,.19,.55h-.56c-.49-.88-1.37-1.22-2.22-1.56-.67-.26-.89-.33-1.34-.47-.12-.04-.25-.08-.41-.13-.73-.23-1.48-.47-1.65-.75-.11-.18-.27-.43-.38-.6,.51,.23,1.14,.38,1.36,.4,.25,.02,.75,.16,.94,.22h0Zm5.64,2.88h-.37c.03-.83,.26-1.37,.34-1.48l.1-.16c.14-.02,.3-.05,.47-.13,.01,0,.02-.02,.03-.03,0-.01,0-.03,0-.04-.06-.11-.12-.2-.19-.28l.03-.05c.73-.95,1.11-1.41,2.05-2.01-.28,1.57-.69,2.05-1.05,2.38-.4,.36-1.02,1.13-1.11,1.8h-.29Zm.76,.6v.71h-3.08v-.71h3.08Zm-2.56-2.61s.02,0,.03,.01c0,0,0,0,0,0,0,0,0,0,0,0h0c.06,.03,.12,.03,.13,.03h.02s.02,0,.02,0c.02,0,.05,.01,.08,.01,.07,0,.14-.02,.21-.04,.04-.01,.08-.04,.12-.06,0,0,.02,0,.03-.01,.31,.58,.07,1.14-.21,1.52-.61-.44-.57-1.01-.45-1.48h0Zm-.22-.39h0s0,0,0,0c-.02-.04-.02-.09-.03-.13,0,0,0,0,0,0,0-.01,0-.03,0-.04,0-.01,0-.02,0-.03,0-.16,.08-.31,.21-.42,0,0,0,0,0,0,.01-.01,.03-.02,.04-.03,0,0,0,0,0,0,.04-.03,.08-.05,.12-.06,.05-.02,.11-.03,.16-.03,0,0,.02,0,.03,0,.05,0,.1,.01,.15,.03,.02,0,.04,.01,.07,.02,.05,.03,.1,.06,.14,.1,0,0,.02,.01,.02,.02,0,0,.01,.02,.02,.03h0c.04,.06,.07,.11,.09,.17h0s.02,.09,.03,.14c0,0,0,0,0,0,0,.01,0,.02,0,.04,0,.01,0,.02,0,.03h0c0,.05-.01,.1-.03,.15,0,0,0,.01,0,.02-.02,.05-.06,.1-.1,.14h0s-.01,.01-.02,.03c-.01,.01-.03,.02-.05,.03h0c-.05,.04-.1,.07-.16,.09-.06,.02-.12,.04-.18,.04-.02,0-.05-.01-.07-.01,0,0-.01,0-.02,0,0,0,0,0,0,0-.04,0-.08,0-.11-.02,0,0,0,0,0,0-.14-.06-.24-.17-.3-.31h0Zm-.58-.03c.1-.05,.19-.06,.27-.06,.07,0,.14,.01,.17,.02l.03,.12s0,.01,0,.02l.03,.09s0,0,0,0c.03,.06,.12,.13,.18,.17-.02,.03-.04,.07-.05,.1-.19,.37-.32,.62-1.17,.71,.17-.67,.3-1.04,.54-1.16h0Zm-.15-.02c-.11,.09-.2,.24-.28,.45-.95-.85-1.27-1.06-1.64-1.24-1.11-.52-1.24-.84-1.43-1.31-.02-.04-.03-.08-.05-.12,.85,.16,1.47,.54,1.72,.69,.12,.07,.19,.12,.26,.17,.07,.04,.13,.09,.25,.16,.39,.24,1.01,.99,1.18,1.21h0Zm1.51-.76c-.08-.04-.17-.06-.27-.06,0,0,0,0,0,0-.02,0-.04,0-.05,.01-.09,0-.17,.03-.24,.07-.16-.37-.27-1.01,.2-1.4,.49,.47,.6,.87,.37,1.37h0Zm.71,.53c.18-.08,.4-.19,.6-.39-.05,.18-.1,.36-.16,.55-.13-.07-.28-.12-.44-.15h0Zm-.48,.52c.06-.05,.09-.09,.09-.1,0,0,0-.01,0-.02l.02-.06s0,0,0,0c0,0,0-.01,0-.02,0,0,0,0,0-.01l.03-.13s0-.03,0-.04v-.03s0-.02,0-.04c0,0,0-.02,0-.03,.68,.08,1.02,.29,1.29,.79-.34,.14-.66,.11-.8,.1h-.04c-.1-.01-.52-.27-.62-.42h0Zm-.11,1.7l.05-.32s0,0,0,0c.15-.31,.21-.63,.15-.93,0,0,0,0,0,0l.03-.18c.17,.13,.39,.25,.48,.26h0c-.32,.64-.34,1.26-.35,1.56,0,.03,0,.06,0,.09h-.39c.04-.26,.03-.47,.02-.47h0Zm.79-3.46c.21-.38,.56-1.07,.73-1.47,.04,.39,0,.87-.11,1.44-.22-.02-.43-.01-.62,.04h0Zm.74,.08c-.21,.7-.66,.92-.99,1.08-.05,.02-.09,.04-.13,.06-.04,0-.07-.01-.11-.02l-.05-.03s0-.03-.01-.05c0,0,0,0,0,0,0,0,0,0,0,0-.02-.07-.06-.13-.1-.18,0,0,0,0,0-.01v-.02s-.02,0-.02-.01c-.02-.02-.04-.04-.06-.06-.02-.02-.04-.05-.06-.06,.09-.11,.22-.26,.22-.27,.26-.37,.72-.52,1.32-.43h0Zm-3.67-1.71c.06,.16,.15,.39,.27,.69,.15,.38,.32,.79,.44,1.12-.15-.06-.34-.11-.55-.12-.05-.18-.2-.82-.16-1.68h0Zm1.33,2.46c-.14,.12-.23,.3-.23,.5,0,0,0,0,0,0,0,0,0,0,0,0-.08-.02-.21-.03-.33,0-.25-.18-.59-.49-.8-1.18,0,0,.02,0,.02,0,.91,0,1.27,.54,1.34,.68h0Zm.81-5.93s.05,.02,.07,.03v1.01c-.09-.05-.43-.2-.88-.17,0,0-.51,.01-.78-.26v-2.65c.17,.08,.52,.22,.79,.26,.08,.01,.38,.03,.42,.03,.02,.18,.1,.87,.2,1.18,.06,.17,.08,.24,.08,.26,0,0,0,0,0,0,0,.02,0,.2,.1,.29h0Zm1.78,.63c-.24,.21-.62,.25-.66,.25-.38-.09-.81,.07-.97,.13v-.96s.02,0,.02,0c.13-.01,.24-.15,.29-.24,.1-.17,.18-.42,.11-.58l-.08-.58s.07-.21,.15-.42c0,0,0,0,.01,0,.25,0,.48,.06,.48,.06,.26,.02,.52-.1,.64-.15v2.49h0Zm.2-2.39h0v2.55c-.09,.08-.39,.29-.93,.29-.02,0-.04,0-.06,0h-.08c-.29-.01-.42-.01-.77,.18v-.16c.14-.06,.59-.23,.96-.14,0,0,0,0,.01,0,.02,0,.45-.03,.73-.28,0,0,.01-.02,.01-.03v-2.46l.12-.07v.13h0Zm0,2.78c-.2,.14-.33,.22-1,.25-.07,0-.12,0-.18,0-.22,0-.35,.01-.66,.17v-.11c.36-.2,.47-.2,.76-.19h.08s.04,0,.06,0c.56,0,.87-.22,.98-.31,.01,0,.02-.02,.02-.03v-2.54l.1-.05v2.7c-.07,.04-.12,.08-.17,.11h0Zm.25-2.65l.11-.07v2.79c-.49,.42-1.05,.44-1.43,.41-.27-.02-.62,.13-.76,.19v-.17c.31-.17,.43-.17,.66-.18,.05,0,.11,0,.18,0,.7-.03,.83-.12,1.04-.26,.05-.04,.11-.08,.19-.12,.01,0,.02-.02,.02-.03v-2.56h0Zm-2.63-2.3v-.61s1.29-.02,1.29-.02c-.11,.27-.09,.7-.09,.72,.13,1.03,.09,1.23,.08,1.26,0,0-.01,.01-.02,.02-.24,.54-.46,1.17-.46,1.17,0,0,0,.02,0,.02l.08,.61c.05,.12,0,.33-.1,.5-.07,.11-.15,.18-.21,.19-.04,0-.06,0-.09-.03-.05-.04-.06-.13-.06-.19,0-.02,0-.05-.01-.11,.04-.02,.11-.06,.16-.06,.02,0,.04,.01,.05,.03,.01,.02,.03,.02,.05,.01,.02-.01,.02-.03,.01-.05-.02-.04-.06-.06-.1-.07-.08-.01-.15,.03-.2,.06-.01-.04-.03-.09-.05-.16-.12-.34-.2-1.19-.2-1.2,0-.02-.02-.04-.04-.04-.1-.03-.34-.04-.37-.05-.23,0-.48-.1-.57-.14,.1-.26,.46-.86,.46-.86l.04-.06s0,0,0,0c.4-.63,.36-.96,.36-.97h0Zm-4.62,1.86l.99-.5-.88-.31,1.14-.34-.75-.32,.87-.31-.6-.61,2.2-.04-.73,.43,.71,.04-.44,.61,.7-.16-.14,.54,.48-.28v.39l.42-.3,.04,.45c-.12,.22-.32,.58-.38,.74-.08-.03-.14-.06-.19-.08l-.04-.02s-.03,0-.04,0c-.01,0-.02,.02-.02,.03v2.72s0,.02,.01,.03c.29,.3,.82,.29,.85,.29,.5-.03,.87,.17,.87,.17,0,0,0,0,0,0v.15c-.31-.16-.44-.17-.66-.18-.06,0-.12,0-.2,0-.39-.02-.7-.12-1-.31v-2.7s-.02-.04-.04-.04-.04,.02-.04,.04v2.72s0,.01,0,.02c0,0,0,0,0,0,0,0,0,0,0,0,.32,.21,.64,.31,1.05,.33,.08,0,.14,0,.2,0,.22,0,.34,0,.66,.19v.11c-.3-.16-.44-.17-.65-.17-.06,0-.12,0-.2,0-.52-.03-.9-.25-1.18-.41v-2.69s-.02-.04-.04-.04-.04,.02-.04,.04v2.71s0,0,0,0h0s0,.01,0,.02h0s0,0,0,.01h0s0,0,0,0c.27,.16,.68,.39,1.23,.43,.08,0,.14,0,.2,0,.21,0,.33,0,.65,.18v.16c-.33-.22-.77-.2-.78-.2l-.44-.06c-.37-.08-.89-.4-.99-.46v-2.65s-.02-.04-.04-.04-.04,.02-.04,.04v2.68s0,.02,.02,.03c.02,.02,.61,.4,1.03,.48l.45,.07s.48-.02,.79,.22c0,0,.01,0,.02,0h0s0,0,0,0c.01,0,.01-.01,.02-.02,.07-.03,.48-.23,.77-.21,.4,.02,.99,0,1.5-.44,0,0,.01-.02,.01-.03v-2.87s0-.03-.02-.03c-.01,0-.03,0-.04,0l-.13,.08v-.13s0-.02-.02-.03c-.01,0-.02,0-.04,0l-.12,.06v-.13s0-.03-.02-.03c-.01,0-.03,0-.04,0l-.14,.08v-.02s0-.03-.02-.03c-.01,0-.03,0-.04,0,0,0-.32,.17-.6,.17-.02,0-.03,0-.05,0,0,0-.23-.06-.48-.06,.08-.2,.17-.43,.26-.65,0,0,0,0,0,0,.02-.02,.06-.06,.05-.39l.37,.23-.05-.54,.58,.45-.2-.65,.7,.31-.45-.65,.66,.09-.42-.44,.78-.15-.59-.27,2.28,.05-.92,.56,1.38,.49-1.2,.15,1.25,.56-1,.06,1.22,.68h-1.26s1.64,.89,1.64,.89l-1.03-.14,.48,.86-1.12-.55,.87,1.38-.87-.44,.42,.85-.86-.56,.47,1.49-1-.81,.35,1.42-.87-.81-.11,1.01-.62-.8-.2,.92-.57-.61-.27,.72-.6-.62-.44,.69-.39-.72-.62,.62-.15-.78-.6,.39-.14-.62-.6,.5,.04-.79-.65,.51v-.97s-1.07,.68-1.07,.68l.6-1.25-1.21,.46,.87-1.19-.97,.16,1.09-1.07-1.32,.14,1.13-.9-.78-.14h0Zm-2.56,12.53c0,.08,.01,.16,.02,.26,.04,.73-.44,1.09-.83,1.38-.05,.03-.09,.07-.13,.1-.13,.1-.21,.12-.23,.09-.04-.05,0-.2,.07-.27,.18-.18,.38-.79,.4-1.02,.02-.2,.03-.22,.09-.31,.01-.02,.03-.04,.05-.06,.05-.06,.11-.13,.13-.29,0,0,0,0,0,0,0,0,0,0,0,0,0-.02,0-.04-.02-.05-.01,0-.02-.01-.04-.01,0,0-.01,0-.02,0,0,0-.15,.05-.33,.21-.16,.15-.18,.29-.21,.52l-.02,.11c-.03,.19-.13,.56-.44,.88-.04,.04-.06,.04-.06,.04,0,0-.01-.01-.02-.03-.05-.12-.05-.55,.06-1.06,.15-.72,.44-.91,.75-1.05,0,0,.24-.1,.37-.15,0,0,.01,0,.02-.01l.04-.04s.07-.06,.1-.11l.07-.08,.34,.07c-.2,.37-.19,.56-.17,.88h0Zm5.12-2.25c-.89-.46-1.61-.35-2.08-.28-.09,.01-.18,.03-.25,.03-.89,.08-2.23,1-2.56,1.51l-.34-.07c.14-.18,.33-.42,.61-.64,.81-.66,1.1-.74,1.52-.88l.05-.02c.99-.31,1.94-.3,2.68,0l.18,.07c.61,.25,1.05,.43,1.46,1.1h-.41c-.85-.76-1.95-.8-2.81-.09-.21,.17-.39,.43-.58,.7-.07,.1-.14,.21-.22,.31-.09,.12-.6,.62-.8,.79-.08-1.23,.45-1.84,.92-2.13,.46-.29,.89-.45,1.34-.5,.61-.06,1.23,.18,1.24,.18,.03,.01,.06,0,.07-.03,.01-.03,0-.06-.03-.07h0Zm-.84,5.06c-.07-.17-.21-.38-.36-.63-.51-.81-1.21-1.93-.75-2.84,.28-.55,.8-.9,1.39-.94,.56-.04,1.09,.21,1.38,.64,.31,.65,.02,1.15-.02,1.2-.11,.18-.39,.33-.69,.27-.11-.02-.2-.08-.26-.18-.07-.11-.08-.25-.06-.33,.03-.14,.25-.32,.34-.33h0c.09,0,.22,.06,.28,.09h.02s.04,.02,.06,0c.02-.01,.03-.03,.03-.06,.02-.34-.02-.48-.21-.67-.26-.25-.6-.33-1.04-.23-.3,.07-.59,.31-.79,.66-.16,.29-.22,.59-.15,.81l.03,.09c.13,.42,.28,.89,1.49,1.44-.22,.16-.34,.15-.46,.14-.03,0-.07,0-.1,0h0s-.05,.01-.06,.03c-.01,.02-.01,.05,0,.07,.56,.91,.99,1.99-.06,3.12-.16,.13-.38,.2-.57,.16-.15-.03-.27-.11-.34-.25-.16-.27-.09-.56,.02-.67,.09-.09,.24-.14,.35-.14,.05,0,.09,0,.12,.03,.09,.07,.16,.21,.16,.21,.01,.02,.03,.04,.06,.04,.03,0,.05,0,.06-.03,.4-.58,.42-.98,.09-1.73h0Zm5.19,5.39v.33h-3.16v-.33h1.61s1.55,0,1.55,0h0Zm-3.2-.15c-2.62-2.28-.87-4.55-.03-5.64,.05-.06,.1-.12,.14-.18,.71-.94,.4-1.62,.08-2.22h1.48s1.48,0,1.48,0c-.32,.6-.63,1.29,.07,2.23,.04,.05,.09,.11,.14,.18,.84,1.09,2.58,3.36-.04,5.63h-3.31Zm5.37-3.51s.05,.03,.06,.03c.02,0,.05-.02,.06-.04,.02-.04,.09-.16,.16-.21,.08-.05,.34-.02,.47,.11,.11,.11,.17,.4,.01,.67-.08,.13-.2,.22-.34,.24-.19,.03-.4-.03-.56-.16-1.05-1.14-.6-2.22-.04-3.12,.01-.02,.01-.05,0-.07-.01-.02-.04-.04-.06-.04h0s-.07,0-.1,0c-.12,.01-.24,.02-.46-.14,1.22-.53,1.37-1.01,1.5-1.43l.03-.09c.07-.21,.02-.52-.14-.8-.19-.35-.48-.6-.78-.67-.44-.1-.78-.03-1.04,.22-.19,.18-.23,.33-.21,.67,0,.02,.01,.04,.03,.06,.02,.01,.04,.01,.06,0h.02c.06-.04,.2-.1,.29-.1,.09,0,.31,.19,.34,.33,.02,.08,0,.21-.07,.32-.06,.09-.15,.15-.26,.17-.3,.06-.58-.09-.69-.27-.03-.06-.32-.56-.01-1.19,.3-.43,.83-.67,1.39-.63,.6,.05,1.11,.4,1.39,.96,.45,.91-.26,2.02-.78,2.83-.16,.25-.29,.46-.37,.63-.33,.74-.32,1.14,.08,1.73h0Zm-1.18-6.76s2.01-.6,3.47,.2c.67,.37,1.13,.97,1.36,1.79,0,0,.07,.54,.02,.9-.27-.2-.72-.53-.8-.63,0-.02-.99-1.56-2.52-1.91-.77-.17-1.55-.01-2.31,.47l-.46-.02c.15-.59,.38-.86,.59-1.1l.05-.06c.21-.24,.72-.74,1.29-1.16,.47-.35,2.04-1.63,2.31-1.92,.31-.34,.78-.62,1.06-.79,.06-.04,.12-.07,.16-.1,.38-.25,1.14-.3,1.49-.31-.63,.42-.96,.69-1.08,.87-.13,.2-.95,.92-1.24,1.12-.3,.22-.73,.53-.94,.72-.17,.16-.57,.41-.64,.45-.18,.04-1,.47-1.4,.71-.11,.05-.19,.1-.25,.13-.03,.02-.03,.05-.02,.08,.02,.03,.05,.03,.08,.02,.01,0,.02-.02,.04-.02h0s.09-.04,.18-.1c.33-.16,.86-.37,1.14-.44,.02,0,2.01-.83,3.43-.64,.04,0,.89,.1,1.3,.03-.29,.25-1.16,.78-2.12,.64-.22-.03-1.19,0-1.32,.02-.25,.04-.52,.09-.71,.12-.02,0-.05,0-.07,.01-.1,0-.19,.01-.22,.03-.02,.01-.05,.05-.04,.07,.02,.05,.02,.05,.27,0,.11,0,.27,0,.4,0,.11,0,.91,.04,1.31,.24,.31,.15,.88,.46,1.24,.9l.13,.16c.24,.29,.31,.37,.39,.45,.09,.08,.12,.08,.2,.09h.04s.16,.03,.26,.13c-.16,.05-.5,.16-.71,.38,0-.03-.02-.05-.02-.08,0-.05,.01-.1,.02-.14,.01-.06,.02-.11,.01-.16,0-.06-.06-.11-.12-.17-.04-.04-.08-.08-.11-.13-.09-.13-.74-.79-1.07-1-.6-.37-1.03-.43-1.57-.49l-.15-.02s-.09,0-.15,0c-.63,0-1.85,.37-2.26,.52-.03,.01-.04,.04-.03,.07,0,.03,.04,.04,.07,.04h0Zm6.31,1.58c.26,.15,.43,.29,.53,.43,0,0,0,0,0,0,.01,.02,.02,.04,.03,.06,.02,.03,.03,.06,.04,.08,.05,.14,.06,.24,.07,.35,0,.06,.01,.12,.02,.19,.02,.1,.09,.21,.17,.3-.44-.09-.73-.22-.87-.47-.03-.06-.07-.12-.08-.19-.06-.28-.14-.42-.2-.51-.05-.06-.09-.1-.1-.1-.02-.01-.05-.01-.07,0-.02,.02-.02,.04-.01,.06,.05,.1,.07,.19,.1,.28,0,.01,0,.03,.01,.04,.02,.09,.04,.17,.05,.25,0,.03,.01,.06,.02,.09,0,.03,0,.06,.02,.09,.03,.1,.08,.19,.15,.26,0,0,.01,.01,.02,.02,.06,.06,.12,.1,.16,.13,.04,.02,.18,.09,.34,.16-.44-.04-.74-.17-.89-.62-.05-.15-.08-.34-.09-.57,0-.03-.02-.05-.05-.05-.03,0-.05,.02-.06,.05-.06,.44-.03,.74,.1,.94,.05,.08,.1,.14,.15,.19,.05,.05,.1,.09,.13,.11-.23,.21-.58,.3-.75,.33,.01-.02,.01-.04,.02-.07,.12-.31,.12-.57,.08-.79-.01-.08-.03-.16-.05-.23-.01-.06-.02-.1-.03-.15-.02-.13,0-.19,.02-.26,0-.02,.01-.03,.02-.05,0-.02,.02-.04,.03-.06,.02-.06,.03-.1,.02-.13,0-.02,0-.04,0-.06,0,0,0,0,0,0,.19-.24,.63-.37,.75-.4,0,0,0,0,.01,0,.04,.04,.07,.06,.12,.07,0,0,0,0,0,0,.05,0,.09,.01,.14,.01,.05,0,.1,0,.15,.01,.12,.03,.28,.14,.47,.34,.03,.03,.06,.07,.1,.1,.08,.09,.17,.15,.27,.2,.13,.06,.27,.1,.38,.12-.29,.25-.49,.33-.57,.35-.08-.32-.2-.61-.46-.81-.02-.01-.03-.03-.05-.05-.03-.02-.08-.03-.12-.05-.07-.04-.14-.08-.23-.1,0,0,0,0,0,0,0,0,0,0,0,0-.02,0-.05,0-.06,.03,0,.03,0,.05,.02,.07h0Zm28.12-14.71v-.26H10.13v.26s-.02,25.42-.02,29.62c0,9.58,8.47,19.73,23.83,28.59l.88,.58,.92-.56c15.36-8.83,23.82-18.99,23.82-28.6,0-4.19-.03-29.62-.03-29.62h0Z"/><path class="cls-1" d="M29.86,57.44c-.28-.07-.47-.23-.51-.43v-.05c-.05-.19-.08-.36-.36-.4-.02,0-.04,.01-.04,.03,0,.02,.01,.04,.03,.04,.23,.03,.26,.16,.3,.35v.05c.06,.23,.26,.4,.57,.48,.29,.07,.5,.37,.5,.38,0,0,.02,.01,.03,.01,0,0,.01,0,.02,0,.02-.01,.02-.03,0-.05,0-.01-.23-.32-.54-.4h0Z"/><path class="cls-1" d="M30.35,54.94s.08-.19,.26-.28c-.27-.11-.36-.17-.79-.09,.27,.02,.32,.16,.53,.37h0Z"/><path class="cls-1" d="M28.73,57.62s-.01-.04-.03-.04h0s-.03,.01-.03,.03c-.02,.26,.05,.39,.05,.4,0,.01,.02,.02,.03,.02,0,0,.01,0,.02,0,.02,0,.02-.03,.01-.05,0,0-.06-.12-.04-.36h0Z"/><path class="cls-1" d="M29.49,57.65s-.01,.04,0,.05c.15,.13,.18,.36,.18,.37,0,.02,.02,.03,.03,.03h0s.03-.02,.03-.04c0-.01-.03-.26-.2-.41-.01-.01-.04-.01-.05,0h0Z"/><path class="cls-1" d="M28.95,57.48s0-.04-.03-.04c-.02,0-.04,0-.04,.03-.04,.23,.06,.42,.1,.49,0,.01,.02,.02,.03,.02,0,0,.01,0,.02,0,.02,0,.02-.03,.01-.05-.04-.06-.13-.24-.1-.45h0Z"/><path class="cls-1" d="M26.74,58.39c-.11-.05-.16-.08-.26-.28,0-.02-.03-.02-.05-.02-.02,0-.02,.03-.02,.05,.11,.22,.18,.26,.29,.31,.02,.01,.05,.02,.08,.04,0,0,.01,0,.02,0,.01,0,.02,0,.03-.02,0-.02,0-.04-.01-.05-.03-.02-.06-.03-.08-.04h0Z"/><path class="cls-1" d="M29.8,57.67s-.04,0-.05,.02c0,.02,0,.04,.02,.05,.23,.11,.28,.2,.35,.31,0,.02,.02,.04,.03,.05,0,.01,.02,.02,.03,.02,0,0,.01,0,.02,0,.02-.01,.02-.03,.01-.05-.01-.02-.02-.03-.03-.05-.06-.11-.12-.22-.38-.34h0Z"/><path class="cls-1" d="M28.49,57.62s-.04,0-.04,.03c-.04,.23,0,.43,0,.44,0,.02,.02,.03,.03,.03,0,0,0,0,0,0,.02,0,.03-.02,.03-.04,0,0-.04-.2,0-.41,0-.02,0-.04-.03-.04h0Z"/><path class="cls-1" d="M28.25,57.69s-.04,.01-.04,.03c-.02,.19,0,.44,0,.45,0,.02,.02,.03,.03,.03h0s.03-.02,.03-.04c0,0-.02-.26,0-.44,0-.02-.01-.04-.03-.04h0Z"/><path class="cls-1" d="M27.05,58.31s-.14-.06-.19-.24c0-.02-.02-.03-.04-.03-.02,0-.03,.02-.03,.04,.05,.22,.19,.27,.23,.29h0s.02,0,.02,0c0,0,.02,0,.02-.01,.01-.01,.01-.04,0-.05,0,0-.01,0-.02-.01h0Z"/><path class="cls-1" d="M27.77,57.81s-.01-.04-.03-.04c0,0,0,0,0,0-.02,0-.03,.01-.03,.03-.02,.15,.03,.37,.03,.38,0,.02,.02,.03,.03,.03,0,0,0,0,0,0,.02,0,.03-.02,.03-.04,0,0-.05-.22-.03-.35h0Z"/><path class="cls-1" d="M27.12,58.02s-.02-.03-.03-.03-.03,.02-.03,.03c0,.1,.09,.17,.13,.21,0,0,.02,.01,.02,.02,0,0,.02,.01,.03,.01,0,0,.02,0,.02,0,.01-.01,.02-.03,0-.05,0,0-.02-.01-.03-.02-.04-.03-.11-.08-.11-.15h0Z"/><path class="cls-1" d="M23.91,57.14c.3-.2,.48-.25,.61-.25,.07,0,.12,.02,.16,.03,.54,.22,.69,.14,.86,.05,.07-.04,.15-.08,.27-.09,.19-.03,.33-.02,.44-.01,.02,.02,.04,.04,.05,.05l.02,.02s.02,.01,.02,.01c0,0,0,0,.01,0,.01,0,.02-.01,.02-.03,0-.01,0-.01,0-.03,.06,.01,.11,.03,.16,.05h.03c.05,.07,.1,.12,.13,.15,0,0,.01,0,.02,0,0,0,.01,0,.02,0,.01,0,.02-.02,.02-.03,0,0,0-.01,0-.02,.13,.05,.31,.12,.58,.18-.11,.06-.24,.14-.31,.26,0,0-.01,0-.01,.02-.22-.08-.33-.22-.46-.39-.03-.04-.06-.08-.1-.13,0,0-.02-.01-.03-.01-.01,0-.02,.01-.03,.02,0,.02-.16,.46,.05,.75-.13,.02-.28,.04-.37,.04-.03,0-.06,0-.09,0-.13,0-.25-.02-.63,.21-.38,.23-.55,.17-1.38-.18-.16-.07-.25-.18-.27-.32-.01-.14,.07-.27,.21-.36h0Zm1.78-.77s.03,0,.05,0c.07-.03,.13-.05,.18-.06,.01,.06,.03,.13,.05,.18,0,.09,0,.17,.02,.25-.18-.12-.27-.27-.31-.36h0Zm.43,.35s-.03,0-.04,0c0-.02,0-.05,0-.07,.02,.03,.03,.05,.05,.07h0Zm-.13-.44c.09-.02,.17-.01,.27,.03,.02,.1,.04,.19,.07,.27-.01,.04-.01,.08-.02,.13,0,.04,0,.08,0,.13-.1-.11-.26-.29-.31-.56h0Zm-.82-.16c-.04-.06-.08-.28-.04-.46,.02-.08,.06-.14,.11-.17,.34-.18,.41-.44,.42-.52,.06-.1,.19-.16,.32-.16h.01c.14,0,.27,.09,.34,.22,.02,.03,.03,.07,.04,.1,.05,.12,.1,.25,.33,.38,.11,.06,.19,.21,.18,.36,0,.12-.06,.22-.15,.26-.23,.12-.27,.1-.36,.05h-.02c-.25-.14-.4-.08-.67,.02-.24,.09-.47-.02-.53-.11h0Zm3.24,.39c.09,.29,.23,.45,.32,.52-.19,.02-.26,.05-.34,.11l-.03,.02s-.1,.07-.15,.08c0-.33,.13-.62,.2-.74h0Zm-.49,.19c.11-.13,.15-.25,.16-.34,.07,.15,.07,.26,.07,.31-.08,0-.17,.02-.24,.03h0Zm-.93-.16c.02-.06,.06-.1,.11-.12,0,0,0,0,0,0,.01,0,.33-.19,.36-.49,.02-.15-.04-.3-.16-.44,.21,.03,.36,.11,.45,.22,.11,.13,.14,.33,.09,.59-.04,.27-.2,.36-.29,.42h0c-.19,.13-.38,.05-.38,.05-.05-.02-.08-.03-.1-.04-.04-.01-.04-.01-.07-.06-.02-.03-.03-.08-.01-.13h0Zm-.14,.02s.04,.04,.06,.06c0,.03,.01,.07,.03,.09,.04,.06,.05,.06,.1,.08,.02,0,.05,.02,.09,.04,.02,.01,.09,.03,.17,.03,.03,0,.07,0,.11-.01,.09,.01,.18,.02,.27,0,.05,0,.09-.02,.14-.03,.14-.03,.26-.05,.39-.04-.04,.12-.07,.26-.07,.42-.07,0-.15,0-.29-.05-.09-.02-.18-.03-.27-.02h0c-.43-.09-.67-.17-.83-.24,.02-.18,.06-.28,.09-.33h0Zm-.43,.2s-.03,0-.04-.01c0-.01,0-.03,0-.04,0-.01,0-.02,0-.02,.01,.02,.02,.05,.04,.07h0Zm-.08-.42c.09,.05,.18,.06,.34,0,.03,.06,.07,.12,.12,.17-.05,.07-.12,.2-.12,.48-.1-.1-.27-.32-.34-.65h0Zm.19,1.39c-.17-.2-.12-.52-.09-.66,.02,.02,.04,.05,.05,.07,.12,.16,.24,.32,.46,.4-.07,.07-.15,.12-.22,.14-.04,.01-.12,.03-.2,.04h0Zm.06-2.73c.08,.01,.19,.02,.28,.03,.07,0,.13,.01,.17,.02,.08,0,.2-.02,.29-.1,.07-.06,.12-.15,.12-.25,0-.12-.02-.21-.09-.28-.05-.05-.13-.09-.23-.1,.28-.09,.55-.01,.78,.09,.06,.03,.1,.05,.14,.08,.16,.09,.25,.11,.43-.13,.18-.23,.49-.25,.76-.18-.02,.02-.04,.04-.05,.07-.02,.03-.02,.07,.01,.1,.03,.02,.07,.02,.1,0,.28-.32,.57-.49,.86-.49h.02c.16,0,.29,.05,.39,.11,0,0,0,0,.01,0,.09,.05,.15,.11,.18,.15,.02,.03,.07,.04,.1,.01,.03-.02,.04-.07,.01-.1-.04-.05-.1-.11-.18-.16,.08-.31,.4-.6,.78-.69,.42-.11,.5-.22,.67-.46,.04-.06,.09-.13,.16-.21,.06,.14,.09,.28,.12,.41-.3,.38-.55,.52-.71,.6-.04,.02-.07,.03-.09,.05-.01,0-.02,.02-.01,.04,0,.02,.02,.02,.03,.02,.16,0,.34,0,.43,.02-.15,.23-.42,.47-.54,.57-.4,.1-.6,.31-.63,.89,0,.04,.03,.07,.07,.08,.04,0,.07-.03,.08-.07,.03-.63,.27-.73,.75-.8l.11-.02s0,0,.01,0l.4-.06s.64-.11,.95-.79c.02,.17,.02,.32,.02,.45-.36,.81-.74,1.04-1.07,1.25-.05,.03-.1,.06-.15,.09-.01,0-.02,.02-.01,.04,0,.01,.02,.02,.03,.03,.18,0,.33-.02,.41-.04-.25,.44-.67,.9-.67,.9,0,0-.01,.02,0,.03,0,.01,.01,.02,.03,.02,.23,.04,.47,.05,.68,.05,.24,0,.44-.01,.53-.02,.02,.02,.04,.04,.07,.03,.23-.07,.39-.12,.51-.18-.25,.61-.6,.71-.78,.76-.03,0-.06,.04-.05,.08,0,.04,.04,.06,.07,.06,.26,0,.51-.05,.69-.11-.14,.28-.26,.45-.37,.55-.78-.08-1.38-.46-1.61-.62-.02-.01-.04,0-.05,0-.01,.02,0,.04,0,.05,.23,.16,.82,.52,1.59,.62-.07,.06-.13,.09-.18,.12-.02,.01-.05,.03-.07,.04-.1,.07-.49,.07-.72-.09-.03-.02-.08-.01-.1,.02-.02,.03-.01,.08,.02,.1,.24,.16,.39,.29,.52,.38,.05,.04,.1,.08,.15,.11-.09,.03-.18,.03-.26,.04-.6-.34-.98-.79-.99-.8-.01-.01-.03-.02-.05,0-.01,.01-.02,.03,0,.05,0,0,.35,.41,.9,.75-.24-.02-.44-.11-.58-.21-.02-.02-.05-.02-.07,0-.02,.01-.04,.03-.04,.06-.02,.14-.03,.31,0,.44-.13-.05-.21-.14-.24-.18,0,0-.01-.02-.02-.02l-.03-.04s0,0,0,0c-.17-.2-.24-.61-.24-.61,0-.02-.02-.03-.04-.03-.02,0-.03,.02-.03,.04,0,.02,.07,.36,.21,.58-1.14,.17-1.7,.02-1.88-.06-.23-.09-.45-.12-.79,.03-.16,.07-.55,.11-.71,.06-.23-.09-.43,.02-.57,.12-.02,.01-.04,.03-.06,.05-.17,.14-.44,.35-.86-.09-.13-.15-.21-.16-.32-.17-.02,0-.04,0-.06,0-.05,0-.09-.17-.09-.26,.02,0,.04,0,.05,0,.03,0,.07,0,.11,0,.18-.01,.56-.07,.68-.1,.17-.05,.3-.14,.38-.28,.1-.18,.41-.27,.44-.28h0c.08,0,.15,0,.24,.02,.14,.04,.24,.06,.33,.06,.1,0,.18-.03,.26-.09,.02-.02,.04-.03,.05-.04,.07-.05,.1-.08,.36-.09,.03,0,.05-.02,.06-.04,.01-.03,0-.06-.01-.08-.09-.11-.18-.18-.27-.23-.06-.09-.11-.2-.15-.36,0-.01-.01-.02-.03-.03-.02,0-.03,0-.03,.01,0,0-.06,.1-.12,.23-.01,0-.03,0-.04,0,0-.08-.02-.22-.13-.4,0-.01-.02-.02-.04-.01-.01,0-.02,.02-.03,.03v.02c-.01,.08-.03,.23-.18,.39-.02,0-.04,0-.06,.01-.03,0-.06,.01-.1,.02,.09-.07,.18-.18,.21-.39,.04-.29,0-.5-.11-.65-.12-.15-.31-.23-.59-.26-.01,0-.03,0-.03,.02,0,.01,0,.03,0,.04,.16,.15,.23,.3,.21,.45-.03,.25-.3,.42-.32,.44-.05,.02-.09,.06-.11,.11-.05-.05-.1-.12-.14-.19,.14-.07,.22-.21,.22-.38,0-.2-.1-.4-.26-.48-.19-.11-.22-.2-.27-.31-.02-.04-.03-.08-.05-.12,0-.02-.02-.02-.03-.04,.05,.02,.09,.05,.15,.06h0Zm5.75-1.26c-.15,.29-.39,.4-.43,.41l-.12,.02s-.07,.01-.11,.02c.15-.14,.37-.36,.49-.56,0,0,0-.02,0-.03,0-.01-.01-.02-.03-.02,0,0-.17-.02-.35-.02,.15-.08,.38-.22,.65-.55,.04,.28,.01,.53-.1,.73h0Zm.56,1.21s-.03,.05-.02,.07c0,.03,.03,.04,.05,.05,.19,.04,.36,.01,.49-.02-.27,.41-.56,.52-.82,.56-.04,0-.06,.04-.06,.08,0,.04,.04,.07,.08,.06,.48-.05,.82-.14,1.03-.24-.18,.38-.37,.51-.56,.63-.01,0-.02,.02-.03,.03-.17,.01-.67,.05-1.13-.02,.12-.14,.47-.56,.68-.94,0-.01,0-.03,0-.04,0-.01-.02-.02-.04-.01,0,0-.14,.05-.35,.05,.02,0,.03-.02,.05-.03,.31-.19,.68-.42,1.03-1.14-.03,.43-.15,.65-.4,.89h0Zm-8.98,2.99c.49,.21,.78,.33,1.03,.33,.16,0,.31-.05,.49-.16,.17-.1,.27-.15,.36-.17,0,.08,.03,.37,.22,.38,.03,0,.05,0,.07,0,.08,0,.12,0,.22,.12,.23,.24,.42,.31,.59,.31,.21,0,.37-.13,.47-.21,.02-.01,.04-.03,.05-.04,.17-.13,.3-.15,.44-.1,.19,.07,.63,.03,.82-.06,.3-.13,.48-.11,.68-.03,.2,.08,.79,.24,1.96,.06l.02,.02c.05,.06,.19,.22,.45,.26,.03,0,.06,0,.07-.03,.02-.02,.02-.05,0-.08,0-.01-.05-.1-.03-.37,.24,.14,.64,.28,1.15,.08,.03-.01,.04-.03,.05-.06,0-.03-.01-.05-.03-.07-.08-.05-.16-.11-.25-.19-.05-.04-.1-.08-.16-.12,.18,.02,.35,0,.43-.06,.02-.01,.03-.02,.06-.03,.16-.09,.42-.23,.76-.99,.01-.03,0-.07-.03-.09-.03-.02-.07-.02-.09,0-.03,.03-.17,.1-.38,.14,.19-.14,.4-.4,.55-.87,.01-.03,0-.07-.03-.08-.03-.02-.07,0-.09,.02-.04,.04-.12,.09-.24,.14,.13-.14,.25-.33,.37-.64,.01-.03,0-.07-.03-.09-.03-.02-.06-.02-.09,0-.08,.07-.27,.16-.57,.23,.16-.12,.31-.3,.45-.57,.01-.03,0-.06-.01-.08-.02-.02-.06-.03-.08-.01-.02,.01-.21,.11-.45,.1,.35-.4,.41-.83,.29-1.83,0-.03-.03-.06-.07-.06-.03,0-.07,.02-.07,.05-.23,.85-.92,.98-.94,.98h-.07c.07-.06,.15-.15,.21-.25,.16-.27,.27-.76-.06-1.5-.01-.02-.03-.04-.06-.04-.03,0-.05,0-.06,.03-.1,.12-.18,.22-.24,.31-.17,.23-.23,.31-.59,.41-.41,.1-.76,.41-.87,.76-.11-.05-.24-.09-.38-.09-.29,0-.56,.11-.82,.36-.33-.11-.76-.11-1,.2-.13,.17-.14,.16-.25,.1-.04-.02-.09-.06-.16-.08-.2-.09-.67-.29-1.16,.05-.03,.02-.04,.05-.03,.08,.01,.03,.04,.05,.07,.05,.21-.02,.34,0,.41,.07,.04,.04,.05,.09,.05,.17,0,.06-.03,.11-.07,.15-.06,.05-.15,.07-.18,.07-.04,0-.1-.01-.17-.02-.09,0-.2-.02-.27-.03-.04,0-.08-.03-.13-.05-.09-.05-.22-.11-.47-.12h0s0,0,0,0c-.19,0-.37,.09-.46,.24,0,0,0,.02,0,.03,0,.01-.04,.26-.35,.42-.09,.05-.15,.13-.18,.26-.05,.2-.01,.46,.05,.57,.07,.12,.26,.21,.46,.21,.04,0,.08-.01,.11-.02,.03,.08,.12,.22,.28,.35-.04,0-.07,0-.11,0-.14,.02-.23,.07-.31,.11-.15,.08-.26,.13-.74-.06-.2-.08-.43-.07-.9,.23-.19,.12-.29,.3-.27,.49,.02,.19,.14,.35,.35,.43h0Z"/><path class="cls-1" d="M29.71,55.19c.05,.05,.1,.11,.13,.13,0,0,0,.01,0,.02,0,.04,0,.11,0,.18,0,0,0,.01,0,.02-.14-.11-.26-.22-.28-.26h0s0,0,0,0c-.01,.16,.02,.32,.06,.45-.02,0-.03,.01-.05,.01-.16,0-.29-.13-.29-.29s.13-.29,.29-.29c.05,0,.09,.02,.13,.04h0Zm-.83,.6s.02,.02,.03,.02c0,0,0,0,.01,0,.02,0,.03-.03,.02-.05,0,0-.06-.13-.26-.18,.03-.07,.08-.22,.01-.33,.04-.02,.11-.05,.16-.09,.1,.04,.32,.02,.51,0-.09,.07-.15,.17-.15,.29,0,.2,.16,.36,.36,.36,.03,0,.05,0,.07-.01,.04,.12,.08,.2,.08,.2h0s0,0,0,0c0-.02,.02-.03,.02-.05,.02-.03,.03-.07,.05-.09,.02-.02,.05-.03,.07-.05,.02,0,.03-.02,.05-.02,.07-.02,.14-.03,.18-.03,.03,0,.04,0,.04,0h.02s-.02,0-.02,0c-.09-.05-.17-.1-.25-.16,0-.02,0-.04,0-.06,0-.03,.02-.06,.02-.09,0-.04-.01-.07-.02-.1,0-.01,0-.03,0-.03,0,0,0-.02,0-.02l-.02-.02c-.03-.06-.08-.1-.13-.14-.04-.05-.08-.09-.09-.1,0-.01-.03-.02-.04-.01-.21,.08-.64,.13-.75,.07-.01,0-.03,0-.04,0-.08,.06-.2,.11-.2,.11-.01,0-.02,.01-.02,.02,0,.01,0,.02,0,.03,.1,.1-.01,.33-.02,.33,0,0,0,.02,0,.03,0,.01,.01,.02,.03,.02,.2,.03,.25,.14,.25,.15h0Z"/><path class="cls-1" d="M26.55,55.89s0-.02,0-.03c0-.01-.02-.02-.03-.02-.08,0-.1-.03-.1-.04,0-.02,.02-.07,.05-.1,.02-.01,.04-.02,.07-.01,.08,.02,.09,.05,.1,.09,0,0,0,.01,0,.02,0,.03-.03,.14-.06,.16-.04,.02-.09,.02-.13,.02,.04-.02,.07-.05,.1-.09h0Zm-.08,.16s.09,0,.13-.03c.08-.03,.12-.2,.1-.25,0,0,0,0,0-.01-.01-.04-.03-.11-.15-.14-.04,0-.09,0-.12,.02-.07,.05-.08,.14-.08,.15,0,0,0,.07,.1,.09-.05,.04-.1,.05-.11,.05-.01,0-.04,0-.05,.02,0,.01,0,.03,0,.04,.02,.02,.09,.04,.18,.04h0Z"/><path class="cls-1" d="M25.6,55.78s-.07,.05-.09,.06c0,0-.04-.02-.04-.1,0-.01,0-.02-.02-.03,0,0,0,0-.01,0,0,0-.01,0-.02,0-.04,.03-.07,.07-.08,.11,0-.04,0-.09,.01-.13,.01-.04,.14-.07,.16-.07,0,0,.01,0,.02,0,.03,0,.07,.01,.09,.09,0,.03,0,.05,0,.07h0Zm-.07-.23s-.01,0-.01,0c-.05-.02-.21,.03-.24,.11-.05,.12,0,.29,.03,.31,0,0,.02,0,.03,0,0,0,.01,0,.02,0,.02-.01,.02-.03,.02-.05,0-.01,.01-.07,.04-.12,.03,.1,.1,.1,.11,.1,0,0,.1-.02,.14-.09,.02-.03,.03-.07,.02-.12-.03-.12-.1-.13-.14-.14h0Z"/><path class="cls-1" d="M27.44,74.43c-.28-.07-.47-.23-.51-.43v-.05c-.05-.19-.08-.36-.36-.4-.02,0-.04,.01-.04,.03,0,.02,.01,.04,.03,.04,.23,.03,.26,.16,.3,.35v.05c.06,.23,.26,.4,.57,.48,.29,.07,.5,.37,.5,.38,0,0,.02,.01,.03,.01,0,0,.01,0,.02,0,.02-.01,.02-.03,0-.05,0-.01-.23-.32-.54-.4h0Z"/><path class="cls-1" d="M27.92,71.92s.08-.19,.26-.28c-.27-.11-.36-.17-.79-.09,.27,.02,.32,.16,.53,.37h0Z"/><path class="cls-1" d="M26.3,74.61s-.01-.04-.03-.04h0s-.03,.01-.03,.03c-.02,.26,.05,.39,.05,.4,0,.01,.02,.02,.03,.02,0,0,.01,0,.02,0,.02,0,.02-.03,.01-.05,0,0-.06-.12-.04-.36h0Z"/><path class="cls-1" d="M27.06,74.64s-.01,.04,0,.05c.15,.13,.18,.36,.18,.37,0,.02,.02,.03,.03,.03h0s.03-.02,.03-.04c0-.01-.03-.26-.2-.41-.01-.01-.04-.01-.05,0h0Z"/><path class="cls-1" d="M26.53,74.47s0-.04-.03-.04c-.02,0-.04,0-.04,.03-.04,.23,.06,.42,.1,.49,0,.01,.02,.02,.03,.02,0,0,.01,0,.02,0,.02,0,.02-.03,.01-.05-.04-.06-.13-.24-.1-.45h0Z"/><path class="cls-1" d="M24.31,75.37c-.11-.05-.16-.08-.26-.28,0-.02-.03-.02-.05-.02-.02,0-.02,.03-.02,.05,.11,.22,.18,.26,.29,.31,.02,.01,.05,.02,.08,.04,0,0,.01,0,.02,0,.01,0,.02,0,.03-.02,0-.02,0-.04-.01-.05-.03-.02-.06-.03-.08-.04h0Z"/><path class="cls-1" d="M27.38,74.66s-.04,0-.05,.02c0,.02,0,.04,.02,.05,.23,.11,.28,.2,.35,.31,0,.02,.02,.04,.03,.05,0,.01,.02,.02,.03,.02,0,0,.01,0,.02,0,.02-.01,.02-.03,.01-.05-.01-.02-.02-.03-.03-.05-.06-.11-.12-.22-.38-.34h0Z"/><path class="cls-1" d="M26.06,74.61s-.04,0-.04,.03c-.04,.23,0,.43,0,.44,0,.02,.02,.03,.03,.03,0,0,0,0,0,0,.02,0,.03-.02,.03-.04,0,0-.04-.2,0-.41,0-.02,0-.04-.03-.04h0Z"/><path class="cls-1" d="M25.82,74.67s-.04,.01-.04,.03c-.02,.19,0,.44,0,.45,0,.02,.02,.03,.03,.03h0s.03-.02,.03-.04c0,0-.02-.26,0-.44,0-.02-.01-.04-.03-.04h0Z"/><path class="cls-1" d="M24.62,75.29s-.14-.06-.19-.24c0-.02-.02-.03-.04-.03-.02,0-.03,.02-.03,.04,.05,.22,.19,.27,.23,.29h0s.02,0,.02,0c0,0,.02,0,.02-.01,.01-.01,.01-.04,0-.05,0,0-.01,0-.02-.01h0Z"/><path class="cls-1" d="M25.34,74.8s-.01-.04-.03-.04c0,0,0,0,0,0-.02,0-.03,.01-.03,.03-.02,.15,.03,.37,.03,.38,0,.02,.02,.03,.03,.03,0,0,0,0,0,0,.02,0,.03-.02,.03-.04,0,0-.05-.22-.03-.35h0Z"/><path class="cls-1" d="M24.69,75.01s-.02-.03-.03-.03-.03,.02-.03,.03c0,.1,.09,.17,.13,.21,0,0,.02,.01,.02,.02,0,0,.02,.01,.03,.01,0,0,.02,0,.02,0,.01-.01,.02-.03,0-.05,0,0-.02-.01-.03-.02-.04-.03-.11-.08-.11-.15h0Z"/><path class="cls-1" d="M23.24,71.98c.06-.1,.19-.16,.32-.16h.01c.14,0,.27,.08,.34,.22,.02,.03,.03,.07,.04,.1,.05,.12,.1,.25,.33,.38,.11,.06,.19,.21,.18,.36,0,.12-.06,.22-.15,.26-.23,.12-.27,.1-.36,.05h-.02c-.25-.14-.4-.08-.67,.02-.24,.09-.47-.02-.53-.11-.04-.06-.08-.28-.04-.46,.02-.08,.06-.14,.11-.17,.34-.18,.41-.44,.42-.52h0Zm.91,.02c.08,.01,.19,.02,.28,.03,.07,0,.13,.01,.17,.02,.08,0,.2-.02,.29-.1,.07-.06,.12-.15,.12-.25,0-.12-.02-.21-.09-.28-.05-.05-.13-.09-.23-.1,.28-.09,.55-.01,.78,.09,.06,.03,.1,.05,.14,.08,.16,.1,.25,.11,.43-.13,.18-.23,.49-.25,.76-.18-.02,.02-.04,.04-.05,.07-.02,.03-.02,.07,.01,.1,.03,.02,.07,.02,.1,0,.28-.32,.57-.49,.86-.49h.02c.16,0,.29,.05,.39,.11,0,0,0,0,.01,0,.09,.05,.15,.11,.18,.15,.02,.03,.07,.04,.1,.01,.03-.02,.04-.07,.01-.1-.04-.05-.1-.11-.18-.16,.08-.31,.4-.6,.78-.69,.42-.11,.5-.22,.67-.46,.04-.06,.09-.13,.16-.21,.06,.14,.09,.28,.12,.41-.3,.38-.55,.52-.71,.6-.04,.02-.07,.03-.09,.05-.01,0-.02,.02-.01,.04,0,.02,.02,.02,.03,.02,.16,0,.34,0,.43,.02-.15,.23-.42,.47-.54,.57-.4,.1-.6,.31-.63,.89,0,.04,.03,.07,.07,.08,.04,0,.07-.03,.08-.07,.03-.63,.27-.73,.75-.8l.11-.02s0,0,.01,0l.4-.06s.64-.11,.95-.79c.02,.17,.02,.32,.02,.45-.36,.81-.74,1.04-1.07,1.25-.05,.03-.1,.06-.15,.09-.01,0-.02,.02-.01,.04,0,.01,.02,.02,.03,.03,.18,0,.33-.02,.41-.04-.25,.44-.67,.9-.67,.9,0,0-.01,.02,0,.03,0,.01,.01,.02,.03,.02,.23,.04,.47,.05,.68,.05,.24,0,.44-.01,.53-.02,.02,.02,.04,.04,.07,.03,.23-.07,.39-.12,.51-.18-.25,.61-.6,.71-.78,.75-.03,0-.06,.04-.05,.08,0,.04,.04,.06,.07,.06,.26,0,.51-.05,.69-.11-.14,.28-.26,.45-.37,.55-.78-.08-1.38-.46-1.61-.62-.02-.01-.04,0-.05,0-.01,.02,0,.04,0,.05,.23,.16,.82,.52,1.59,.62-.07,.06-.13,.09-.18,.12-.02,.01-.05,.03-.07,.04-.1,.07-.49,.07-.72-.09-.03-.02-.08-.01-.1,.02-.02,.03-.01,.08,.02,.1,.24,.16,.39,.29,.52,.38,.05,.04,.1,.08,.15,.11-.09,.03-.18,.03-.26,.04-.6-.34-.98-.79-.99-.8-.01-.01-.03-.02-.05,0-.01,.01-.02,.03,0,.05,0,0,.35,.41,.9,.75-.24-.02-.44-.11-.58-.21-.02-.02-.05-.02-.07,0-.02,.01-.04,.03-.04,.06-.02,.14-.03,.31,0,.44-.13-.05-.21-.14-.24-.18,0,0-.01-.02-.02-.02l-.03-.04s0,0,0,0c-.17-.2-.24-.61-.24-.61,0-.02-.02-.03-.04-.03-.02,0-.03,.02-.03,.04,0,.02,.07,.36,.21,.58-1.14,.17-1.7,.02-1.88-.06-.23-.09-.45-.12-.79,.03-.16,.07-.55,.11-.71,.06-.23-.09-.43,.02-.57,.12-.02,.01-.04,.03-.06,.05-.17,.14-.44,.35-.86-.09-.13-.15-.21-.16-.32-.17-.02,0-.04,0-.06,0-.05,0-.09-.17-.09-.26,.02,0,.04,0,.05,0,.03,0,.07,0,.11,0,.18-.01,.56-.07,.68-.1,.17-.05,.3-.14,.38-.28,.1-.18,.41-.27,.44-.28h0c.08,0,.15,0,.24,.02,.14,.04,.24,.06,.33,.06,.1,0,.18-.03,.26-.09,.02-.02,.04-.03,.05-.04,.07-.05,.1-.08,.36-.09,.03,0,.05-.02,.06-.04,.01-.03,0-.06-.01-.08-.09-.11-.18-.18-.27-.23-.06-.09-.11-.2-.15-.36,0-.01-.01-.02-.03-.02-.02,0-.03,0-.03,.01,0,0-.06,.1-.12,.23-.01,0-.03,0-.04,0,0-.08-.02-.22-.13-.4,0-.01-.02-.02-.04-.01-.01,0-.02,.01-.03,.03v.02c-.01,.08-.03,.23-.18,.39-.02,0-.04,0-.06,.01-.03,0-.06,.01-.1,.02,.09-.07,.18-.18,.21-.39,.04-.29,0-.5-.11-.65-.12-.15-.31-.23-.59-.26-.01,0-.03,0-.03,.02,0,.01,0,.03,0,.04,.16,.15,.23,.3,.21,.45-.03,.25-.3,.42-.32,.44-.05,.02-.09,.06-.11,.11-.05-.05-.1-.12-.14-.19,.14-.07,.22-.21,.22-.38,0-.2-.1-.4-.26-.48-.19-.11-.22-.2-.27-.31-.02-.04-.03-.08-.05-.12,0-.02-.02-.02-.03-.04,.05,.02,.09,.05,.15,.06h0Zm5.75-1.26c-.15,.29-.39,.4-.43,.41l-.12,.02s-.07,.01-.11,.02c.15-.14,.37-.36,.49-.56,0,0,0-.02,0-.03,0-.01-.01-.02-.03-.02,0,0-.17-.02-.35-.02,.15-.08,.38-.22,.65-.55,.04,.28,.01,.53-.1,.73h0Zm.56,1.21s-.03,.05-.02,.07c0,.02,.03,.04,.05,.05,.19,.04,.36,.01,.49-.02-.27,.41-.56,.52-.82,.56-.04,0-.06,.04-.06,.08,0,.04,.04,.07,.08,.06,.48-.05,.82-.14,1.03-.24-.18,.38-.37,.51-.56,.63-.01,0-.02,.02-.03,.03-.17,.02-.67,.05-1.13-.02,.12-.14,.47-.56,.68-.94,0-.01,0-.03,0-.04,0-.01-.02-.02-.04-.01,0,0-.14,.05-.35,.05,.02-.01,.03-.02,.05-.03,.31-.19,.68-.42,1.03-1.14-.03,.43-.15,.66-.4,.89h0Zm-5.94,2.59c-.07,.07-.15,.12-.22,.14-.04,.01-.12,.03-.2,.04-.17-.2-.12-.52-.09-.66,.02,.02,.04,.05,.05,.07,.12,.16,.24,.32,.46,.4h0Zm-.53-.79s-.03,0-.04-.01c0-.01,0-.03,0-.04,0-.01,0-.02,0-.02,.01,.02,.02,.05,.04,.07h0Zm.26,.23c-.1-.1-.27-.32-.34-.65,.09,.05,.18,.06,.34,0,.03,.06,.07,.12,.12,.17-.05,.07-.12,.2-.12,.48h0Zm1.73-.48c.09,.29,.23,.45,.32,.52-.19,.02-.26,.05-.34,.11l-.03,.02s-.1,.07-.15,.08c0-.33,.13-.62,.2-.74h0Zm-.49,.19c.11-.13,.15-.25,.16-.34,.07,.15,.07,.26,.07,.31-.08,0-.17,.02-.24,.03h0Zm-.93-.16c.02-.06,.06-.1,.11-.12,0,0,0,0,0,0,.01,0,.33-.19,.36-.49,.02-.15-.04-.3-.16-.44,.21,.03,.36,.11,.45,.22,.11,.13,.14,.33,.09,.6-.04,.26-.2,.36-.29,.42h0c-.19,.13-.38,.05-.38,.05-.05-.02-.08-.03-.1-.04-.04-.01-.04-.01-.07-.06-.02-.03-.03-.08-.01-.13h0Zm.06,.25s.05,.02,.09,.04c.02,.01,.09,.03,.17,.03,.03,0,.07,0,.11-.01,.09,.01,.18,.02,.27,0,.05,0,.09-.02,.14-.03,.14-.03,.26-.05,.39-.04-.04,.12-.07,.26-.07,.42-.07,0-.15,0-.29-.05-.09-.02-.18-.03-.27-.02h0c-.43-.09-.67-.17-.83-.24,.02-.18,.06-.28,.09-.33,.02,.02,.04,.04,.06,.06,0,.04,.01,.07,.03,.09,.04,.06,.05,.06,.1,.08h0Zm-1.69,1.21c-.38,.23-.55,.17-1.38-.18-.16-.07-.25-.18-.27-.32-.01-.14,.07-.27,.21-.36,.3-.2,.48-.25,.61-.25,.07,0,.12,.02,.16,.03,.54,.22,.69,.14,.86,.05,.07-.04,.15-.08,.27-.09,.19-.03,.33-.02,.44-.01,.02,.02,.04,.04,.05,.05l.02,.02s.02,.01,.02,.01c0,0,0,0,.01,0,.01,0,.02-.01,.02-.03,0-.01,0-.01,0-.03,.06,.01,.11,.03,.16,.05h.03c.05,.07,.1,.12,.13,.15,0,0,.01,0,.02,0,0,0,.01,0,.02,0,.01,0,.02-.02,.02-.03,0,0,0-.01,0-.02,.13,.05,.31,.12,.58,.18-.11,.06-.24,.14-.31,.26,0,0-.01,0-.01,.02-.22-.08-.33-.22-.46-.39-.03-.04-.06-.08-.1-.13,0,0-.02-.01-.03-.01-.01,0-.02,.01-.03,.02,0,.02-.16,.46,.05,.75-.13,.02-.28,.04-.37,.04-.03,0-.06,0-.09,0-.13,0-.25-.02-.63,.21h0Zm.77-1.28s-.03,0-.04,0c0-.02,0-.05,0-.07,.02,.03,.03,.05,.05,.07h0Zm-.13-.44c.09-.02,.17-.01,.27,.03,.02,.1,.04,.19,.07,.26-.01,.04-.01,.08-.02,.13,0,.04,0,.08,0,.13-.1-.11-.26-.29-.31-.56h0Zm-.3,.09s.03,0,.05,0c.07-.03,.13-.05,.18-.06,.01,.06,.03,.13,.05,.18,0,.09,0,.17,.02,.25-.19-.12-.27-.27-.31-.36h0Zm-.52-1c-.09,.05-.15,.13-.18,.26-.05,.2-.01,.46,.05,.57,.07,.12,.26,.21,.46,.21,.04,0,.08-.01,.11-.02,.03,.08,.12,.22,.28,.35-.04,0-.07,0-.11,0-.14,.02-.23,.07-.31,.11-.15,.08-.26,.13-.74-.06-.2-.08-.43-.07-.9,.23-.19,.12-.29,.3-.27,.49,.02,.19,.14,.35,.35,.43,.49,.21,.78,.33,1.03,.33,.16,0,.31-.05,.49-.16,.17-.1,.27-.15,.36-.17,0,.08,.03,.37,.22,.38,.03,0,.05,0,.07,0,.08,0,.12,0,.22,.12,.23,.24,.42,.31,.59,.31,.21,0,.37-.13,.47-.21,.02-.01,.04-.03,.05-.04,.17-.13,.3-.15,.44-.1,.19,.07,.63,.03,.82-.06,.3-.13,.48-.11,.68-.03,.2,.08,.79,.24,1.96,.06l.02,.02c.05,.06,.19,.22,.45,.26,.03,0,.06,0,.07-.03,.02-.02,.02-.05,0-.08,0-.01-.05-.1-.03-.37,.24,.14,.64,.27,1.15,.08,.03-.01,.04-.03,.05-.06,0-.03-.01-.05-.03-.07-.08-.05-.16-.11-.25-.19-.05-.04-.1-.08-.16-.12,.18,.02,.35,0,.43-.06,.02-.01,.03-.02,.06-.03,.16-.09,.42-.23,.76-.99,.01-.03,0-.07-.02-.09-.03-.02-.07-.02-.09,0-.03,.03-.17,.1-.38,.14,.19-.14,.4-.4,.55-.87,.01-.03,0-.07-.03-.08-.03-.02-.07,0-.09,.02-.04,.04-.12,.09-.24,.14,.13-.14,.25-.33,.37-.64,.01-.03,0-.07-.03-.08-.03-.02-.06-.02-.09,0-.08,.07-.27,.16-.57,.23,.16-.12,.31-.3,.46-.57,.01-.03,0-.06-.01-.08-.02-.02-.06-.03-.08-.01-.02,.01-.21,.11-.45,.1,.35-.4,.41-.83,.29-1.83,0-.03-.03-.06-.07-.06-.03,0-.07,.02-.07,.05-.23,.85-.92,.98-.94,.98h-.07c.07-.06,.15-.15,.21-.25,.16-.27,.27-.76-.06-1.5-.01-.02-.03-.04-.06-.04-.03,0-.05,0-.06,.03-.1,.12-.18,.22-.24,.31-.17,.23-.23,.31-.59,.41-.41,.11-.76,.42-.87,.76-.11-.05-.24-.09-.38-.09-.29,0-.56,.11-.82,.36-.33-.11-.76-.11-1,.2-.13,.17-.14,.16-.25,.1-.04-.02-.09-.06-.16-.08-.2-.09-.67-.29-1.16,.05-.03,.02-.04,.05-.03,.08,.01,.03,.04,.05,.07,.05,.21-.02,.34,0,.41,.07,.04,.04,.05,.09,.05,.17,0,.06-.03,.11-.07,.14-.06,.05-.15,.07-.18,.07-.04,0-.1-.01-.17-.02-.09,0-.2-.02-.27-.03-.04,0-.08-.03-.13-.05-.09-.05-.22-.11-.47-.12h0c-.19,0-.37,.09-.46,.24,0,0,0,.02,0,.03,0,.01-.04,.26-.35,.42h0Z"/><path class="cls-1" d="M27.28,72.18c.05,.05,.1,.11,.13,.13,0,0,0,.01,0,.02,0,.05,0,.11,0,.18,0,0,0,.01,0,.02-.14-.11-.26-.22-.28-.26h0s0,0,0,0c-.01,.16,.02,.32,.06,.45-.02,0-.03,.01-.05,.01-.16,0-.29-.13-.29-.29s.13-.29,.29-.29c.05,0,.09,.01,.13,.04h0Zm-.83,.6s.02,.02,.03,.02c0,0,0,0,.01,0,.02,0,.03-.03,.02-.05,0,0-.06-.13-.26-.18,.03-.07,.08-.22,.01-.33,.04-.02,.11-.05,.16-.09,.1,.04,.32,.03,.51,0-.09,.07-.15,.17-.15,.29,0,.2,.16,.36,.36,.36,.03,0,.05-.01,.07-.01,.04,.12,.08,.2,.08,.2h0s0,0,0,0c0-.02,.02-.03,.02-.05,.02-.03,.03-.07,.05-.09,.02-.02,.05-.04,.07-.05,.02,0,.03-.02,.05-.02,.07-.02,.14-.03,.18-.03,.03,0,.04,0,.04,0h.02s-.02,0-.02,0c-.09-.05-.17-.1-.25-.16,0-.02,0-.04,0-.06,0-.03,.02-.06,.02-.09,0-.04-.01-.07-.02-.1,0-.01,0-.03,0-.03,0,0,0-.01,0-.02,0,0-.01-.01-.02-.02-.03-.06-.08-.1-.13-.13-.04-.05-.08-.09-.09-.1,0-.01-.03-.02-.04-.01-.21,.08-.64,.13-.75,.07-.01,0-.03,0-.04,0-.08,.06-.2,.11-.2,.11-.01,0-.02,.01-.02,.02,0,.01,0,.02,0,.03,.1,.1-.01,.32-.02,.33,0,.01,0,.02,0,.03,0,.01,.01,.02,.03,.02,.2,.03,.25,.14,.25,.15h0Z"/><path class="cls-1" d="M24.12,72.88s0-.02,0-.03c0-.01-.02-.02-.03-.02-.08,0-.1-.03-.1-.04,0-.02,.02-.07,.05-.1,.02-.01,.04-.02,.07-.01,.08,.02,.09,.05,.1,.09,0,0,0,.01,0,.02,0,.02-.03,.14-.06,.16-.04,.02-.09,.02-.13,.02,.04-.02,.07-.05,.1-.09h0Zm-.08,.16s.09,0,.13-.03c.08-.03,.12-.2,.1-.25,0,0,0,0,0-.01-.01-.04-.03-.11-.15-.14-.04,0-.09,0-.12,.02-.07,.05-.08,.14-.08,.15,0,0,0,.07,.1,.09-.05,.03-.1,.05-.11,.05-.01,0-.04,0-.05,.02,0,.01,0,.03,0,.04,.02,.02,.09,.04,.18,.04h0Z"/><path class="cls-1" d="M22.91,72.67s.14-.07,.16-.07c0,0,.01,0,.02,0,.03,0,.07,.01,.09,.09,0,.03,0,.05,0,.07-.02,.03-.07,.05-.09,.06,0,0-.04-.02-.04-.1,0-.01,0-.02-.02-.03,0,0,0,0-.01,0,0,0-.01,0-.02,0-.04,.03-.07,.07-.08,.11,0-.04,0-.09,.01-.13h0Zm0,.29s.01,0,.02,0c.02-.01,.02-.03,.02-.05,0-.01,.01-.07,.04-.12,.03,.1,.1,.1,.11,.1,0,0,.1-.02,.14-.09,.02-.04,.03-.07,.02-.12-.03-.12-.1-.13-.14-.14,0,0-.01,0-.01,0-.05-.02-.21,.03-.24,.11-.05,.12,0,.29,.03,.31,0,0,.02,0,.03,0h0Z"/><path class="cls-1" d="M20.73,47.51s.02,.05,.05,.05,.05-.02,.05-.05c0-.02-.02-.05-.05-.05s-.05,.02-.05,.05h0Z"/><path class="cls-1" d="M23.62,47.39c-.07,.09-.1,.19-.08,.29,0,.02,.02,.03,.03,.03,0,0,0,0,0,0,.02,0,.03-.02,.03-.04-.02-.11,.02-.19,.06-.23,.07-.09,.2-.15,.33-.15,.02,0,.03-.02,.03-.03s-.02-.03-.03-.03c-.14,0-.29,.07-.38,.17h0Z"/><path class="cls-1" d="M24.2,48.37c-.27-.1-.49-.25-.7-.42-.04-.04-.08-.07-.12-.11-.02-.02-.04-.04-.06-.06-.05-.05-.09-.09-.09-.09,0,0,0,0,0,0-.1-.1-.19-.21-.28-.31-.04-.05-.1-.11-.16-.16,.22-.16,.44-.34,.64-.51,.29,.16,.53,.32,.72,.47,.02,.01,.03,.02,.04,.03,.19,.16,.33,.3,.38,.43,.13,.29,.14,.56,.02,.69-.02-.02-.04-.04-.07-.06-.15-.15-.29-.28-.45-.33-.02,0-.04,0-.04,.02,0,.02,0,.04,.02,.04,.14,.05,.27,.17,.42,.31,.01,.01,.03,.03,.05,.04-.08,.05-.19,.06-.34,0h0Zm-1.17,.12s-.06,.03-.1,.05c-.21,.11-.6,.31-1.35,.12-.88-.22-1.23-.76-1.28-.88-.02-.06-.03-.13-.01-.2,.18,.02,.28,.07,.33,.19,0,.01,.02,.02,.03,.02,0,0,0,0,.01,0,.02,0,.02-.03,.02-.05-.07-.14-.18-.21-.38-.23,0,0,0-.01,0-.02,.05-.07,.16-.11,.32-.11,.02,0,.03,0,.05,0,.28,0,.48,.06,.7,.17,.03,.23-.03,.37-.21,.43-.02,0-.03,.03-.02,.04,0,.01,.02,.02,.03,.02,0,0,0,0,.01,0,.14-.05,.28-.17,.25-.46,.07,.03,.13,.07,.2,.1,.07,.04,.14,.07,.22,.11h.02s.08,.05,.12,.07c0,0,0,0,0,0,0,0,0,0,0,0,.42,.21,.55,.21,1.15-.05,.04,.04,.1,.1,.17,.17,.02,.02,.05,.04,.07,.07,.04,.03,.07,.06,.11,.1-.12,.09-.37,.28-.5,.33h0Zm-1.76,.66c-.03-.1-.07-.18-.07-.18-.01-.03-.05-.05-.09-.04-.03,.01-.05,.05-.04,.09,.01,.05,.03,.09,.05,.14-.11,.02-.33,.04-.55,0,.17-.11,.39-.29,.51-.47,.01-.02,.02-.04,.03-.05,.13,.06,.28,.11,.44,.15,.01,0,.03,0,.04,0-.04,.26-.03,.48,.08,.77-.15-.07-.3-.21-.4-.42h0Zm1.42-1.85c.06,.06,.12,.12,.16,.17,.07,.08,.14,.16,.22,.25-.47,.2-.6,.22-.9,.07,.1-.14,.21-.26,.33-.34,.06-.04,.13-.1,.2-.14h0Zm-.96-.34c.23-.5,.53-.85,.89-1.05,.05,.25,.08,.33,.3,.48,0,0,.01,0,.02,0,.01,0,.02,0,.03-.01,.01-.02,0-.04,0-.05-.2-.14-.23-.21-.28-.46,.26-.13,.54-.18,.86-.17,.21,.01,.35,.07,.38,.15,0,0,0,0,0,0-.19,.02-.34,.07-.42,.15-.01,.01-.01,.04,0,.05,0,0,.02,.01,.02,.01s.02,0,.02-.01c.08-.08,.23-.12,.36-.13,0,.09-.05,.19-.17,.32-.3,.32-.89,.76-1.33,1.08-.13,.09-.26,.23-.37,.39-.02-.01-.05-.02-.07-.04h-.02c-.08-.05-.15-.09-.22-.13-.07-.04-.14-.07-.21-.1,.06-.16,.13-.32,.21-.5h0Zm-.07-.56c-.15-.07-.58-.1-.92,.01,.11-.32,.25-.43,.4-.48,0,0,0,0,0,.01,.02,.09,.03,.16,.04,.16,0,.04,.05,.06,.08,.05,.04,0,.06-.04,.05-.08,0-.05-.02-.1-.03-.14,0,0,0-.01,0-.02,0-.03,0-.05-.01-.08,0-.01,0-.02-.01-.03-.05-.26-.05-.46,.22-.77,.08,.6,.2,.91,.64,1.09-.1,.11-.2,.23-.29,.37-.07-.04-.13-.08-.17-.09h0Zm2.66,.05c.15,.18,.17,.31,.17,.51,0,.04,.03,.07,.07,.07,.22,0,.41,.1,.53,.24-.21-.02-.32,0-.53,.09-.02-.02-.04-.04-.06-.06-.03-.04-.07-.07-.11-.11-.01-.01-.03-.03-.04-.04-.05-.05-.11-.09-.17-.14,.11-.2,.16-.33,.15-.57h0Zm.38,1.99c.16-.17,.16-.5,0-.85-.02-.04-.04-.07-.07-.11,.21-.08,.3-.09,.58-.05,.03,0,.05,0,.07-.03,.02-.02,.02-.05,0-.07-.12-.24-.37-.4-.66-.43,0-.25-.07-.42-.35-.69-.02-.02-.05-.03-.08-.01-.03,.01-.04,.04-.04,.07,.04,.34,.01,.47-.11,.68-.18-.12-.35-.23-.51-.32,.11-.1,.2-.19,.28-.27,.19-.21,.27-.39,.21-.54-.06-.14-.22-.22-.5-.24-.52-.03-.96,.12-1.33,.45-.44-.15-.54-.4-.62-1.15,0-.03-.02-.05-.05-.06-.03-.01-.05,0-.07,.02-.4,.4-.42,.66-.37,.96-.27,.09-.44,.32-.54,.72,0,.03,0,.05,.02,.07,.02,.02,.05,.02,.08,0,.29-.15,.78-.14,.94-.07,.03,.01,.09,.04,.15,.08-.05,.09-.11,.19-.16,.3-.08,.18-.15,.34-.21,.5-.23-.11-.45-.17-.76-.16-.21,0-.35,.06-.43,.17-.07,.1-.08,.24-.02,.41,.04,.11,.27,.49,.8,.76,0,.01-.01,.02-.02,.04-.15,.23-.51,.47-.61,.5-.03,0-.05,.04-.05,.07,0,.03,.02,.06,.05,.07,.32,.11,.71,.06,.84,.03,.16,.27,.4,.43,.6,.46,0,0,0,0,.01,0,.02,0,.04-.01,.06-.03,.02-.02,.02-.05,0-.07-.15-.34-.18-.55-.13-.82,.16,.03,.3,.05,.43,.05,.42,0,.68-.13,.84-.21,.04-.02,.06-.03,.09-.04,.17-.07,.48-.31,.57-.39,.15,.1,.32,.2,.5,.27,.1,.04,.18,.05,.26,.05,.15,0,.25-.07,.3-.12h0Z"/><path class="cls-1" d="M23.41,45.85s-.02-.05-.05-.05c-.03,0-.05,.02-.05,.05,0,.03,.02,.05,.05,.05,.03,0,.05-.02,.05-.05h0Z"/><path class="cls-1" d="M24.38,47.79s-.02-.05-.05-.05c-.03,0-.05,.02-.05,.05,0,.03,.02,.05,.05,.05s.05-.02,.05-.05h0Z"/><polygon class="cls-1" points="15.19 22.26 15.19 13.87 13.55 14.04 13.81 12.91 16.54 12.65 16.54 22.26 15.19 22.26 15.19 22.26"/><path class="cls-1" d="M27.53,15.15c-.27,.43-.56,.82-.85,1.19l-1.75,2.29h2.61v-2.3c0-.37,0-.74,.01-1.16h-.03Zm1.37,4.56v2.54h-1.35v-2.54h-3.79l-.24-1.07,4.47-5.87h.91v5.84h1.11v1.1h-1.11Z"/><path class="cls-1" d="M39.83,13.81c-.98,0-1.75,.76-1.75,1.89,0,1.07,.73,1.89,1.77,1.89,.76,0,1.57-.31,1.84-1.35,.01-.15,.01-.3,.01-.46,0-1.07-.89-1.96-1.87-1.96h0Zm-1.14,8.75l-1.34-.62c1.81-.91,3.22-2.14,3.91-3.8-.36,.36-.85,.61-1.5,.61-1.81,0-3.04-1.35-3.04-3.06s1.34-3.09,3.15-3.09,3.22,1.2,3.22,3.43c0,2.52-1.86,5.23-4.4,6.53h0Z"/><path class="cls-1" d="M52.26,22.43c-.73,0-1.41-.16-1.8-.37l-.15-1.34c.59,.36,1.22,.52,1.87,.52,1.1,0,2.03-.7,2.03-1.89s-.94-1.95-1.99-1.95c-.7,0-1.19,.09-1.63,.25l.15-4.87h4.14l-.25,1.16h-2.6l-.06,2.3c.12-.01,.27-.03,.39-.03,1.77,0,3.22,1.19,3.22,3.15,0,1.63-1.14,3.06-3.33,3.06h0Z"/></g></svg>