<?xml version="1.0" encoding="utf-8"?>
<!-- Generator: Adobe Illustrator 22.1.0, SVG Export Plug-In . SVG Version: 6.00 Build 0)  -->
<svg version="1.1" xmlns="http://www.w3.org/2000/svg" xmlns:xlink="http://www.w3.org/1999/xlink" x="0px" y="0px"
	 viewBox="0 0 900 700" style="enable-background:new 0 0 900 700;" xml:space="preserve">
<style type="text/css">
	.st0{fill:#311A4D;}
	.st1{fill:#64DFEB;}
	.st2{fill:#FFFFFF;}
	.st3{fill:#00B8D5;}
</style>
<g id="Icon">
</g>
<g id="Badge">
</g>
<g id="Large_reversed">
</g>
<g id="Large">
	<g>
		<path class="st0" d="M382.8,564.6v43.2c0,15.1,11.9,17,31.6,18v9.6h-80.8v-9.6c16.6-0.5,25.2-3,25.2-18V489.7
			c0-15.1-8.6-17.5-25.2-18v-9.6h73.6c47.4,0,64.7,25,64.7,50.7c0,28.9-18.5,51.9-60.5,51.9H382.8z M382.8,553.2h19.5
			c30.4,0,43.2-12.4,43.2-39.5c0-23.5-12.8-40.3-43.2-40.3h-19.5V553.2z"/>
		<path class="st0" d="M521.2,541.1c16.1-28.7,22-39,37.3-39c4.2,0,7.4,1.5,9.1,3.5v22h-5.2c-15.3,0-25.2,2.2-41.3,21.5v62.8
			c0,12.4,6.2,13.1,24,15.1v8.6h-65.7v-8.6c10.9-1.5,19-2.7,19-14.1v-84.5l-17.8-8.6v-5.2l34.1-12.4h6.4V541.1z"/>
		<path class="st3" d="M675.6,557.2v7.7h-88.5c0,32.4,17.3,54.4,45.2,54.4c18.5,0,30.1-9.1,39.3-21.3l4.2,2.2
			c-5.9,22-24.2,37.8-51.9,37.8c-36.1,0-57.3-28.4-57.3-63.8c0-43.2,25.2-72.2,59.3-72.2C658.6,502.1,675.6,524.8,675.6,557.2z
			 M588.1,553h64.7c0-23.7-10.4-38.8-30.6-38.8C602.7,514.2,590.1,532.5,588.1,553z"/>
		<path class="st0" d="M691.2,625.9l-1.5-32.9h9.1c4.9,21,17.1,33.9,37.3,33.9c15.8,0,25.2-7.4,25.2-20.3
			c0-16.1-11.4-21.5-33.6-28.4c-22-6.9-36.6-16.3-36.6-38.8c0-21.7,16.6-37.3,42.5-37.3c16.6,0,29.9,4.2,40.8,10.4v30.6h-9.4
			c-3.5-19.8-14.6-29.7-32.1-29.7c-13.3,0-21.5,8.4-21.5,19.5c0,13.6,10.1,20.8,29.2,26.7c24.7,7.7,41.3,15.1,41.3,40
			c0,21.7-17.5,38.3-46,38.3C719.8,638,703.3,635,691.2,625.9z"/>
		<path class="st0" d="M794.2,625.9l-1.5-32.9h9.1c4.9,21,17.1,33.9,37.3,33.9c15.8,0,25.2-7.4,25.2-20.3
			c0-16.1-11.4-21.5-33.6-28.4c-22-6.9-36.6-16.3-36.6-38.8c0-21.7,16.6-37.3,42.5-37.3c16.6,0,29.9,4.2,40.8,10.4v30.6h-9.4
			c-3.5-19.8-14.6-29.7-32.1-29.7c-13.3,0-21.5,8.4-21.5,19.5c0,13.6,10.1,20.8,29.2,26.7c24.7,7.7,41.3,15.1,41.3,40
			c0,21.7-17.5,38.3-46,38.3C822.9,638,806.3,635,794.2,625.9z"/>
		<g>
			<path class="st0" d="M467.9,394.7c-27.8,0-45-21.9-45-54.1h88.1v-7.6c0-32.2-17-54.9-49.5-54.9c-34,0-59.1,28.8-59.1,71.8
				c0,35.2,21.2,63.5,57.1,63.5c27.6,0,45.8-15.7,51.7-37.6l-4.2-2.2C497.9,385.6,486.3,394.7,467.9,394.7z M457.8,290.1
				c20.2,0,30.5,15,30.5,38.6h-64.5C425.8,308.3,438.3,290.1,457.8,290.1z"/>
			<path class="st0" d="M384.8,388.2V223h-6.2L344,235.3v5.2l18,8.6v139c0,13.7-13.8,13.1-18,13.1c-6.3,0-17.4-0.5-17.4-13.1V223
				h-6.2l-34.6,12.3v5.2l18,8.6v139c0,11.4-8.1,12.6-19.3,14.1v8.6h58.1h2.9h58.1v-8.6C392.9,400.8,384.8,399.5,384.8,388.2z"/>
			<path class="st0" d="M741,373.5c-9.1,12.1-20.7,21.2-39.1,21.2c-27.8,0-45-21.9-45-54.1h88.1v-7.6c0-32.2-17-54.9-49.5-54.9
				c-34,0-59.1,28.8-59.1,71.8c0,35.2,21.2,63.5,57.1,63.5c27.6,0,45.8-15.7,51.7-37.6L741,373.5z M691.8,290.1
				c20.2,0,30.5,15,30.5,38.6h-64.5C659.8,308.3,672.3,290.1,691.8,290.1z"/>
			<path class="st0" d="M604.7,386.8h-55.6c-5.9,0-9.1-2.2-9.1-7.9c0-5.7,2.5-10.1,10.3-18.2c6.9,2.5,14.5,3.7,22.4,3.7
				c29.8,0,49.5-17,49.5-43.1c0-13-7.4-23.6-17-29.8v-1.2l25.3,5.7h9.1v-16.7l-44.5,3.2c-5.9-2.5-13.3-4.4-21.9-4.4
				c-28.5,0-49.7,17-49.7,44.5c0,17,8.6,29,21.7,35.7c-12.8,7.9-22.6,17.5-22.6,29.5c0,8.9,4.4,14.5,14,18
				c-11.6,5.4-22.9,11.6-22.9,25.6c0,20.4,20.2,30.5,54.6,30.5c41.8,0,71.8-18.7,71.8-46.3C640.1,394.4,626.8,386.8,604.7,386.8z
				 M570.9,288.4c18.5,0,29.3,15.7,29.3,34.9c0,18.5-8.4,31.5-25.1,31.5c-18.7,0-29-16-29-34.9C546.1,301.4,554.2,288.4,570.9,288.4
				z M572.9,450c-22.6,0-39.1-7.4-39.1-26.3c0-5.4,1.7-10.8,6.4-15.7h60c13,0,20.7,2.5,20.7,14.5C620.9,440.4,601.2,450,572.9,450z"
				/>
			<path class="st0" d="M226.7,278c-33.5,0-61.3,27.8-61.3,70.1c0,37.9,23.4,65.2,59.8,65.2c33.5,0,61.3-27.8,61.3-70.1
				C286.5,305.3,263.1,278,226.7,278z M228.2,400.6c-24.8,0-39.1-26.1-39.1-56.8c0-31.7,11.6-52.9,34.7-52.9
				c24.9,0,39.1,26.1,39.1,56.8C262.9,379.4,251.3,400.6,228.2,400.6z"/>
			<path class="st0" d="M145.9,361.2c-9.6,26.2-23.7,39.6-47.4,39.6c-39.9,0-60-34.7-60-79.5c0-40.1,17.5-73.1,57.1-73.1
				c21.7,0,37.7,11,44.9,37c0.6,2.1,2.5,3.6,4.7,3.6h0.2c2.7,0,4.8-2.2,4.8-4.8v-30.4c0-1.6-0.8-3-2-4c-11.2-8.1-26.8-14-51.1-14
				c-47.5,0-84.9,34.9-84.9,92.5c0,49.5,32.2,85.1,80.9,85.1c24.8,0,39.9-4.9,55-12.4c1.4-0.7,2.4-2.1,2.6-3.7l5.3-39.3h-5.7
				C148.4,358,146.6,359.3,145.9,361.2z"/>
		</g>
		<g>
			<path class="st0" d="M664.1,97.2V58.4h-6.4l-34,12.3v5.2l17.7,8.6v84.1c0,11.3-8.1,12.5-18.9,14v8.6H688v-8.6
				c-17.7-2-23.9-2.7-23.9-15v-62.5c16-19.2,25.8-21.4,41.1-21.4h5.2V61.8c-1.7-2-4.9-3.4-9.1-3.4C686,58.4,680.1,68.7,664.1,97.2z"
				/>
			<path class="st0" d="M494.6,168.6V98.7c0-28.8-13-40.4-34.4-40.4c-20.4,0-34.9,12.3-47,24.1V4H407l-34.4,12.3v5.2l18,8.6v138.5
				c0,12.6-10.8,12.3-14,12.3c-7.7,0-13.6-3-13.6-12.3V98.7c0-28-11.3-40.4-32.7-40.4c-19.7,0-34.9,13-47,24.8
				C279.6,66,269,58.4,252,58.4c-19.7,0-33.7,12.3-45.8,24.1V58.4h-6.2l-34.2,12.3v5.2l17.7,8.6v84.1c0,6.5-3.3,12.3-9.2,12.3
				c-4.9,0-8.5-5.2-9.7-8.4L97,16.3H69.7l7.6,16.2L19,172.5c-2.7,6.6-8.4,8.1-15,9.1v9.6h55.1v-9.6c-17-0.5-23.1-3.2-23.1-10.8
				c0-2.7,1.2-6.2,2.7-9.8l10.8-26.8h72.6l11.6,27.1c1.5,3.7,2.7,6.9,2.7,9.8c0,7.6-5.9,10.1-22.9,10.6v9.6h51.2h14.8h45.8v-8.6
				c-11.1-1.5-18.9-2.7-18.9-14v-79c9.3-7.4,21.9-13,34.7-13c15.3,0,21.2,6.2,21.2,23.9v68.2c0,11.3-8.1,12.5-19.2,14v8.6h60.8v-8.6
				c-10.8-1.5-18.9-2.7-18.9-14v-79c9.3-7.4,21.7-13,34.4-13c15.3,0,21.2,6.2,21.2,23.9v68.2c0,11.3-8.1,12.5-19.2,14v8.6h50.2h10.6
				h50.2v-8.6c-10.8-1.5-18.9-2.7-18.9-14v-79c9.6-7.4,23.1-13,35.9-13c15.7,0,22.9,6.2,22.9,23.9v68.2c0,11.3-8.1,12.5-18.9,14v8.6
				h60.8v-8.6C502.7,181.1,494.6,179.9,494.6,168.6z M54.5,122.2l30.7-75.9l32,75.9L54.5,122.2z"/>
			<path class="st0" d="M767,115.7c-18.9-5.9-29-13-29-26.6c0-11.1,8.1-19.4,21.4-19.4c17.5,0,28.5,9.8,32,29.5h9.3V68.7
				c-10.8-6.1-24.1-10.3-40.6-10.3c-25.8,0-42.3,15.5-42.3,37.2c0,22.4,14.5,31.7,36.4,38.6c22.1,6.9,33.5,12.3,33.5,28.3
				c0,12.8-9.3,20.2-25.1,20.2c-20.2,0-32.2-12.8-37.2-33.7h-9.1l1.5,32.7c12.1,9.1,28.5,12.1,44.5,12.1c28.3,0,45.8-16.5,45.8-38.1
				C808,130.7,791.6,123.3,767,115.7z"/>
			<path class="st0" d="M576.8,175c-27.8,0-45-21.9-45-54.1h88.1v-7.6c0-32.2-17-54.9-49.5-54.9c-34,0-59,28.8-59,71.8
				c0,35.2,21.2,63.5,57.1,63.5c27.6,0,45.8-15.7,51.7-37.6l-4.2-2.2C606.8,165.9,595.2,175,576.8,175z M566.7,70.4
				c20.2,0,30.5,15,30.5,38.6h-64.5C534.7,88.6,547.3,70.4,566.7,70.4z"/>
			<path class="st0" d="M870,178.2c-13.5,0-19.4-4.7-19.4-18.2V73.9h37.6v-13h-37.6v-28h-6.4c-10.8,15.7-21.7,25.8-34.2,33.7v7.4
				h18.2v90.8c0,20.9,12.3,29,29.3,29c16.2,0,29-6.4,37.4-15.5l-2.5-5.4C886,176,877.4,178.2,870,178.2z"/>
		</g>
		<g>
			<rect x="4.4" y="582.1" class="st3" width="53.2" height="53.2"/>
			<rect x="85.7" y="582.1" class="st3" width="53.2" height="53.2"/>
			<rect x="165.5" y="582.1" class="st3" width="53.2" height="53.2"/>
			<rect x="245.4" y="582.1" class="st3" width="53.2" height="53.2"/>
			<rect x="4.4" y="505.5" class="st3" width="53.2" height="53.2"/>
			<rect x="85.7" y="505.5" class="st3" width="53.2" height="53.2"/>
			<rect x="165.5" y="505.5" class="st3" width="53.2" height="53.2"/>
			<rect x="245.4" y="505.5" class="st3" width="53.2" height="53.2"/>
		</g>
	</g>
</g>
</svg>
