<?xml version="1.0" encoding="UTF-8"?>
<svg id="Layer_1" data-name="Layer 1" xmlns="http://www.w3.org/2000/svg" viewBox="0 0 288 39">
  <defs>
    <style>
      .cls-1 {
        fill: #fff;
      }
    </style>
  </defs>
  <path class="cls-1" d="M82.68,5.12q3.63-.34,4.42,2.91c1.33,5.49,2.65,10.98,4.27,16.51,1.5-6.45,3-12.9,4.48-19.27,.19-.11,.28-.2,.38-.21,3.17-.19,3.15-.19,3.82,2.85,1.21,5.52,2.45,11.03,3.94,16.58,.66-2.55,1.34-5.09,1.98-7.65,.83-3.28,1.73-6.54,2.39-9.85,.33-1.65,1.05-2.27,2.65-1.99,.42,.07,.86,.06,1.44,.1-2.29,8.67-4.56,17.24-6.84,25.84h-3.54c-1.44-6.26-2.88-12.55-4.32-18.84-.11,0-.22-.01-.32-.02-1.47,6.24-2.93,12.49-4.42,18.82h-3.59c-2.24-8.54-4.48-17.1-6.75-25.79Z"/>
  <path class="cls-1" d="M3.74,31.01V4.75c4.21,.28,8.4,.4,12.54,.9,2.5,.3,4.25,1.95,4.64,4.57,.41,2.76-.15,5.21-2.81,6.74-.14,.08-.26,.19-.51,.38,.26,.18,.45,.33,.67,.45,3.03,1.64,4.09,3.69,3.72,7.27-.28,2.69-2,4.7-5.13,5.37-2.09,.45-4.28,.46-6.43,.55-2.16,.09-4.32,.02-6.68,.02Zm3.36-12.13v9.3c2.63-.14,5.18-.11,7.67-.46,2.62-.36,3.79-1.8,3.8-4.02,0-2.36-1.3-4-3.92-4.36-2.44-.34-4.94-.32-7.55-.47Zm-.04-2.37c2.56-.19,4.95-.21,7.28-.6,2.15-.36,3.21-1.95,3.15-4.07-.05-1.89-1.02-3.18-3.14-3.48-2.38-.34-4.81-.33-7.29-.48v8.62Z"/>
  <path class="cls-1" d="M27.45,5.28c3.88,0,7.66-.24,11.39,.07,3.63,.31,5.61,2.33,6.11,5.36,.62,3.78-.73,6.45-4.15,8.2-.15,.07-.28,.16-.59,.33,1.94,3.84,3.87,7.67,5.95,11.78-1.25,0-2.29,.11-3.28-.05-.46-.08-.96-.63-1.2-1.09-1.51-2.9-2.9-5.86-4.45-8.74-.28-.53-1.1-1.01-1.72-1.07-1.52-.15-3.07-.05-4.74-.05v10.88h-3.32V5.28Zm3.41,3v8.89c2.57-.18,5.02-.18,7.41-.57,2.24-.37,3.4-2.14,3.3-4.34-.1-2.24-1.19-3.69-3.52-3.93-2.34-.24-4.73-.05-7.19-.05Z"/>
  <path class="cls-1" d="M207.75,20v10.88h-3.27V4.79c4.17,.23,8.37,.22,12.5,.78,3.04,.41,4.73,2.66,5.03,5.44,.39,3.6-.79,6.11-3.57,7.58-.34,.18-.69,.33-1.22,.59,1.96,3.87,3.89,7.7,5.97,11.81-1.3,0-2.38,.1-3.43-.05-.4-.06-.83-.63-1.05-1.07-1.49-2.91-2.89-5.86-4.44-8.74-.29-.53-1.1-1.03-1.71-1.09-1.52-.16-3.07-.05-4.8-.05Zm.08-2.82c2.69-.21,5.2-.23,7.64-.65,2.02-.34,3.06-1.94,3.13-3.98,.06-1.87-.79-3.36-2.44-3.96-2.73-.99-5.53-.45-8.32-.49v9.07Z"/>
  <path class="cls-1" d="M61.14,5.2c3.34,0,6.64-.33,9.86,.07,5.55,.69,8.39,3.47,9.12,8.98,.37,2.75,.25,5.69-.32,8.41-1.07,5.13-5.13,8.06-10.87,8.31-2.55,.11-5.11,.02-7.8,.02V5.2Zm3.36,22.59c4.25,.08,8.64,.65,10.99-3.64,2.28-4.16,2.39-8.76-.17-12.86-2.52-4.03-6.83-3.06-10.82-3.06V27.79Z"/>
  <path class="cls-1" d="M263.3,10.5c-.98,.36-1.85,.67-2.81,1.02-.25-.41-.48-.77-.7-1.14-1.58-2.68-4.92-3.59-7.67-2.07-2.36,1.3-2.58,4.45-.28,5.85,1.35,.82,2.95,1.25,4.42,1.88,1.67,.72,3.46,1.28,4.97,2.27,3.77,2.48,3.81,8.63,.2,11.34-5.31,3.98-13.15,1.51-15.24-4.99,.99-.36,1.99-.73,3.07-1.12,.2,.41,.35,.7,.49,.99,1.55,3.37,4.82,4.7,8.28,3.34,1.59-.63,2.51-1.81,2.64-3.52,.12-1.6-.62-2.84-2-3.55-1.32-.68-2.74-1.17-4.13-1.73-1.13-.45-2.31-.8-3.4-1.33-3.21-1.55-4.46-3.83-4.08-7.24,.33-2.89,2.41-4.94,5.75-5.64,5.06-1.07,9.18,1.09,10.5,5.65Z"/>
  <path class="cls-1" d="M267.18,24.59c1.04-.35,2.01-.68,3.07-1.03,.19,.36,.35,.64,.48,.93,1.54,3.39,4.77,4.73,8.25,3.39,1.59-.61,2.53-1.78,2.68-3.49,.14-1.6-.58-2.85-1.96-3.57-1.32-.69-2.74-1.18-4.13-1.74-1.13-.45-2.31-.8-3.4-1.32-3.28-1.57-4.57-3.95-4.1-7.38,.39-2.83,2.44-4.81,5.7-5.51,5.05-1.08,9.12,1.02,10.55,5.59-.89,.35-1.8,.7-2.79,1.09-.25-.4-.49-.76-.7-1.13-1.58-2.71-4.88-3.63-7.65-2.13-2.44,1.32-2.61,4.51-.22,5.95,1.17,.71,2.52,1.12,3.81,1.63,1.18,.47,2.42,.82,3.58,1.33,3.64,1.6,5.05,3.97,4.68,7.73-.32,3.28-2.5,5.46-6.2,6.23-5.43,1.13-9.59-.92-11.38-5.62-.09-.25-.14-.52-.26-.95Z"/>
  <path class="cls-1" d="M182.47,5.28c3.89,0,7.68-.29,11.4,.08,4.23,.42,6.16,3.02,6.15,7.27,0,4.15-2.06,6.72-6.21,7.31-2.57,.37-5.19,.34-7.98,.5v10.45h-3.37V5.28Zm3.37,12.2c2.57-.18,5.05-.17,7.48-.56,2.16-.34,3.33-2.16,3.29-4.38-.03-2.1-1.14-3.79-3.18-4.1-2.47-.37-5.01-.35-7.6-.51v9.55Z"/>
  <path class="cls-1" d="M132.04,30.94h-15.93V5.09h15.41v2.91h-11.96v8.02h8.51v2.93h-8.54v8.92h12.51v3.08Z"/>
  <path class="cls-1" d="M243.55,5.12v2.87h-12.01v7.96h8.5v3.05h-8.53v8.9h12.57v3.02h-15.93V5.12h15.4Z"/>
  <path class="cls-1" d="M140.02,27.96h11.3v2.91h-14.5V5.12h3.2V27.96Z"/>
  <path class="cls-1" d="M155.47,5.07h3.24V27.87h11.23v3.02h-14.46V5.07Z"/>
  <path class="cls-1" d="M54.29,30.95h-3.18V5.1h3.18V30.95Z"/>
</svg>