<?xml version="1.0" encoding="UTF-8"?>
<svg id="Layer_1" data-name="Layer 1" xmlns="http://www.w3.org/2000/svg" viewBox="0 0 301.95 149.3">
  <defs>
    <style>
      .cls-1 {
        fill: #fff;
      }

      .cls-2 {
        fill: #231f20;
      }
    </style>
  </defs>
  <path class="cls-2" d="m7.94,129.53l-6.7,18.99-.04.1h2.33l1.86-5.41h7.39l1.84,5.35.02.05h2.48l-6.73-19.09h-2.45Zm4.1,11.58h-5.91l2.98-8.62,2.93,8.62Zm21,1.12l2.19.5-.02.07c-.98,3.98-3.59,6.18-7.34,6.18-2.4,0-4.43-.92-5.86-2.65-1.45-1.76-2.22-4.28-2.22-7.29,0-5.86,3.25-9.79,8.08-9.79,3.72,0,6.09,1.97,7.06,5.85l.02.07-2.28.62-.02-.07c-.86-3.02-2.25-4.25-4.8-4.25-3.48,0-5.64,2.89-5.64,7.55s2.13,7.78,5.69,7.78c2.62,0,4.27-1.47,5.05-4.51l.02-.07.07.02Zm12.07-12.7l-6.7,18.99-.04.1h2.33l1.86-5.41h7.39l1.84,5.35.02.05h2.48l-6.73-19.09h-2.45Zm4.1,11.58h-5.91l2.98-8.62,2.93,8.62Zm14.82-11.5h-5.05v19.02h5.05c6.27,0,9.59-3.31,9.59-9.56s-3.31-9.46-9.59-9.46Zm7.19,9.46c0,5.05-2.2,7.4-6.91,7.4h-2.93v-14.64h2.88c4.68,0,6.96,2.37,6.96,7.24Zm10.58,7.37h9.87v2.19h-12.26v-19.02h11.73v2.22h-9.33v5.74h6.93v2.17h-6.93v6.71Zm30.24-16.83h3.11v19.02h-2.37v-14.98c-.2.7-.48,1.48-.77,2.31-.09.27-.19.54-.29.81l-4.53,11.86h-2.12l-.02-.05-4.63-12.13c-.36-.98-.63-1.71-.96-2.88v15.06h-2.22v-19.02h3.06l5.91,15.96,5.81-15.96Zm10.82,0h2.39v19.02h-2.39v-19.02Zm21.41,12.62l2.19.5-.02.07c-.98,3.98-3.59,6.18-7.34,6.18-2.4,0-4.43-.92-5.86-2.65-1.45-1.76-2.22-4.28-2.22-7.29,0-5.86,3.25-9.79,8.08-9.79,3.72,0,6.09,1.97,7.06,5.85l.02.07-2.28.62-.02-.07c-.86-3.02-2.25-4.25-4.8-4.25-3.48,0-5.64,2.89-5.64,7.55s2.13,7.78,5.69,7.78c2.62,0,4.27-1.47,5.05-4.51l.02-.07.07.02Zm20.69-12.7l-6.7,18.99-.04.1h2.33l1.86-5.41h7.39l1.86,5.41h2.48l-6.73-19.09h-2.45Zm4.1,11.58h-5.91l2.98-8.62,2.93,8.62Zm12.75,5.33h9.08v2.19h-11.47v-19.02h2.39v16.83Zm15.86,0h9.08v2.19h-11.47v-19.02h2.39v16.83Zm13.16-16.83h2.39v19.02h-2.39v-19.02Zm14.66-.08l-6.7,18.99-.04.1h2.33l1.86-5.41h7.39l1.86,5.41h2.48l-6.73-19.09h-2.45Zm4.1,11.58h-5.91l2.98-8.62,2.93,8.62Zm22.7-11.5h2.27v19.02h-2.13l-.02-.03-10.19-15.19v15.23h-2.27v-19.02h2.49l.02.03,9.83,14.79v-14.82Zm20.96,12.61l2.26.52-.02.07c-.98,3.98-3.59,6.18-7.34,6.18-2.4,0-4.43-.92-5.86-2.65-1.45-1.76-2.22-4.28-2.22-7.29,0-5.86,3.25-9.79,8.08-9.79,3.72,0,6.09,1.97,7.06,5.85l.02.07-2.28.62-.02-.07c-.86-3.02-2.25-4.25-4.8-4.25-3.48,0-5.64,2.89-5.64,7.55s2.13,7.78,5.69,7.78c2.62,0,4.27-1.47,5.05-4.51l.02-.07Zm19.66,4.22v2.19h-12.26v-19.02h11.73v2.22h-9.33v5.74h6.93v2.17h-6.93v6.71h9.87Z"/>
  <g>
    <g>
      <path class="cls-1" d="m291.67,106.88c0-2.88,2.26-5.17,5.16-5.17s5.12,2.26,5.12,5.15-2.25,5.17-5.15,5.17-5.14-2.26-5.14-5.15Zm9.44,0c0-2.44-1.87-4.38-4.31-4.38s-4.29,1.9-4.29,4.37,1.87,4.41,4.32,4.41,4.28-1.91,4.28-4.39Zm-6.27-2.91h2.09c1.32,0,2.11.56,2.11,1.71,0,.88-.46,1.36-1.14,1.59l1.22,2.32h-1.15l-1.12-2.18h-.94v2.18h-1.07v-5.62Zm2.05,2.63c.69,0,1.12-.25,1.12-.85s-.42-.84-1.14-.84h-.95v1.7h.98Z"/>
      <g>
        <path class="cls-1" d="m69.57,47.85h-23.74v-23.4h23.74c2.56,0,4.65,2.11,4.65,4.69v14.05c0,2.58-2.09,4.66-4.65,4.66h0Zm-18.16-5.58h17.24v-12.23h-17.24v12.23h0Z"/>
        <path class="cls-1" d="m70.57,86.71h-24.75v-25.85h24.75c2.57,0,4.66,2.08,4.66,4.65v16.55c0,2.56-2.08,4.66-4.66,4.66h0Zm-19.16-5.58h18.25v-14.69h-18.25v14.69h0Z"/>
        <g>
          <polygon class="cls-1" points="178.31 83.05 165.24 83.05 165.24 0 115.96 0 115.96 28.26 129.02 28.26 129.02 83.05 115.96 83.05 115.96 111.32 178.31 111.32 178.31 83.05"/>
          <path class="cls-1" d="m292.25,37.93v-9.76C292.25,12.61,279.62.01,264.08.01h-54.31c-15.55,0-28.17,12.59-28.17,28.15v54.98c0,15.56,12.62,28.18,28.17,28.18h54.31c15.54,0,28.17-12.62,28.17-28.18v-37.55h-45.81v20.12h9.49v13.62c0,2.04-1.66,3.7-3.7,3.7h-30.63c-2.05,0-3.7-1.66-3.7-3.7V31.96c0-2.07,1.65-3.71,3.7-3.71h30.63c2.05,0,3.7,1.64,3.7,3.71v5.97h36.31Z"/>
        </g>
        <path class="cls-1" d="m77.72,5.55l2.95.03c12.43.07,22.53,10.21,22.53,22.66,0,19.75-18.98,24.61-18.98,24.61v2.94s22.86,5.06,22.86,26.52c0,12.94-10.5,23.43-23.42,23.43H5.57v-17.11h13.07V22.69H5.57V5.55h72.15m2.99-5.55H0v28.27h13.06v54.79H0v28.26h83.68c16,0,29-13.01,29-29.01,0-13.27-8.96-24.48-21.14-27.88v-.19c10.12-4.28,17.25-14.3,17.25-26C108.78,12.7,96.22.08,80.71.01h0Z"/>
      </g>
    </g>
    <g>
      <path class="cls-1" d="m7.57,129.98h2.35l6.69,18.97h-2.32l-1.86-5.41h-7.5l-1.86,5.41H.89l6.69-18.97Zm4.16,11.59l-3.01-8.86h-.05l-3.06,8.86h6.13Z"/>
      <path class="cls-1" d="m19.47,139.43c0-5.9,3.29-9.73,8.01-9.73,4.01,0,6.13,2.32,6.99,5.8l-2.14.59c-.82-2.86-2.12-4.31-4.88-4.31-3.52,0-5.72,2.96-5.72,7.63,0,5,2.25,7.86,5.77,7.86,2.68,0,4.34-1.51,5.13-4.57l2.12.48c-.92,3.73-3.32,6.13-7.28,6.13-4.8,0-8.01-3.7-8.01-9.88Z"/>
      <path class="cls-1" d="m44.79,129.98h2.35l6.69,18.97h-2.32l-1.86-5.41h-7.5l-1.86,5.41h-2.17l6.69-18.97Zm4.16,11.59l-3.01-8.86h-.05l-3.06,8.86h6.13Z"/>
      <path class="cls-1" d="m58.71,130.06h4.98c6.07,0,9.52,3.06,9.52,9.39s-3.52,9.5-9.52,9.5h-4.98v-18.89Zm5.26,16.87c4.57,0,6.99-2.22,6.99-7.48s-2.45-7.33-7.04-7.33h-2.96v14.8h3.01Z"/>
      <path class="cls-1" d="m79.15,130.06h11.59v2.07h-9.34v5.9h6.94v2.02h-6.94v6.87h9.88v2.04h-12.12v-18.89Z"/>
      <path class="cls-1" d="m97.02,130.06h2.94l5.95,16.06h.05l5.85-16.06h2.99v18.89h-2.22v-15.29h-.05c-.26,1-.71,2.22-1.15,3.47l-4.52,11.82h-2.02l-4.52-11.82c-.46-1.25-.77-2.04-1.17-3.55h-.05v15.37h-2.07v-18.89Z"/>
      <path class="cls-1" d="m122.65,130.06h2.25v18.89h-2.25v-18.89Z"/>
      <path class="cls-1" d="m130.82,139.43c0-5.9,3.29-9.73,8.01-9.73,4.01,0,6.13,2.32,6.99,5.8l-2.14.59c-.82-2.86-2.12-4.31-4.88-4.31-3.52,0-5.72,2.96-5.72,7.63,0,5,2.25,7.86,5.77,7.86,2.68,0,4.34-1.51,5.13-4.57l2.12.48c-.92,3.73-3.32,6.13-7.28,6.13-4.8,0-8.01-3.7-8.01-9.88Z"/>
      <path class="cls-1" d="m164.77,129.98h2.35l6.69,18.97h-2.32l-1.86-5.41h-7.5l-1.86,5.41h-2.17l6.69-18.97Zm4.16,11.59l-3.01-8.86h-.05l-3.06,8.86h6.13Z"/>
      <path class="cls-1" d="m179.27,130.06h2.25v16.85h9.09v2.04h-11.33v-18.89Z"/>
      <path class="cls-1" d="m195.15,130.06h2.25v16.85h9.09v2.04h-11.33v-18.89Z"/>
      <path class="cls-1" d="m210.72,130.06h2.25v18.89h-2.25v-18.89Z"/>
      <path class="cls-1" d="m225.37,129.98h2.35l6.69,18.97h-2.32l-1.86-5.41h-7.5l-1.86,5.41h-2.17l6.69-18.97Zm4.16,11.59l-3.01-8.86h-.05l-3.06,8.86h6.13Z"/>
      <path class="cls-1" d="m239.87,130.06h2.37l9.93,14.93h.05v-14.93h2.12v18.89h-2.02l-10.29-15.34h-.05v15.34h-2.12v-18.89Z"/>
      <path class="cls-1" d="m260.01,139.43c0-5.9,3.29-9.73,8.01-9.73,4.01,0,6.13,2.32,6.99,5.8l-2.14.59c-.82-2.86-2.12-4.31-4.88-4.31-3.52,0-5.72,2.96-5.72,7.63,0,5,2.25,7.86,5.77,7.86,2.68,0,4.34-1.51,5.13-4.57l2.12.48c-.92,3.73-3.32,6.13-7.28,6.13-4.8,0-8.01-3.7-8.01-9.88Z"/>
      <path class="cls-1" d="m280.62,130.06h11.59v2.07h-9.34v5.9h6.94v2.02h-6.94v6.87h9.88v2.04h-12.12v-18.89Z"/>
    </g>
  </g>
</svg>