<?xml version="1.0" encoding="UTF-8"?>
<svg id="Layer_1" data-name="Layer 1" xmlns="http://www.w3.org/2000/svg" viewBox="0 0 300.69 148.6">
  <defs>
    <style>
      .cls-1 {
        fill: #0088ce;
      }
    </style>
  </defs>
  <path d="m6.73,129.15L.04,148.15l-.04.1h2.33l1.86-5.41h7.39l1.84,5.35.02.05h2.48l-6.73-19.09h-2.45Zm4.1,11.58h-5.91l2.98-8.62,2.93,8.62Zm21,1.12l2.19.5-.02.07c-.98,3.98-3.59,6.18-7.34,6.18-2.4,0-4.43-.92-5.86-2.65-1.45-1.76-2.22-4.28-2.22-7.29,0-5.86,3.25-9.79,8.08-9.79,3.72,0,6.09,1.97,7.06,5.85l.02.07-2.28.62-.02-.07c-.86-3.02-2.25-4.25-4.8-4.25-3.48,0-5.64,2.89-5.64,7.55s2.13,7.78,5.69,7.78c2.62,0,4.27-1.47,5.05-4.51l.02-.07.07.02Zm12.07-12.7l-6.7,18.99-.04.1h2.33l1.86-5.41h7.39l1.84,5.35.02.05h2.48l-6.73-19.09h-2.45Zm4.1,11.58h-5.91l2.98-8.62,2.93,8.62Zm14.82-11.5h-5.05v19.02h5.05c6.27,0,9.59-3.31,9.59-9.56s-3.31-9.46-9.59-9.46Zm7.19,9.46c0,5.05-2.2,7.4-6.91,7.4h-2.93v-14.64h2.88c4.68,0,6.96,2.37,6.96,7.24Zm10.58,7.37h9.87v2.19h-12.26v-19.02h11.73v2.22h-9.33v5.74h6.93v2.17h-6.93v6.71Zm30.24-16.83h3.11v19.02h-2.37v-14.98c-.2.7-.48,1.48-.77,2.31-.09.27-.19.54-.29.81l-4.53,11.86h-2.12l-.02-.05-4.63-12.13c-.36-.98-.63-1.71-.96-2.88v15.06h-2.22v-19.02h3.06l5.91,15.96,5.81-15.96Zm10.82,0h2.39v19.02h-2.39v-19.02Zm21.41,12.62l2.19.5-.02.07c-.98,3.98-3.59,6.18-7.34,6.18-2.4,0-4.43-.92-5.86-2.65-1.45-1.76-2.22-4.28-2.22-7.29,0-5.86,3.25-9.79,8.08-9.79,3.72,0,6.09,1.97,7.06,5.85l.02.07-2.28.62-.02-.07c-.86-3.02-2.25-4.25-4.8-4.25-3.48,0-5.64,2.89-5.64,7.55s2.13,7.78,5.69,7.78c2.62,0,4.27-1.47,5.05-4.51l.02-.07.07.02Zm20.69-12.7l-6.7,18.99-.04.1h2.33l1.86-5.41h7.39l1.86,5.41h2.48l-6.73-19.09h-2.45Zm4.1,11.58h-5.91l2.98-8.62,2.93,8.62Zm12.75,5.33h9.08v2.19h-11.47v-19.02h2.39v16.83Zm15.86,0h9.08v2.19h-11.47v-19.02h2.39v16.83Zm13.16-16.83h2.39v19.02h-2.39v-19.02Zm14.66-.08l-6.7,18.99-.04.1h2.33l1.86-5.41h7.39l1.86,5.41h2.48l-6.73-19.09h-2.45Zm4.1,11.58h-5.91l2.98-8.62,2.93,8.62Zm22.7-11.5h2.27v19.02h-2.13l-.02-.03-10.19-15.19v15.23h-2.27v-19.02h2.49l.02.03,9.83,14.79v-14.82Zm20.96,12.61l2.26.52-.02.07c-.98,3.98-3.59,6.18-7.34,6.18-2.4,0-4.43-.92-5.86-2.65-1.45-1.76-2.22-4.28-2.22-7.29,0-5.86,3.25-9.79,8.08-9.79,3.72,0,6.09,1.97,7.06,5.85l.02.07-2.28.62-.02-.07c-.86-3.02-2.25-4.25-4.8-4.25-3.48,0-5.64,2.89-5.64,7.55s2.13,7.78,5.69,7.78c2.62,0,4.27-1.47,5.05-4.51l.02-.07Zm19.66,4.22v2.19h-12.26v-19.02h11.73v2.22h-9.33v5.74h6.93v2.17h-6.93v6.71h9.87Z"/>
  <path d="m92.14,53.96v-.17c10.05-4.25,17.12-14.19,17.12-25.79C109.26,12.6,96.8.09,81.41.01h0s-80.03-.01-80.03-.01v28.02h12.96v54.34H1.39v28.02h82.96c15.87,0,28.75-12.89,28.75-28.75,0-13.18-8.88-24.27-20.96-27.67m-41.89-25.94h20.11c1.02,0,1.85.83,1.85,1.85v12.25c0,1.02-.84,1.85-1.85,1.85h-20.11v-15.96Zm22.96,52.48c0,1.03-.82,1.86-1.85,1.86h-21.11v-18.41h21.11c1.02,0,1.85.83,1.85,1.85v14.7Z"/>
  <path class="cls-1" d="m165.22,0v82.35h12.96v28.02h-61.82v-28.02h12.96V28.02h-12.96V0h48.86Zm125.94,37.62v-9.68C291.17,12.51,278.65,0,263.23,0h-53.85c-15.42,0-27.94,12.51-27.94,27.93v54.52c0,15.42,12.51,27.92,27.94,27.92h53.85c15.41,0,27.93-12.5,27.93-27.92v-37.25h-45.43v19.97h9.43v13.48c0,2.03-1.64,3.68-3.67,3.68h-30.37c-2.03,0-3.67-1.64-3.67-3.68V31.68c0-2.03,1.64-3.68,3.67-3.68h30.37c2.03,0,3.67,1.65,3.67,3.68v5.94h36Zm-.68,74.46c0,2.87,2.21,5.1,5.09,5.1s5.1-2.27,5.1-5.13-2.21-5.11-5.08-5.11-5.12,2.27-5.12,5.13m9.36,0c0,2.44-1.83,4.33-4.24,4.33s-4.28-1.92-4.28-4.36,1.83-4.33,4.25-4.33,4.27,1.92,4.27,4.36m-6.21,2.68h1.05v-2.17h.93l1.12,2.17h1.13l-1.21-2.31c.68-.23,1.13-.69,1.13-1.57,0-1.13-.77-1.71-2.09-1.71h-2.07v5.59Zm1.05-2.97v-1.68h.95c.72,0,1.12.24,1.12.83,0,.61-.4.85-1.11.85h-.96Z"/>
</svg>