<svg id="free" xmlns="http://www.w3.org/2000/svg" width="57" height="24" viewBox="0 0 57 24">
  <rect id="Rectangle_11" data-name="Rectangle 11" width="57" height="24" fill="none"/>
  <g id="Group_5" data-name="Group 5" transform="translate(145 -88)">
    <rect id="Rectangle_1" data-name="Rectangle 1" width="55" height="22" rx="2" transform="translate(-144 89)" fill="#00893a"/>
    <path id="Path_11" data-name="Path 11" d="M1.18,0V-11.453H9.031v1.938H3.492V-6.8H8.273v1.938H3.492V0Zm9.766,0V-11.453h4.867a8.331,8.331,0,0,1,2.668.309,2.632,2.632,0,0,1,1.332,1.1,3.3,3.3,0,0,1,.5,1.8,3.057,3.057,0,0,1-.758,2.129,3.639,3.639,0,0,1-2.266,1.059,5.4,5.4,0,0,1,1.238.961,13.053,13.053,0,0,1,1.316,1.859L21.242,0H18.477L16.8-2.492a16.166,16.166,0,0,0-1.219-1.684,1.775,1.775,0,0,0-.7-.477,3.812,3.812,0,0,0-1.164-.129h-.469V0Zm2.313-6.609h1.711a8.835,8.835,0,0,0,2.078-.141,1.245,1.245,0,0,0,.648-.484,1.491,1.491,0,0,0,.234-.859,1.373,1.373,0,0,0-.309-.934,1.416,1.416,0,0,0-.871-.449q-.281-.039-1.687-.039h-1.8ZM22.492,0V-11.453h8.492v1.938H24.8v2.539h5.75v1.93H24.8V-1.93h6.4V0ZM33.164,0V-11.453h8.492v1.938h-6.18v2.539h5.75v1.93h-5.75V-1.93h6.4V0Z" transform="translate(-138 106)" fill="#fff"/>
  </g>
</svg>
