<svg id="Layer_1" data-name="Layer 1" xmlns="http://www.w3.org/2000/svg" viewBox="0 0 961.89 258.05"><defs><style>.cls-1{fill:#fff;}</style></defs><title>Fulcrum</title><path class="cls-1" d="M348.78,128.85v68.76c0,16.44-8.45,24.89-21.69,24.89s-21-8.45-21-24.89V128.85h-63c0-9.13,4.65-16.69,12.56-17.81,6.43-.91,11,0,15.76,3V85.24c-6.4-2-13.7-3.43-24.66-3.43-12.33,0-21.1,3.61-27.5,10s-10.41,15.8-10.41,29.27v7.76H194.46V157.4h14.38v94.32h34.71V157.4h27.83v51.17c0,28.09,15.3,45.44,41.55,45.44,17.59,0,27.86-9.36,35.85-19.64v17.35h34.71V128.85Z"/><path class="cls-1" d="M400.52,81.81h34.71V251.72H400.52Z"/><path class="cls-1" d="M447.2,191.22v-.46c0-34.94,26.71-63.71,64.16-63.71,23.06,0,37.45,7.77,48.86,20.55L539,170.44c-7.76-8.23-15.53-13.47-27.86-13.47-17.36,0-29.68,15.29-29.68,33.33v.46c0,18.72,12.1,33.79,31.05,33.79,11.64,0,19.64-5,28.09-13l20.32,20.55c-11.88,13-25.57,22.38-50,22.38C474.14,254.47,447.2,226.15,447.2,191.22Z"/><path class="cls-1" d="M720.67,128.85v68.76c0,16.44-8.45,24.89-21.7,24.89s-21-8.45-21-24.89V128.85H648.77c-21.11,0-37.48,8.25-44.55,25.14V128.85H569.51V251.72h34.71v-45.2c0-29.23,16-44.83,39-44.83h0v46.88c0,28.09,15.3,45.44,41.55,45.44,17.59,0,27.86-9.36,35.86-19.64v17.35h34.7V128.85Z"/><path class="cls-1" d="M769.12,128.85h34.71v17.84c8-10.28,18.49-19.64,36.08-19.64,16,0,28.08,7.08,34.47,19.41,10.73-12.56,23.52-19.41,40.19-19.41,25.8,0,41.32,15.53,41.32,45v79.68h-34.7V183.45c0-16.44-7.31-24.88-20.32-24.88s-21,8.44-21,24.88v68.27h-34.7V183.45c0-16.44-7.31-24.88-20.32-24.88s-21,8.44-21,24.88v68.27H769.12Z"/><path class="cls-1" d="M153.09,56.27H7.6V1.65H153.09Zm0,72.63H7.6v54.62H153.09Zm0-36.31a36.21,36.21,0,1,0-36.2,36.21A36.21,36.21,0,0,0,153.09,92.59ZM80,219.84a36.21,36.21,0,1,0-36.2,36.21A36.21,36.21,0,0,0,80,219.84Z"/></svg>