<svg id="Layer_1" data-name="Layer 1" xmlns="http://www.w3.org/2000/svg" viewBox="0 0 114.09 89.22"><defs><style>.cls-1{fill:#9e172e;}.cls-2{fill:#333;}.cls-3{fill:none;}</style></defs><path class="cls-1" d="M75,23.78c12.43,0,24.87,0,37.3,0,1.15,0,1.59.19,1.55,1.48-.11,2.93,0,2.93-2.94,2.93H37.77c-1.55,0-1.55,0-1.55,1.53,0,8,0,15.92,0,23.87,0,1-.21,1.42-1.25,1.28s-2.41.47-3.09-.28-.17-2-.17-3c0-7.4,0-14.8,0-22.19,0-.93-.22-1.22-1.19-1.21q-12.47.06-24.94,0c-1,0-1.21.3-1.21,1.23,0,8,0,16.07,0,24.11,0,1.12-.32,1.4-1.4,1.38-3-.08-3,0-3-3.08Q0,26.65,0,1.53C0,.37.22,0,1.48,0,4.42.11,4.42,0,4.42,2.93c0,6.51,0,13,0,19.55,0,1.07.29,1.33,1.34,1.33q12.42-.07,24.83,0c1,0,1.18-.3,1.18-1.21,0-7.12,0-14.23,0-21.35,0-.9.17-1.33,1.17-1.22a12.83,12.83,0,0,0,2.4,0c.73,0,1,.22,1,1,0,2,0,3.92,0,5.88,0,5.2,0,10.4,0,15.59,0,1.14.34,1.37,1.41,1.37Q56.31,23.75,75,23.78Z"/><path class="cls-2" d="M31.78,74.8l.88.31c3.61,1.16,5.39,3.61,5.29,7.3-.08,3-2.38,5.56-5.71,6.4a11.44,11.44,0,0,1-2.85.38c-3,0-6,0-9,0-.74,0-1-.13-1-1q.06-12.57,0-25.16c0-.73.17-1,.92-.94,2.72,0,5.43,0,8.15,0,4.94.13,8.16,4,7.12,8.51a5.08,5.08,0,0,1-2.29,3.22C32.83,74.2,32.35,74.46,31.78,74.8Zm-8.47,6.55c0,1.2,0,2.4,0,3.59,0,.55.12.78.73.77,1.63,0,3.27,0,4.91-.06a6.91,6.91,0,0,0,2.55-.58,3.76,3.76,0,0,0,2.41-3.66,3.63,3.63,0,0,0-2.47-3.61c-2.5-1-5.13-.53-7.71-.61-.5,0-.4.38-.41.69Zm0-11.69V73c0,.29-.09.68.42.68,2,0,4.08.14,6-.79a3.75,3.75,0,0,0,2-4,3.39,3.39,0,0,0-3-3.06,28.91,28.91,0,0,0-4.65-.2c-.53,0-.69.18-.68.68C23.33,67.43,23.31,68.55,23.31,69.66Z"/><path class="cls-2" d="M95,74.4c3.68-4,7.15-7.72,10.58-11.49a2,2,0,0,1,1.75-.77c1.23,0,2.47,0,4,0l-1.35,1.49c-3.23,3.5-6.42,7-9.69,10.46-.69.72-.55,1.07.08,1.68,4.27,4.08,8.51,8.2,12.77,12.3.31.3.68.54,1,.82l-.15.29h-5c-.43,0-.64-.3-.89-.55L95.19,76.14c-.41.17-.21.55-.21.82,0,3.72,0,7.43,0,11.15,0,.93-.27,1.12-1.14,1.11-2.82,0-2.82,0-2.82-2.76C91,78.71,91,71,91,63.2c0-.8.17-1.08,1-1.07C95,62.15,95,62.11,95,65Z"/><path class="cls-2" d="M50.73,62.13c4.5.11,8.24,1.73,10.37,5.88a11.42,11.42,0,0,1-.81,12.15c-1.81,2.74-4.57,4-7.73,4.52-5,.81-10-1.44-12.13-5.63C36.16,70.57,42,61.86,50.73,62.13Zm-.16,18.66c4.45,0,7.28-2.86,7.31-7.41a7.06,7.06,0,0,0-7.36-7.3,6.91,6.91,0,0,0-7,7.19C43.5,77.77,46.35,80.79,50.57,80.79Z"/><path class="cls-2" d="M76,62.15c6,0,10.49,3.4,11.44,9,1.29,7.52-3.52,13.34-11,13.62C70.68,85,65.82,81.67,64.6,76,63,68.46,68.15,62.15,76,62.15ZM75.9,80.8c4.45,0,7.35-3,7.29-7.54a7.09,7.09,0,0,0-7.47-7.18,6.88,6.88,0,0,0-6.94,7.14C68.73,77.71,71.64,80.81,75.9,80.8Z"/><path class="cls-2" d="M.32,75.62c0-4.11,0-8.23,0-12.34,0-.85.13-1.16,1.08-1.15,4.47.06,9,0,13.42,0,.77,0,1,.16,1,1,0,2.52,0,2.52-2.45,2.52-2.68,0-5.36,0-8,0-.79,0-1.14.13-1.11,1,.06,2,.07,4.08,0,6.11,0,.88.33,1,1,1,3,0,6.07,0,9.11,0,.82,0,1.08.2,1.06,1,0,2.49,0,2.49-2.48,2.49s-5.2,0-7.8,0c-.72,0-1,.18-.93.93,0,2.16.07,4.32,0,6.48,0,1,.34,1.09,1.17,1.08,3.24,0,6.47,0,9.71,0,.82,0,1.08.19,1.07,1,0,2.47,0,2.47-2.5,2.47-4.12,0-8.24,0-12.35,0-.77,0-1-.19-1-1C.34,84,.32,79.82.32,75.62Z"/><path class="cls-2" d="M64,89C56.68,89,49.32,89,42,89c-1,0-1.16-.27-1.19-1.19S41.14,86.7,42,86.7l44.24,0c.4,0,1-.29,1.16.26a3.58,3.58,0,0,1,0,1.78c-.12.46-.7.22-1.07.22Z"/><path class="cls-3" d="M23.31,81.35V77.88c0-.31-.09-.71.41-.69,2.58.08,5.21-.38,7.71.61a3.63,3.63,0,0,1,2.47,3.61,3.76,3.76,0,0,1-2.41,3.66,6.91,6.91,0,0,1-2.55.58c-1.64.07-3.28,0-4.91.06-.61,0-.74-.22-.73-.77C23.33,83.75,23.31,82.55,23.31,81.35Z"/><path class="cls-3" d="M23.31,69.66c0-1.11,0-2.23,0-3.35,0-.5.15-.7.68-.68a28.91,28.91,0,0,1,4.65.2,3.39,3.39,0,0,1,3,3.06,3.75,3.75,0,0,1-2,4c-1.89.93-3.95.77-6,.79-.51,0-.41-.39-.42-.68Z"/><path class="cls-3" d="M50.57,80.79c-4.22,0-7.07-3-7.09-7.52a6.91,6.91,0,0,1,7-7.19,7.06,7.06,0,0,1,7.36,7.3C57.85,77.93,55,80.79,50.57,80.79Z"/><path class="cls-3" d="M75.9,80.8c-4.26,0-7.17-3.09-7.12-7.58a6.88,6.88,0,0,1,6.94-7.14,7.09,7.09,0,0,1,7.47,7.18C83.25,77.79,80.35,80.78,75.9,80.8Z"/></svg>