<svg id="Layer_1" data-name="Layer 1" xmlns="http://www.w3.org/2000/svg" viewBox="0 0 142.56 142.32"><defs><style>.cls-1{fill:none;}.cls-2{fill:#9e172e;}.cls-3{fill:#333;}</style></defs><path class="cls-1" d="M0,142.3Q0,71.69,0,1.1C0,.2.2,0,1.1,0Q71.29,0,141.46,0c.9,0,1.1.2,1.1,1.1q0,70.07,0,140.12c0,.9-.2,1.1-1.1,1.1Q70.74,142.27,0,142.3ZM89.15,47.25c-12.47,0-24.94,0-37.42,0-1.06,0-1.43-.22-1.41-1.36.06-5.2,0-10.4,0-15.59,0-2,0-3.92,0-5.88,0-.74-.22-1-1-1a14.67,14.67,0,0,1-2.39,0c-1-.12-1.18.31-1.18,1.22,0,7.11,0,14.23,0,21.34,0,.92-.2,1.22-1.18,1.22q-12.4-.06-24.82,0c-1.05,0-1.35-.26-1.35-1.33.06-6.51,0-13,0-19.55,0-2.89,0-2.82-2.94-2.92-1.26,0-1.48.36-1.48,1.53q.06,25.13,0,50.25c0,3.06,0,3,3,3.08,1.08,0,1.41-.26,1.4-1.38,0-8,0-16.07,0-24.1,0-.93.24-1.24,1.21-1.24q12.47.06,25,0c1,0,1.19.29,1.18,1.21,0,7.4,0,14.79,0,22.19,0,1-.44,2.35.17,3s2,.13,3.1.28S50.37,78,50.37,77c0-8,0-15.92,0-23.87,0-1.53,0-1.53,1.56-1.53h73.16c2.9,0,2.82,0,2.93-2.94.05-1.28-.39-1.48-1.55-1.48Q107.81,47.28,89.15,47.25Zm-43.23,51c.57-.34,1-.6,1.5-.9a5.18,5.18,0,0,0,2.3-3.23c1-4.49-2.18-8.37-7.13-8.5-2.71-.07-5.43,0-8.15,0-.75,0-.92.21-.92.94q0,12.58,0,25.17c0,.84.28,1,1,1,3,0,6,0,9,0a11.84,11.84,0,0,0,2.84-.38c3.34-.85,5.63-3.42,5.71-6.4.1-3.69-1.67-6.15-5.28-7.31Zm63.18-.41V88.47c0-2.89,0-2.86-2.93-2.88-.86,0-1,.27-1,1.08,0,7.75,0,15.5,0,23.25,0,2.76,0,2.73,2.82,2.76.88,0,1.16-.18,1.14-1.11-.06-3.71,0-7.43,0-11.15,0-.27-.2-.64.21-.82l12.92,12.52c.25.24.46.54.88.54h5l.14-.3c-.34-.27-.7-.52-1-.82-4.25-4.1-8.49-8.22-12.77-12.3-.63-.6-.76-.95-.08-1.67,3.27-3.45,6.47-7,9.69-10.46.41-.44.81-.89,1.35-1.49-1.49,0-2.72,0-4,0a2,2,0,0,0-1.75.77C116.25,90.14,112.78,93.88,109.1,97.86ZM64.86,85.6C56.1,85.33,50.3,94,54.56,102.52c2.11,4.18,7.15,6.43,12.14,5.62,3.16-.51,5.91-1.78,7.73-4.51a11.44,11.44,0,0,0,.8-12.16C73.1,87.32,69.36,85.7,64.86,85.6Zm25.27,0c-7.85,0-13,6.3-11.4,13.87,1.23,5.65,6.09,9,11.81,8.76,7.51-.28,12.32-6.1,11-13.63C100.62,89,96.13,85.62,90.13,85.62ZM14.45,99.09c0,4.19,0,8.39,0,12.58,0,.81.22,1,1,1,4.12,0,8.23,0,12.35,0,2.51,0,2.47,0,2.5-2.47,0-.86-.24-1.06-1.07-1-3.23,0-6.47,0-9.71,0-.83,0-1.2-.11-1.17-1.08.09-2.15.07-4.31,0-6.47,0-.75.21-1,.94-.94,2.59,0,5.19,0,7.79,0s2.45,0,2.49-2.5c0-.85-.24-1.06-1.07-1-3,0-6.07,0-9.11,0-.72,0-1.08-.09-1-1q.11-3.06,0-6.11c0-.9.32-1.05,1.11-1,2.68,0,5.35,0,8,0,2.45,0,2.41,0,2.46-2.51,0-.82-.24-1-1-1-4.48,0-8.95.05-13.43,0-.95,0-1.08.31-1.07,1.15C14.47,90.86,14.45,95,14.45,99.09Zm63.71,13.38h22.3c.37,0,1,.23,1.07-.23a3.43,3.43,0,0,0,0-1.77c-.15-.56-.76-.26-1.15-.26l-44.25,0c-.87,0-1.26.11-1.23,1.13s.24,1.2,1.19,1.19C63.45,112.45,70.81,112.47,78.16,112.47Z"/><path class="cls-2" d="M89.15,47.25q18.66,0,37.3,0c1.16,0,1.6.2,1.55,1.48-.11,2.93,0,2.94-2.93,2.94H51.91c-1.56,0-1.56,0-1.56,1.53,0,7.95,0,15.91,0,23.87,0,1-.2,1.42-1.24,1.27s-2.42.47-3.1-.28-.17-2-.17-3c0-7.4,0-14.79,0-22.19,0-.92-.21-1.21-1.18-1.21q-12.48.06-24.95,0c-1,0-1.21.31-1.21,1.24,0,8,0,16.07,0,24.1,0,1.12-.32,1.41-1.4,1.38-3-.07-3,0-3-3.08q0-25.12,0-50.25c0-1.17.22-1.58,1.48-1.53,2.94.1,2.94,0,2.94,2.92,0,6.52,0,13,0,19.55,0,1.07.3,1.34,1.35,1.33q12.4-.06,24.82,0c1,0,1.19-.3,1.18-1.22,0-7.11,0-14.23,0-21.34,0-.91.17-1.34,1.18-1.22a14.67,14.67,0,0,0,2.39,0c.74,0,1,.21,1,1,0,2,0,3.92,0,5.88,0,5.19,0,10.39,0,15.59,0,1.14.35,1.36,1.41,1.36C64.21,47.23,76.68,47.25,89.15,47.25Z"/><path class="cls-3" d="M45.92,98.27l.88.3c3.61,1.16,5.38,3.62,5.28,7.31-.08,3-2.37,5.55-5.71,6.4a11.84,11.84,0,0,1-2.84.38c-3,0-6,0-9,0-.74,0-1-.12-1-1q0-12.58,0-25.17c0-.73.17-1,.92-.94,2.72.05,5.44,0,8.15,0,4.95.13,8.16,4,7.13,8.5a5.18,5.18,0,0,1-2.3,3.23C47,97.67,46.49,97.93,45.92,98.27Zm-8.48,6.55c0,1.19,0,2.39,0,3.59,0,.55.13.78.73.76,1.64,0,3.28,0,4.91,0a7.07,7.07,0,0,0,2.55-.58A3.76,3.76,0,0,0,48,104.87a3.6,3.6,0,0,0-2.47-3.6c-2.49-1-5.13-.53-7.7-.62-.5,0-.41.39-.41.69C37.44,102.5,37.44,103.66,37.44,104.82Zm0-11.69c0,1.11,0,2.23,0,3.34,0,.3-.1.69.41.68,2,0,4.08.14,6-.78a3.77,3.77,0,0,0,2-4,3.42,3.42,0,0,0-3-3.06,31.41,31.41,0,0,0-4.65-.2c-.53,0-.69.18-.67.69C37.46,90.89,37.44,92,37.44,93.13Z"/><path class="cls-3" d="M109.1,97.86c3.68-4,7.15-7.72,10.59-11.49a2,2,0,0,1,1.75-.77c1.23.06,2.46,0,4,0-.54.6-.94,1-1.35,1.49-3.22,3.49-6.42,7-9.69,10.46-.68.72-.55,1.07.08,1.67,4.28,4.08,8.52,8.2,12.77,12.3.32.3.68.55,1,.82l-.14.3h-5c-.42,0-.63-.3-.88-.54L109.32,99.6c-.41.18-.21.55-.21.82,0,3.72,0,7.44,0,11.15,0,.93-.26,1.13-1.14,1.11-2.82,0-2.82,0-2.82-2.76,0-7.75,0-15.5,0-23.25,0-.81.16-1.08,1-1.08,2.93,0,2.93,0,2.93,2.88Z"/><path class="cls-3" d="M64.86,85.6c4.5.1,8.24,1.72,10.37,5.87a11.44,11.44,0,0,1-.8,12.16c-1.82,2.73-4.57,4-7.73,4.51-5,.81-10-1.44-12.14-5.62C50.3,94,56.1,85.33,64.86,85.6Zm-.15,18.66c4.44,0,7.27-2.87,7.31-7.42a7.07,7.07,0,0,0-7.36-7.3,6.92,6.92,0,0,0-7,7.2C57.64,101.23,60.49,104.26,64.71,104.26Z"/><path class="cls-3" d="M90.13,85.62c6,0,10.49,3.39,11.45,9,1.28,7.53-3.53,13.35-11,13.63-5.72.21-10.58-3.11-11.81-8.76C77.08,91.92,82.28,85.62,90.13,85.62ZM90,104.26c4.46,0,7.35-3,7.29-7.54a7.08,7.08,0,0,0-7.46-7.18,6.9,6.9,0,0,0-7,7.14C82.86,101.18,85.77,104.27,90,104.26Z"/><path class="cls-3" d="M14.45,99.09c0-4.12,0-8.23,0-12.35,0-.84.12-1.16,1.07-1.15,4.48.06,9,0,13.43,0,.76,0,1,.17,1,1-.05,2.51,0,2.51-2.46,2.51-2.68,0-5.35,0-8,0-.79,0-1.14.13-1.11,1q.11,3,0,6.11c0,.87.32,1,1,1,3,0,6.07,0,9.11,0,.83,0,1.08.2,1.07,1,0,2.49,0,2.5-2.49,2.5s-5.2,0-7.79,0c-.73,0-1,.19-.94.94.06,2.16.08,4.32,0,6.47,0,1,.34,1.1,1.17,1.08,3.24,0,6.48,0,9.71,0,.83,0,1.09.19,1.07,1,0,2.47,0,2.47-2.5,2.47-4.12,0-8.23,0-12.35,0-.77,0-1-.19-1-1C14.47,107.48,14.45,103.28,14.45,99.09Z"/><path class="cls-3" d="M78.16,112.47c-7.35,0-14.71,0-22.06,0-1,0-1.16-.26-1.19-1.19s.36-1.14,1.23-1.13l44.25,0c.39,0,1-.3,1.15.26a3.43,3.43,0,0,1,0,1.77c-.12.46-.7.23-1.07.23Z"/><path class="cls-1" d="M37.44,104.82c0-1.16,0-2.32,0-3.48,0-.3-.09-.71.41-.69,2.57.09,5.21-.38,7.7.62a3.6,3.6,0,0,1,2.47,3.6,3.76,3.76,0,0,1-2.41,3.67,7.07,7.07,0,0,1-2.55.58c-1.63.06-3.27,0-4.91,0-.6,0-.74-.21-.73-.76C37.47,107.21,37.44,106,37.44,104.82Z"/><path class="cls-1" d="M37.44,93.13c0-1.12,0-2.24,0-3.35,0-.51.14-.7.67-.69a31.41,31.41,0,0,1,4.65.2,3.42,3.42,0,0,1,3,3.06,3.77,3.77,0,0,1-2,4c-1.89.92-3.95.76-6,.78-.51,0-.41-.38-.41-.68C37.44,95.36,37.44,94.24,37.44,93.13Z"/><path class="cls-1" d="M64.71,104.26c-4.22,0-7.07-3-7.09-7.52a6.92,6.92,0,0,1,7-7.2A7.07,7.07,0,0,1,72,96.84C72,101.39,69.15,104.26,64.71,104.26Z"/><path class="cls-1" d="M90,104.26c-4.26,0-7.17-3.08-7.12-7.58a6.9,6.9,0,0,1,7-7.14,7.08,7.08,0,0,1,7.46,7.18C97.38,101.26,94.49,104.25,90,104.26Z"/></svg>