<svg id="Layer_1" data-name="Layer 1" xmlns="http://www.w3.org/2000/svg" viewBox="0 0 360 576"><defs><style>.cls-1{fill:#79bde8;}</style></defs><title>Lever Press</title><path class="cls-1" d="M253.9,486.54a114,114,0,0,0-15.23,9c.39-8.5,1-18.89,1.73-31.32,34.75-9.4,67.48,7.57,67.48,7.57-20.12-14.63-41.79-28.6-66-29.09q.45-6.48,1-13.53a109.42,109.42,0,0,1,26.06,9,256.28,256.28,0,0,0-25.48-16.7c4.07-53,11-128.69,23-232.66l-37.61-27.64S240.92,278,224.27,412.9c-11.24-3.81-23-5.37-35.53-3.25q-.09-7.8-.13-16.27c21.3,1.08,35.53,8.25,35.53,8.25-11.09-8.37-22.92-15.67-35.57-20.3,0-59.27,1.78-140.65,8.41-242l-37.67-27s17.69,125,10,264.27a76.55,76.55,0,0,0-32.08,3C132.11,311.93,125.65,209,122.52,87L85.61,59.84s31.78,167.39,27.87,330.86a112.87,112.87,0,0,0-19,14.75C83.24,337.09,56.83,167.77,49,35.28L10.41,6.65S74,268.27,61.92,463.86c0,.15-.05.27-.05.27l0,0c0,.21,0,.43,0,.64L82.21,478.3s9.84-28.83,29.84-52.38c-1.34,23.06-3.49,45.81-6.67,67.72l21.52,14.67.4-1s22.42-43.48,35.4-56.54c-3.14,24.67-7.28,49.18-12.67,72.93l22.05,14.91s19.16-44.6,42.1-61.48a762.14,762.14,0,0,1-18.92,77.14L216.93,569s20.75-52.79,58.11-67.22c37-14.3,74.38,4.46,74.38,4.46C321.41,486.22,291,468.27,253.9,486.54ZM141.71,433.88c-.76-8.6-1.64-18.85-2.59-30.57a66.31,66.31,0,0,1,8.2-3.67,104,104,0,0,1,20.9-5.31q-.79,11.43-1.85,22.92A118.21,118.21,0,0,0,141.71,433.88Zm67.56,16.57A111.82,111.82,0,0,0,190,462.71c-.31-8.39-.61-18.39-.86-29.89l.48-.21a83.09,83.09,0,0,1,32.87-5.83q-1.32,9.64-2.85,19.37A78.33,78.33,0,0,0,209.27,450.45Z"/></svg>