<svg id="Layer_1" data-name="Layer 1" xmlns="http://www.w3.org/2000/svg" viewBox="0 0 360 576"><defs><style>.cls-1{fill:#003a63;}</style></defs><title>Lever Press</title><path class="cls-1" d="M254.53,489.73a114.53,114.53,0,0,0-15.38,9.12c.4-8.58,1-19.08,1.74-31.63,35.11-9.5,68.16,7.65,68.16,7.65-20.32-14.78-42.21-28.88-66.71-29.38q.47-6.56,1-13.66A110.48,110.48,0,0,1,269.65,441a258.33,258.33,0,0,0-25.73-16.86c4.11-53.57,11.14-130,23.2-235l-38-27.91s12.29,117.92-4.52,254.14c-11.36-3.84-23.26-5.42-35.88-3.28q-.09-7.87-.14-16.43c21.52,1.09,35.89,8.33,35.89,8.33-11.2-8.45-23.15-15.82-35.92-20.5,0-59.86,1.79-142.05,8.49-244.36L159,111.84s17.87,126.24,10.13,266.88a77.39,77.39,0,0,0-32.39,3C131.54,313.38,125,209.43,121.85,86.2L84.58,58.8s32.09,169,28.15,334.13a113.4,113.4,0,0,0-19.14,14.9c-11.41-69-38.08-240-45.95-373.84L8.63,5.08s64.17,264.21,52,461.73l0,.28,0,0c0,.21,0,.43,0,.65L81.14,481.4s9.93-29.11,30.14-52.9c-1.35,23.3-3.52,46.26-6.73,68.39l21.72,14.82.41-1s22.64-43.91,35.75-57.1c-3.17,24.91-7.35,49.67-12.8,73.66l22.27,15.05s19.35-45.05,42.52-62.09a769.14,769.14,0,0,1-19.11,77.9L217.2,573s21-53.31,58.68-67.89c37.41-14.44,75.12,4.51,75.12,4.51C322.71,489.4,292,471.27,254.53,489.73Zm-113.3-53.19c-.77-8.69-1.65-19-2.61-30.87a67.49,67.49,0,0,1,8.27-3.71A104.81,104.81,0,0,1,168,396.6q-.81,11.55-1.87,23.15A119.4,119.4,0,0,0,141.23,436.54Zm68.23,16.74A112.43,112.43,0,0,0,190,465.66c-.31-8.48-.62-18.57-.87-30.19.17-.07.32-.15.49-.21a84,84,0,0,1,33.19-5.89q-1.34,9.74-2.88,19.57A79,79,0,0,0,209.46,453.28Z"/></svg>