<svg id="lock_locked" xmlns="http://www.w3.org/2000/svg" width="16" height="16" viewBox="0 0 16 16">
  <rect id="Rectangle_11" data-name="Rectangle 11" width="16" height="16" fill="none"/>
  <path id="Union_1" data-name="Union 1" d="M1.111,14A1.2,1.2,0,0,1,0,12.727V7A1.2,1.2,0,0,1,1.111,5.727V4.454A4.206,4.206,0,0,1,5,0,4.2,4.2,0,0,1,8.889,4.454V5.727h0A1.2,1.2,0,0,1,10,7v5.727A1.2,1.2,0,0,1,8.889,14ZM7.593,5.727V4.454A2.8,2.8,0,0,0,5,1.484a2.8,2.8,0,0,0-2.592,2.97V5.727Z" transform="translate(3 1)" fill="#d40a13"/>
</svg>
