<?xml version="1.0" encoding="UTF-8"?>
<svg id="paths" xmlns="http://www.w3.org/2000/svg" viewBox="0 0 176.44 64.74">
  <defs>
    <style>
      .cls-1 {
        fill: #fff;
      }
    </style>
  </defs>
  <g>
    <path class="cls-1" d="M53.28,50.42c0-.76.25-1.48.76-2.03.36-.4.79-.58,1.28-.58.52,0,1.12.32,1.12,1.13,0,.58-.23,1.51-.77,2.11-.34.4-.76.59-1.3.59s-1.08-.4-1.08-1.23ZM55.26,50.33c.33-.57.61-1.31.61-1.64,0-.2-.13-.4-.39-.4-.37,0-.71.31-1.15,1.05-.3.5-.48,1.04-.48,1.4,0,.24.18.42.38.42.35,0,.67-.25,1.03-.84Z"/>
    <path class="cls-1" d="M57.3,53.32c-.16.47-.07.61.27.61h.25c.05,0,.07.04.05.08l-.04.19s-.04.05-.12.05c-.09,0-.36-.03-1.04-.03-.74,0-.97.03-1.08.03-.05,0-.07-.02-.06-.05l.04-.2s.04-.07.07-.07h.22c.31,0,.5-.19.68-.7l1.68-4.77c-.42.11-.87.52-1.04.74-.04.04-.07.04-.11,0l-.11-.08s-.02-.05,0-.09c.25-.31.68-.79,1.42-1.06l.28-.86c.02-.07.05-.11.14-.13l.8-.25s.04-.02.07-.02c.02,0,.04.02.04.04,0,.02-.02.05-.03.07l-.45,1.01c.14-.02.24-.02.33-.02.86,0,1.31.56,1.31,1.2s-.29,1.29-1.1,1.88c-.43.31-1.15.59-1.89.67l-.61,1.76ZM58.03,51.24c.88-.13,2-.9,2-1.99,0-.73-.34-1-.67-1-.09,0-.18,0-.27.03l-1.06,2.96Z"/>
    <path class="cls-1" d="M63.82,50.67s.04.04.03.08c-.2.32-.81.9-1.6.9-.59,0-.96-.32-.96-.95,0-.7.38-1.66,1.12-2.32.36-.32.86-.56,1.35-.56.41,0,.63.27.63.53,0,.46-.31.87-.83,1.16-.49.25-.97.36-1.31.38-.04.09-.09.34-.09.67,0,.36.23.58.49.58.41,0,.77-.27.97-.54.02-.02.05-.04.07-.02l.13.1ZM62.32,49.6c.16,0,.59-.11.9-.34.2-.16.38-.43.38-.68,0-.16-.07-.32-.27-.32-.45,0-.9.86-1.01,1.35Z"/>
    <path class="cls-1" d="M65.56,51.51s-.04.05-.13.05h-.58c-.08,0-.09-.06-.07-.12l.61-1.67c.2-.58.41-1.13.41-1.26,0-.09-.05-.14-.14-.14-.16,0-.51.32-.66.47-.02.04-.05.04-.08,0l-.1-.1s-.05-.05-.02-.09c.13-.16.72-.85,1.54-.85.26,0,.34.18.34.31,0,.2-.26.81-.42,1.21l.05.04c.27-.41,1.1-1.55,1.95-1.55.33,0,.51.25.51.5,0,.23-.12.66-.49,1.58-.23.59-.36.94-.36,1.06,0,.09.04.14.11.14.13,0,.47-.31.56-.43.04-.02.07-.02.11.02l.09.07s.04.05,0,.11c-.11.14-.74.77-1.5.77-.2,0-.31-.11-.31-.27s.25-.77.54-1.57c.13-.38.39-1.06.39-1.17,0-.14-.08-.22-.21-.22-.27,0-1.03.72-1.4,1.33-.18.29-.34.56-.49.92l-.29.83Z"/>
    <path class="cls-1" d="M75.22,47.8c.05,0,.07.04.05.09-.16.38-.59,1.53-.67,1.76-.04.16-.38,1.21-.38,1.31,0,.09.04.11.11.11.13,0,.49-.43.56-.52.04-.04.05-.05.09-.03l.11.08s.02.05,0,.11c-.09.18-.72.94-1.42.94-.2,0-.29-.09-.29-.23,0-.13.05-.32.38-1.26l-.05-.02c-.38.56-1.12,1.51-1.85,1.51-.23,0-.56-.27-.56-.65,0-1.21,1.26-3.19,2.47-3.19.4,0,.58.16.68.31l.14-.25c.04-.05.09-.07.14-.07h.49ZM73.87,49.38c.13-.25.22-.52.22-.81,0-.14-.16-.4-.41-.4-.23,0-.5.22-.74.55-.5.71-.76,1.52-.76,2.03,0,.2.07.29.22.29.34,0,1.31-1.31,1.48-1.66Z"/>
    <path class="cls-1" d="M77.93,50.79s.05.04.02.09c-.13.2-.72.77-1.39.77-.36,0-.81-.28-.81-.89,0-1.26.98-2.94,2.1-2.94.47,0,.62.34.62.5,0,.25-.2.45-.38.45-.14,0-.25-.05-.31-.22-.05-.13-.14-.27-.28-.27-.2,0-.37.22-.54.61-.23.54-.35,1.1-.35,1.58,0,.45.13.65.37.65.29,0,.64-.27.75-.4.02-.04.05-.05.07-.04l.13.09Z"/>
    <path class="cls-1" d="M80.87,50.79s.05.04.02.09c-.13.2-.72.77-1.39.77-.36,0-.81-.28-.81-.89,0-1.26.98-2.94,2.1-2.94.47,0,.62.34.62.5,0,.25-.2.45-.38.45-.14,0-.25-.05-.31-.22-.05-.13-.14-.27-.28-.27-.2,0-.37.22-.54.61-.23.54-.35,1.1-.35,1.58,0,.45.13.65.37.65.29,0,.64-.27.75-.4.02-.04.05-.05.07-.04l.13.09Z"/>
    <path class="cls-1" d="M84.13,50.67s.04.04.03.08c-.2.32-.81.9-1.6.9-.59,0-.96-.32-.96-.95,0-.7.38-1.66,1.12-2.32.36-.32.86-.56,1.35-.56.41,0,.63.27.63.53,0,.46-.31.87-.83,1.16-.49.25-.97.36-1.31.38-.04.09-.09.34-.09.67,0,.36.23.58.49.58.41,0,.77-.27.97-.54.02-.02.05-.04.07-.02l.13.1ZM82.62,49.6c.16,0,.59-.11.9-.34.2-.16.38-.43.38-.68,0-.16-.07-.32-.27-.32-.45,0-.9.86-1.01,1.35Z"/>
    <path class="cls-1" d="M85.59,51.65c-.59,0-.9-.22-.9-.52,0-.22.14-.38.34-.38.22,0,.36.14.43.36.05.14.13.23.29.23.25,0,.45-.2.45-.58.02-.31-.22-.57-.41-.89-.18-.31-.35-.53-.33-.91,0-.58.49-1.15,1.33-1.15.31,0,.7.13.7.5,0,.23-.14.38-.34.38-.16,0-.31-.07-.36-.31-.04-.11-.07-.25-.22-.25-.18,0-.38.13-.38.52,0,.31.31.67.41.81.18.24.34.56.34.97,0,.7-.56,1.21-1.37,1.21Z"/>
    <path class="cls-1" d="M88.47,51.65c-.59,0-.9-.22-.9-.52,0-.22.14-.38.34-.38.22,0,.36.14.43.36.05.14.13.23.29.23.25,0,.45-.2.45-.58.02-.31-.22-.57-.41-.89-.18-.31-.35-.53-.33-.91,0-.58.49-1.15,1.33-1.15.31,0,.7.13.7.5,0,.23-.14.38-.34.38-.16,0-.31-.07-.36-.31-.04-.11-.07-.25-.22-.25-.18,0-.38.13-.38.52,0,.31.31.67.41.81.18.24.34.56.34.97,0,.7-.56,1.21-1.37,1.21Z"/>
    <path class="cls-1" d="M93.22,51.65c-.59,0-.9-.22-.9-.52,0-.22.14-.38.34-.38.22,0,.36.14.43.36.05.14.13.23.29.23.25,0,.45-.2.45-.58.02-.31-.22-.57-.41-.89-.18-.31-.35-.53-.33-.91,0-.58.49-1.15,1.33-1.15.31,0,.7.13.7.5,0,.23-.14.38-.34.38-.16,0-.31-.07-.36-.31-.04-.11-.07-.25-.22-.25-.18,0-.38.13-.38.52,0,.31.31.67.41.81.18.24.34.56.34.97,0,.7-.56,1.21-1.37,1.21Z"/>
    <path class="cls-1" d="M97.71,50.79s.05.04.02.09c-.13.2-.72.77-1.39.77-.36,0-.81-.28-.81-.89,0-1.26.98-2.94,2.1-2.94.47,0,.62.34.62.5,0,.25-.2.45-.38.45-.14,0-.25-.05-.31-.22-.05-.13-.14-.27-.28-.27-.2,0-.37.22-.54.61-.23.54-.35,1.1-.35,1.58,0,.45.13.65.37.65.29,0,.64-.27.75-.4.02-.04.05-.05.07-.04l.13.09Z"/>
    <path class="cls-1" d="M99.88,49.13c.43-.65,1.03-1.31,1.71-1.31.56,0,.72.43.72.84,0,.66-.27,1.41-.59,1.99-.4.72-.9,1.21-1.49,1.21-.29,0-.52-.2-.52-.49,0-.22.14-.45.38-.45.22,0,.31.16.32.31.02.13.05.24.18.24.2,0,.4-.57.54-1.04.18-.52.34-1.19.34-1.61,0-.21-.05-.42-.27-.42-.4,0-1.06.76-1.31,1.08-.22.29-.4.61-.5.92l-.47,1.1c-.02.05-.04.07-.11.07h-.58c-.08,0-.1-.05-.07-.13l1.93-5.02c.07-.19.12-.34.12-.42,0-.11-.12-.18-.28-.18h-.27s-.07-.04-.05-.09l.04-.16c.02-.05.04-.07.13-.07h1.42c.07,0,.11.04.11.09s-.04.14-.09.28l-1.37,3.22.05.05Z"/>
    <path class="cls-1" d="M102.85,50.42c0-.76.25-1.48.76-2.03.36-.4.79-.58,1.28-.58.52,0,1.12.32,1.12,1.13,0,.58-.23,1.51-.77,2.11-.34.4-.76.59-1.3.59s-1.08-.4-1.08-1.23ZM104.83,50.33c.33-.57.61-1.31.61-1.64,0-.2-.13-.4-.39-.4-.37,0-.71.31-1.15,1.05-.3.5-.48,1.04-.48,1.4,0,.24.18.42.38.42.35,0,.67-.25,1.03-.84Z"/>
    <path class="cls-1" d="M108.17,46.36c.12-.32.11-.55-.16-.55h-.29s-.04-.03-.04-.07l.05-.21s.03-.04.07-.04h1.39c.08,0,.1.05.07.13l-1.82,4.92c-.09.23-.18.54,0,.54s.54-.34.65-.47c.04-.02.05-.02.09.02l.11.09s.04.05,0,.11c-.04.05-.81.83-1.6.83-.16,0-.31-.14-.31-.32,0-.14.2-.65.29-.9l1.5-4.07Z"/>
    <path class="cls-1" d="M112.73,47.8c.05,0,.07.04.05.09-.16.38-.59,1.53-.67,1.76-.04.16-.38,1.21-.38,1.31,0,.09.04.11.11.11.13,0,.49-.43.56-.52.04-.04.05-.05.09-.03l.11.08s.02.05,0,.11c-.09.18-.72.94-1.42.94-.2,0-.29-.09-.29-.23,0-.13.05-.32.38-1.26l-.05-.02c-.38.56-1.12,1.51-1.85,1.51-.23,0-.56-.27-.56-.65,0-1.21,1.26-3.19,2.47-3.19.4,0,.58.16.68.31l.14-.25c.04-.05.09-.07.14-.07h.49ZM111.38,49.38c.13-.25.22-.52.22-.81,0-.14-.16-.4-.41-.4-.23,0-.5.22-.74.55-.5.71-.76,1.52-.76,2.03,0,.2.07.29.22.29.34,0,1.31-1.31,1.48-1.66Z"/>
    <path class="cls-1" d="M113.4,51.56c-.05,0-.09-.04-.07-.07l.45-1.46c.13-.45.43-1.37.43-1.53,0-.07-.07-.14-.16-.14-.16,0-.52.34-.65.52-.02.04-.05.04-.09.02l-.11-.07s-.02-.05,0-.09c.16-.27.68-.92,1.42-.92.27,0,.36.18.36.34s-.16.63-.36,1.22l.06.04c.23-.5.87-1.6,1.47-1.6.25,0,.47.18.47.45s-.22.5-.38.5c-.11,0-.2-.02-.27-.07-.07-.05-.13-.11-.25-.11-.25,0-.76.74-1.03,1.26-.09.2-.19.43-.29.74l-.31.92s-.05.05-.11.05h-.59Z"/>
    <path class="cls-1" d="M118.32,46.36c.12-.32.11-.55-.16-.55h-.29s-.04-.03-.04-.07l.05-.21s.03-.04.07-.04h1.39c.08,0,.1.05.07.13l-1.82,4.92c-.09.23-.18.54,0,.54s.54-.34.65-.47c.04-.02.05-.02.09.02l.11.09s.04.05,0,.11c-.04.05-.81.83-1.6.83-.16,0-.31-.14-.31-.32,0-.14.2-.65.29-.9l1.5-4.07Z"/>
    <path class="cls-1" d="M120.93,51.34c.16-.29.7-1.35.81-1.8.04-.14.11-.36.11-.58,0-.16-.04-.31-.07-.41-.04-.11-.09-.23-.09-.36,0-.16.13-.38.45-.38.34,0,.45.25.45.58,0,.4-.32,1.19-.63,1.8-.45.88-1.4,2.47-2.19,3.22-.26.25-.8.82-1.36.82-.4,0-.58-.22-.58-.47,0-.27.22-.45.42-.47.16,0,.23.07.32.16.07.07.18.13.25.13.09,0,.23-.04.4-.15.41-.3.75-.8.89-1.03.1-.16.13-.38.09-.61-.02-.29-.22-2.68-.33-3.08-.04-.16-.06-.23-.17-.23-.16,0-.4.45-.47.65-.02.05-.04.05-.08.04l-.14-.04s-.04-.04-.02-.11c.04-.11.41-1.21,1.21-1.21.32,0,.5.23.56.99.07,1.03.11,2.09.12,2.54h.04Z"/>
    <path class="cls-1" d="M125.12,53.32c-.16.47-.07.61.27.61h.25c.05,0,.07.04.05.08l-.04.19s-.04.05-.12.05c-.09,0-.36-.03-1.04-.03-.74,0-.97.03-1.08.03-.05,0-.07-.02-.06-.05l.04-.2s.04-.07.07-.07h.22c.31,0,.5-.19.68-.7l1.68-4.77c-.42.11-.87.52-1.04.74-.04.04-.07.04-.11,0l-.11-.08s-.02-.05,0-.09c.25-.31.68-.79,1.42-1.06l.28-.86c.02-.07.05-.11.14-.13l.8-.25s.04-.02.07-.02c.02,0,.04.02.04.04,0,.02-.02.05-.03.07l-.45,1.01c.14-.02.24-.02.33-.02.86,0,1.31.56,1.31,1.2s-.29,1.29-1.1,1.88c-.43.31-1.15.59-1.89.67l-.61,1.76ZM125.86,51.24c.88-.13,2-.9,2-1.99,0-.73-.34-1-.67-1-.09,0-.18,0-.27.03l-1.06,2.96Z"/>
    <path class="cls-1" d="M132.48,47.96c.02-.05.07-.05.13-.05h.61c.09,0,.11.04.09.11l-.63,1.84c-.25.72-.36,1.08-.36,1.13,0,.09.04.11.09.11.13,0,.47-.34.59-.5.02-.04.05-.04.09,0l.11.08s.02.05,0,.09c-.09.14-.74.9-1.5.9-.18,0-.29-.11-.29-.27,0-.13.4-1.15.5-1.41l-.06-.04c-.36.51-1.22,1.72-2.11,1.72-.22,0-.41-.23-.41-.41,0-.34.22-.81.58-1.63.25-.56.39-.98.39-1.11,0-.09-.07-.14-.16-.14-.14,0-.49.31-.65.49-.02.04-.07.04-.1,0l-.1-.09s-.02-.04,0-.07c.14-.16.73-.86,1.49-.86.25,0,.38.2.38.38,0,.22-.17.69-.51,1.5-.23.53-.42,1.02-.42,1.2,0,.09.07.14.14.14.31,0,1.19-1.06,1.42-1.44.16-.25.3-.49.42-.83l.27-.81Z"/>
    <path class="cls-1" d="M136.58,45.48c.09,0,.11.07.07.15l-1.46,3.26.07.02c.41-.58.99-1.1,1.64-1.1.43,0,.67.36.67.73,0,.46-.23,1.34-1.08,2.21-.49.5-1.06.9-2.07.9-.41,0-.72-.23-.72-.63,0-.16.07-.4.13-.54.59-1.49,1.19-2.93,1.75-4.31.04-.1.05-.16.05-.22,0-.09-.09-.14-.22-.14h-.27c-.05,0-.09-.02-.07-.07l.05-.18c.02-.05.04-.07.09-.07h1.37ZM135.16,49.47c-.32.49-.61,1.24-.61,1.51,0,.22.11.31.32.31.25,0,.61-.23.93-.57.57-.62.89-1.34.89-1.96,0-.26-.13-.41-.27-.41-.27,0-.81.45-1.26,1.12Z"/>
    <path class="cls-1" d="M139.62,46.36c.12-.32.11-.55-.16-.55h-.29s-.04-.03-.04-.07l.05-.21s.03-.04.07-.04h1.39c.08,0,.1.05.07.13l-1.82,4.92c-.09.23-.18.54,0,.54s.54-.34.65-.47c.04-.02.05-.02.09.02l.11.09s.04.05,0,.11c-.04.05-.81.83-1.6.83-.16,0-.31-.14-.31-.32,0-.14.2-.65.29-.9l1.5-4.07Z"/>
    <path class="cls-1" d="M141.63,50.41c-.13.34-.16.49-.16.58,0,.07.04.13.11.13.18-.02.65-.5.7-.58.02-.04.05-.04.08,0l.1.1s.05.05.02.09c-.05.07-.68.94-1.67.94-.19,0-.26-.11-.26-.25,0-.18.14-.6.5-1.6l.25-.7c.09-.24.14-.41.14-.52,0-.07-.04-.11-.11-.11-.14,0-.56.47-.68.61-.04.04-.07.04-.11,0l-.09-.08s-.05-.04-.04-.08c.05-.05.86-1.1,1.66-1.1.22,0,.32.11.32.29s-.12.51-.27.94l-.5,1.37ZM141.79,46.24c0-.24.23-.49.5-.49.36,0,.55.23.55.45,0,.21-.21.52-.53.52-.36,0-.52-.26-.52-.49Z"/>
    <path class="cls-1" d="M143.65,51.65c-.59,0-.9-.22-.9-.52,0-.22.14-.38.34-.38.22,0,.36.14.43.36.05.14.13.23.29.23.25,0,.45-.2.45-.58.02-.31-.22-.57-.41-.89-.18-.31-.35-.53-.33-.91,0-.58.49-1.15,1.33-1.15.31,0,.7.13.7.5,0,.23-.14.38-.34.38-.16,0-.31-.07-.36-.31-.04-.11-.07-.25-.22-.25-.18,0-.38.13-.38.52,0,.31.31.67.41.81.18.24.34.56.34.97,0,.7-.56,1.21-1.37,1.21Z"/>
    <path class="cls-1" d="M147.47,49.13c.43-.65,1.03-1.31,1.71-1.31.56,0,.72.43.72.84,0,.66-.27,1.41-.59,1.99-.4.72-.9,1.21-1.49,1.21-.29,0-.52-.2-.52-.49,0-.22.14-.45.38-.45.22,0,.31.16.32.31.02.13.05.24.18.24.2,0,.4-.57.54-1.04.18-.52.34-1.19.34-1.61,0-.21-.05-.42-.27-.42-.4,0-1.06.76-1.31,1.08-.22.29-.4.61-.5.92l-.47,1.1c-.02.05-.04.07-.11.07h-.58c-.08,0-.1-.05-.07-.13l1.93-5.02c.07-.19.12-.34.12-.42,0-.11-.12-.18-.28-.18h-.27s-.07-.04-.05-.09l.04-.16c.02-.05.04-.07.13-.07h1.42c.07,0,.11.04.11.09s-.04.14-.09.28l-1.37,3.22.05.05Z"/>
    <path class="cls-1" d="M151.66,50.41c-.13.34-.16.49-.16.58,0,.07.04.13.11.13.18-.02.65-.5.7-.58.02-.04.05-.04.08,0l.1.1s.05.05.02.09c-.05.07-.68.94-1.67.94-.19,0-.26-.11-.26-.25,0-.18.14-.6.5-1.6l.25-.7c.09-.24.14-.41.14-.52,0-.07-.04-.11-.11-.11-.14,0-.56.47-.68.61-.04.04-.07.04-.11,0l-.09-.08s-.05-.04-.04-.08c.05-.05.86-1.1,1.66-1.1.22,0,.32.11.32.29s-.12.51-.27.94l-.5,1.37ZM151.81,46.24c0-.24.23-.49.5-.49.36,0,.55.23.55.45,0,.21-.21.52-.53.52-.36,0-.52-.26-.52-.49Z"/>
    <path class="cls-1" d="M153.94,51.51s-.04.05-.13.05h-.58c-.08,0-.09-.06-.07-.12l.61-1.67c.2-.58.42-1.13.42-1.26,0-.09-.05-.14-.14-.14-.16,0-.51.32-.66.47-.02.04-.05.04-.08,0l-.1-.1s-.05-.05-.02-.09c.13-.16.72-.85,1.54-.85.26,0,.34.18.34.31,0,.2-.26.81-.42,1.21l.05.04c.27-.41,1.1-1.55,1.95-1.55.33,0,.51.25.51.5,0,.23-.12.66-.49,1.58-.23.59-.36.94-.36,1.06,0,.09.04.14.11.14.13,0,.47-.31.56-.43.04-.02.07-.02.11.02l.09.07s.04.05,0,.11c-.11.14-.74.77-1.5.77-.2,0-.31-.11-.31-.27s.25-.77.54-1.57c.13-.38.39-1.06.39-1.17,0-.14-.08-.22-.21-.22-.27,0-1.03.72-1.4,1.33-.18.29-.34.56-.49.92l-.29.83Z"/>
    <path class="cls-1" d="M157.02,53.12c0-.29.11-.47.38-.68.36-.31.86-.5,1.13-.61-.27-.2-.34-.36-.34-.54,0-.2.25-.41.77-.67l.02-.04c-.41-.16-.74-.43-.74-1.05,0-.67.63-1.71,1.76-1.71.54,0,.79.29.88.39.14-.11.45-.3.76-.3.29,0,.4.23.4.4s-.11.32-.32.32c-.14,0-.23-.05-.31-.13-.04-.05-.09-.09-.16-.09s-.18.05-.22.11c.04.11.05.31.05.46,0,.43-.38,1.48-1.42,1.64-.2.04-.32.05-.34.05-.18.09-.38.27-.38.41,0,.09.11.2.18.25.16.12.61.34,1.24.72.54.32.68.63.68.9,0,.22-.09.65-.65.95-.34.2-.76.32-1.44.32-1.06,0-1.94-.54-1.94-1.12ZM160.19,53.28c0-.4-.25-.57-.63-.79-.09-.05-.67-.4-.8-.49-.55.25-.89.56-.89.97,0,.63.65.94,1.31.94.45,0,1.01-.21,1.01-.63ZM160.28,48.65c0-.35-.07-.55-.32-.55-.2,0-.34.11-.5.35-.35.56-.41.92-.41,1.38,0,.34.11.5.32.5.56,0,.9-1.04.9-1.68Z"/>
  </g>
  <g>
    <path class="cls-1" d="M14.74,21.37c0,1.91.09,3.49.11,3.83.02.56.16.83.56.83h.29c.09,0,.09.04.09.1v.26c0,.07,0,.09-.09.09-.11,0-.79-.03-1.21-.03-.29,0-1.06.03-1.17.03-.04,0-.07-.02-.07-.1v-.28s.02-.07.07-.07h.38c.29,0,.45-.25.51-.93.01-.2.08-1.78.08-3.58v-1.43c0-.67-.38-1.19-.88-1.19h-.36s-.07-.03-.07-.08v-.3s.02-.07.07-.07c.06,0,.15.01.35.02.2.01.51.01,1,.01.19,0,.36-.01.5-.02.15,0,.25-.01.31-.01.13,0,.2.03.27.1.11.11,2.32,2.88,2.54,3.19.16.18,1.91,2.36,2.09,2.59h.04v-1.17c0-.99,0-1.55-.02-2.11-.02-.43-.07-1.53-.12-1.72-.08-.27-.33-.43-.6-.43h-.36c-.07,0-.07-.04-.07-.1v-.26c0-.07,0-.09.09-.09.14,0,.5.03,1.26.03.67,0,.94-.03,1.08-.03.09,0,.11.04.11.08v.26c0,.07-.02.11-.07.11h-.31c-.22,0-.34.18-.37.6-.06.76-.17,2.65-.17,3.8v2.97c0,.16,0,.31-.14.31-.16,0-.29-.09-.38-.18-.09-.11-.7-.81-1.39-1.64-.79-.97-1.66-2.02-1.8-2.2-.16-.16-1.96-2.41-2.09-2.56h-.07v1.37Z"/>
    <path class="cls-1" d="M26.54,23.2c.01.61.03,1.71.03,1.91,0,.58.2.81.45.88.18.04.45.09.88.09.2,0,.72-.02.94-.04.2-.02.63-.14.92-.38.2-.18.83-.92,1.05-1.19.04-.06.08-.07.12-.04l.18.11s.04.06.02.11l-.54,1.69c-.03.1-.11.17-.25.17-.06,0-.3-.01-1-.02-.71,0-1.87-.01-3.74-.01-.42,0-.72.01-.96.01-.23.01-.38.02-.48.02-.07,0-.09-.02-.09-.09v-.27c0-.07.02-.09.11-.09h.38c.52,0,.56-.07.56-.48v-3.78c0-.92-.02-2.32-.04-2.47-.04-.3-.16-.39-.49-.39h-.43s-.07-.02-.07-.08v-.29c0-.06.01-.08.07-.08.25,0,.65.04,1.57.03h.31c.49,0,3.08-.02,3.58-.02.18,0,.39-.01.45-.01s.08.02.09.07c.04.15.47,1.68.52,1.79.02.07.01.1-.03.12l-.2.09s-.07,0-.1-.06c-.04-.07-.97-1.1-1.24-1.26-.24-.14-.54-.28-.85-.29l-1.71-.04-.02,3.25c.34,0,1.15-.02,1.28-.06.25-.04.38-.14.52-.4.07-.15.18-.43.18-.63,0-.07.04-.09.09-.09l.29.02s.08.02.07.09c-.02.18-.02.92-.02,1.21,0,.45.04.99.07,1.24,0,.06-.02.07-.09.08l-.25.04s-.07-.01-.09-.08c-.04-.18-.12-.43-.18-.56-.1-.22-.31-.38-.56-.4-.4-.04-.94-.07-1.3-.07v.67Z"/>
    <path class="cls-1" d="M33.5,19.32c-.11-.31-.29-.4-.47-.4h-.31s-.07-.03-.07-.08v-.29c0-.06.03-.08.09-.08.09,0,.43.03,1.44.03.81,0,1.28-.03,1.39-.03.07,0,.09.02.09.08v.28c0,.06-.02.09-.1.09h-.21c-.22,0-.35.16-.27.39l1.65,5.2h.02c.09-.23,1.59-4.36,1.61-4.79,0-.2-.09-.45-.2-.6-.09-.14-.25-.2-.38-.2h-.24s-.08-.02-.08-.08v-.28c0-.06.02-.09.09-.09.09,0,.5.03,1.46.03s1.37-.03,1.47-.03c.07,0,.08.03.08.1v.26c0,.06-.02.09-.08.09h-.39c-.22,0-.3.25-.25.44l1.62,5.2h.04c.34-.99,1.62-4.7,1.62-5.32,0-.16-.11-.31-.38-.31h-.3c-.07,0-.08-.03-.08-.09v-.27c0-.06.02-.09.09-.09.11,0,.49.03,1.19.03.63,0,.97-.03,1.06-.03.04,0,.07.02.07.06v.3c0,.06-.01.09-.08.09h-.24c-.18,0-.38.11-.5.37-.11.25-2.41,6.54-2.63,7.11-.04.11-.13.29-.29.29s-.24-.11-.28-.25l-2.04-5.92h-.04c-.1.31-2.09,5.83-2.14,5.95-.05.11-.16.21-.29.21-.11,0-.19-.07-.23-.18l-2.52-7.19Z"/>
  </g>
  <g>
    <path class="cls-1" d="M121.41,21.22c0-.74,0-1.93-.01-2.06-.02-.19-.15-.25-.39-.25h-.58s-.07-.02-.07-.08v-.28c0-.07.02-.09.07-.09.14,0,.54.03,1.66.03.2,0,.85-.03,1.24-.03,1.35,0,2,.12,2.65.57.52.38.85,1.01.85,1.71,0,1.39-1.08,2.27-2.99,2.27-.38,0-.72,0-1.01-.04v.5c0,.54,0,2.07.01,2.22.03.25.15.36.35.36h.63c.09,0,.09.04.09.08v.26c0,.07,0,.11-.09.11-.16,0-.52-.03-1.73-.03-.99,0-1.44.03-1.55.03-.09,0-.09-.04-.09-.08v-.28c0-.07,0-.09.07-.09h.36c.38,0,.47-.04.51-.35.01-.11.03-1.87.03-3.17v-1.3ZM122.83,22.57c.2.07.52.09.81.09.49,0,1.08-.38,1.35-.76.23-.34.27-.76.27-1.17,0-1.53-1.24-1.88-1.78-1.88-.2,0-.47-.01-.65.08v3.64Z"/>
    <path class="cls-1" d="M131.52,23.51c0,.67.02,1.93.04,2.1.03.22.11.43.29.43h.56c.07,0,.09.03.09.08v.27c0,.08-.03.1-.12.1-.15,0-.37-.03-1.54-.03-1.1,0-1.37.03-1.48.03-.07,0-.09-.03-.09-.1v-.26c0-.06.02-.09.07-.09h.38c.25,0,.43-.07.43-.37.02-1.12.02-2.18.02-3.24v-2.96c0-.38-.16-.56-.36-.56h-.44c-.06,0-.08-.02-.08-.07v-.3c0-.06.02-.08.08-.08.08,0,.44.03,1.54.03.63,0,1.66-.03,2-.03.9,0,1.6.3,2.05.71.4.36.61.83.61,1.26,0,1.42-.85,2-2.09,2.2v.04c.31.11.52.31.67.52.14.18.83,1.24.92,1.37.07.11.79,1.12.96,1.28.21.19.53.21.8.21.07,0,.09.03.09.08v.24c0,.08-.02.11-.09.11-.09,0-.38-.03-1.1-.03-.31,0-.74.02-.99.03-.14-.1-.35-.4-.5-.64-.2-.31-.64-1.12-.74-1.3-.11-.2-.43-.72-.61-.97-.28-.39-.54-.7-1.01-.7-.04,0-.24.01-.36.02v.61ZM131.55,22.5c.16.02.29.04.43.04,1.75,0,2.11-1.42,2.11-1.93s-.21-1-.49-1.26c-.41-.36-.92-.48-1.48-.48-.18,0-.31.01-.4.07-.09.06-.13.19-.13.33l-.02,3.24Z"/>
    <path class="cls-1" d="M141.27,23.2c.01.61.03,1.71.03,1.91,0,.58.2.81.45.88.18.04.45.09.88.09.2,0,.72-.02.94-.04.2-.02.63-.14.92-.38.2-.18.83-.92,1.05-1.19.04-.06.08-.07.12-.04l.18.11s.04.06.02.11l-.54,1.69c-.03.1-.11.17-.25.17-.06,0-.3-.01-1-.02-.71,0-1.87-.01-3.74-.01-.42,0-.72.01-.96.01-.23.01-.38.02-.48.02-.07,0-.09-.02-.09-.09v-.27c0-.07.02-.09.11-.09h.38c.52,0,.56-.07.56-.48v-3.78c0-.92-.02-2.32-.04-2.47-.04-.3-.16-.39-.49-.39h-.43s-.07-.02-.07-.08v-.29c0-.06.01-.08.07-.08.25,0,.65.04,1.57.03h.31c.49,0,3.08-.02,3.58-.02.18,0,.39-.01.45-.01s.08.02.09.07c.04.15.47,1.68.52,1.79.02.07.01.1-.03.12l-.2.09s-.07,0-.1-.06c-.04-.07-.97-1.1-1.24-1.26-.24-.14-.54-.28-.85-.29l-1.71-.04-.02,3.25c.34,0,1.15-.02,1.28-.06.25-.04.38-.14.52-.4.07-.15.18-.43.18-.63,0-.07.04-.09.09-.09l.29.02s.08.02.07.09c-.02.18-.02.92-.02,1.21,0,.45.04.99.07,1.24,0,.06-.02.07-.09.08l-.25.04s-.07-.01-.09-.08c-.04-.18-.12-.43-.18-.56-.1-.22-.31-.38-.56-.4-.4-.04-.94-.07-1.3-.07v.67Z"/>
    <path class="cls-1" d="M148.8,23.95s.07.02.07.09c.02.36.11.79.43,1.28.34.54.92.81,1.48.81.61,0,1.46-.38,1.46-1.32,0-1.03-.47-1.37-1.66-1.82-.36-.13-1.1-.45-1.64-.94-.38-.36-.56-.92-.56-1.61,0-.63.25-1.15.79-1.57.45-.38.94-.54,1.6-.54.74,0,1.19.18,1.42.27.11.04.18.02.24-.03l.15-.15s.09-.07.16-.07.09.07.09.18c0,.18.18,1.75.18,1.87,0,.04-.02.07-.07.08l-.18.06s-.09,0-.11-.07c-.11-.31-.29-.76-.7-1.19-.29-.31-.65-.47-1.17-.47-.9,0-1.26.72-1.26,1.14,0,.38.04.72.31,1.01.29.29.92.56,1.37.7.65.2,1.19.43,1.62.88.36.38.56.85.56,1.61,0,1.37-.9,2.5-2.38,2.5-.92,0-1.46-.2-1.91-.54-.13-.09-.2-.13-.27-.13s-.11.09-.18.2c-.07.11-.11.14-.2.14s-.13-.07-.13-.18c.02-.13.18-1.96.2-2.09.01-.07.02-.09.07-.09l.25.02Z"/>
    <path class="cls-1" d="M156.7,23.95s.07.02.07.09c.02.36.11.79.43,1.28.34.54.92.81,1.48.81.61,0,1.46-.38,1.46-1.32,0-1.03-.47-1.37-1.66-1.82-.36-.13-1.1-.45-1.64-.94-.38-.36-.56-.92-.56-1.61,0-.63.25-1.15.79-1.57.45-.38.94-.54,1.6-.54.74,0,1.19.18,1.42.27.11.04.18.02.24-.03l.15-.15s.09-.07.16-.07.09.07.09.18c0,.18.18,1.75.18,1.87,0,.04-.02.07-.07.08l-.18.06s-.09,0-.11-.07c-.11-.31-.29-.76-.7-1.19-.29-.31-.65-.47-1.17-.47-.9,0-1.26.72-1.26,1.14,0,.38.04.72.31,1.01.29.29.92.56,1.37.7.65.2,1.19.43,1.62.88.36.38.56.85.56,1.61,0,1.37-.9,2.5-2.38,2.5-.92,0-1.46-.2-1.91-.54-.13-.09-.2-.13-.27-.13s-.11.09-.18.2c-.07.11-.11.14-.2.14s-.13-.07-.13-.18c.02-.13.18-1.96.2-2.09.01-.07.02-.09.07-.09l.25.02Z"/>
  </g>
  <path class="cls-1" d="M13.47,50.32s33.23-17.04,82.64-19.1c49.4-2.06,67.35,10.39,67.35,10.39,0,0-18.46-8.48-68.03-6.41-50.68,2.12-81.96,15.12-81.96,15.12Z"/>
  <g>
    <path class="cls-1" d="M53.88,31.18c.02,1.45.2,1.55.7,1.55h.9c.15,0,.2.07.2.2v.53c0,.15-.05.2-.25.2s-.95-.08-2.9-.08c-1.65,0-2.55.08-2.75.08-.15,0-.2-.05-.2-.2v-.55c0-.1.05-.17.15-.17h.9c.35,0,.5-.25.55-.65.05-.55.05-1.55.05-3.45v-8.62c0-.75-.1-1.1-.85-1.5l-.55-.3c-.15-.1-.2-.15-.2-.25v-.25c0-.1.05-.15.2-.2l2.85-1.25c.3-.12.5-.2.7-.2.12,0,.2.15.22.32l.17,1.22h.05c.65-.8,1.95-1.55,3.4-1.55,1.2,0,2.1.45,2.9,1.25,1,1.05,1.35,2,1.35,3.57,0,3.6-2.4,6.2-5.45,6.2-.55,0-1.45-.1-2.2-.45l.05,4.55ZM53.83,24.13c0,.55.15,1.1.65,1.4.5.4,1.15.57,1.95.57,1.2,0,2.42-1,2.47-3.62,0-2.32-.8-4.97-2.92-4.97-.8,0-1.65.4-2.15,1.1v5.52Z"/>
    <path class="cls-1" d="M64.3,20.35c0-1.15-.2-1.55-.95-1.95l-.45-.25c-.15-.05-.2-.1-.2-.2v-.15c0-.1.05-.15.2-.22l3.02-1.42c.15-.05.25-.1.4-.1s.2.15.23.3l.22,1.85h.1c.85-1.4,1.9-2.25,3-2.25.8,0,1.3.55,1.3,1.25s-.7,1.35-1.35,1.35c-.35,0-.65-.1-.85-.2-.2-.15-.45-.2-.7-.2-.3,0-.75.2-1.05.73-.2.35-.3.9-.3,1.22v4.77c0,.8.2,1.05.7,1.05h1.1c.15,0,.2.05.2.17v.58c0,.12-.05.17-.17.17-.17,0-1.27-.08-3.1-.08s-2.72.08-2.92.08c-.12,0-.17-.05-.17-.17v-.55c0-.15.05-.2.22-.2h.88c.4,0,.65-.2.65-.67v-4.9Z"/>
    <path class="cls-1" d="M77.33,25.55c-.55.6-1.2,1.03-2.17,1.35-.57.17-1.1.17-1.6.17-.92,0-1.72-.75-1.72-2.15,0-1.15.5-2.27,2.3-3.07,1.55-.75,2.5-1.15,3.05-1.55v-1.3c-.05-.5-.1-1.1-.4-1.4-.25-.27-.7-.38-1.25-.38-.45,0-1.05.15-1.45.45-.35.25-.1.62-.1,1.22,0,.9-.45,1.45-1.5,1.45-.45,0-.85-.3-.85-.85,0-.7.4-1.5,1.15-2.05,1.05-.8,2.4-1.4,4.05-1.4,1.4,0,1.85.3,2.3.7.55.5.6,1.2.6,1.88l.05,3.95v1.2c0,1.35.2,1.75.65,1.75.35,0,.7-.2.8-.4.1-.15.15-.15.25-.1l.3.2c.1.05.15.15.05.4-.25.45-.85,1.45-2.3,1.45-.95,0-1.75-.45-2.1-1.52h-.1ZM77.18,21.23c-1.1.7-2.75,1.12-2.75,2.95,0,1.02.55,1.52,1.15,1.52.7-.05,1.6-.75,1.6-1.2v-3.27Z"/>
    <path class="cls-1" d="M84.03,19.65c0-.75-.15-1.25-1.3-1.55-.23-.05-.25-.12-.25-.22v-.28c0-.1.05-.15.17-.2.35-.15,2.82-1.03,3.25-1.2.25-.1.45-.15.6-.15s.23.1.2.3c-.05.4-.05,2-.05,4.07v2.7c0,.95,0,1.85.05,2.15.05.45.15.65.4.65h1c.2,0,.25.05.25.17v.5c0,.15-.05.25-.2.25-.2,0-1.35-.08-3.02-.08-1.45,0-2.4.08-2.7.08-.12,0-.2-.05-.2-.25v-.47c0-.15.1-.2.25-.2h1.1c.25,0,.38-.1.4-.5.03-.75.05-1.55.05-2.25v-3.52ZM84.88,13.53c-.8,0-1.6-.62-1.6-1.5,0-.75.72-1.55,1.75-1.55s1.55.85,1.55,1.45c0,.75-.52,1.6-1.7,1.6Z"/>
    <path class="cls-1" d="M90.85,20.35c0-1.15-.2-1.55-.95-1.95l-.45-.25c-.15-.05-.2-.1-.2-.2v-.15c0-.1.05-.15.2-.22l3.02-1.42c.15-.05.25-.1.4-.1s.2.15.23.3l.22,1.85h.1c.85-1.4,1.9-2.25,3-2.25.8,0,1.3.55,1.3,1.25s-.7,1.35-1.35,1.35c-.35,0-.65-.1-.85-.2-.2-.15-.45-.2-.7-.2-.3,0-.75.2-1.05.73-.2.35-.3.9-.3,1.22v4.77c0,.8.2,1.05.7,1.05h1.1c.15,0,.2.05.2.17v.58c0,.12-.05.17-.17.17-.17,0-1.27-.08-3.1-.08s-2.72.08-2.92.08c-.12,0-.17-.05-.17-.17v-.55c0-.15.05-.2.22-.2h.88c.4,0,.65-.2.65-.67v-4.9Z"/>
    <path class="cls-1" d="M100,19.65c0-.75-.15-1.25-1.3-1.55-.23-.05-.25-.12-.25-.22v-.28c0-.1.05-.15.17-.2.35-.15,2.82-1.03,3.25-1.2.25-.1.45-.15.6-.15s.23.1.2.3c-.05.4-.05,2-.05,4.07v2.7c0,.95,0,1.85.05,2.15.05.45.15.65.4.65h1c.2,0,.25.05.25.17v.5c0,.15-.05.25-.2.25-.2,0-1.35-.08-3.02-.08-1.45,0-2.4.08-2.7.08-.12,0-.2-.05-.2-.25v-.47c0-.15.1-.2.25-.2h1.1c.25,0,.38-.1.4-.5.03-.75.05-1.55.05-2.25v-3.52ZM100.85,13.53c-.8,0-1.6-.62-1.6-1.5,0-.75.72-1.55,1.75-1.55s1.55.85,1.55,1.45c0,.75-.52,1.6-1.7,1.6Z"/>
    <path class="cls-1" d="M107.33,21.23c0,2.55,1.82,4.05,3.25,4.05,1.55,0,2.5-.65,3.02-1.45.1-.17.2-.17.3-.12l.38.23c.12.07.17.17,0,.5-.52.95-1.8,2.65-4.55,2.65-1.6,0-2.72-.35-3.6-1.35-1.15-1.32-1.4-2.57-1.4-4.12,0-1.37.15-2.3,1.22-3.7,1.05-1.35,2.17-1.85,4.35-1.85,2.85,0,3.77,2.97,3.77,4,0,.37-.25.4-.7.4h-6.05v.77ZM110.43,19.55c.52,0,.82-.15.82-.35,0-.75-.25-2.22-1.55-2.22-1.22,0-1.97.9-2.3,2.57h3.02Z"/>
  </g>
</svg>