<svg id="Layer_1" data-name="Layer 1" xmlns="http://www.w3.org/2000/svg" viewBox="0 0 281.24 446.02"><defs><style>.cls-1{fill:#f37d21;}</style></defs><path class="cls-1" d="M21.64,119.26v16.29H69.39V119.26a71.5,71.5,0,1,1,143,0V237.07h47.75V119.26a119.25,119.25,0,1,0-238.5,0Z"/><path class="cls-1" d="M180.48,305.83a39.4,39.4,0,1,1-39.4-39.41A39.4,39.4,0,0,1,180.48,305.83Z"/><path class="cls-1" d="M0,305.4C0,382.93,63.09,446,140.61,446S281.24,382.93,281.24,305.4,218.16,164.78,140.61,164.78,0,227.85,0,305.4Zm47.76,0a92.86,92.86,0,1,1,92.85,92.87A93,93,0,0,1,47.76,305.4Z"/></svg>