<svg id="Layer_1" data-name="Layer 1" xmlns="http://www.w3.org/2000/svg" viewBox="0 0 225 337"><title>Book cover not available</title><defs><style>.cls-1{fill:#b3b3b3;}</style></defs><rect class="cls-1" width="225" height="337"/><path d="M76.13,98.27a5.43,5.43,0,0,0-4.64,2.24,10.5,10.5,0,0,0-1.64,6.27q0,8.35,6.28,8.35a19.7,19.7,0,0,0,6.37-1.31v4.44a17.6,17.6,0,0,1-6.87,1.28q-5.44,0-8.34-3.3t-2.89-9.5a15.56,15.56,0,0,1,1.42-6.82,10.26,10.26,0,0,1,4.08-4.5,12.06,12.06,0,0,1,6.23-1.56,16.73,16.73,0,0,1,7.31,1.76l-1.71,4.3a28.37,28.37,0,0,0-2.82-1.16A8.36,8.36,0,0,0,76.13,98.27Z"/><path d="M104.77,109.61a10.25,10.25,0,0,1-2.46,7.3,8.91,8.91,0,0,1-6.86,2.63,9.61,9.61,0,0,1-4.85-1.2,8,8,0,0,1-3.23-3.46,11.69,11.69,0,0,1-1.13-5.27,10.23,10.23,0,0,1,2.45-7.28,9,9,0,0,1,6.87-2.59,9.71,9.71,0,0,1,4.85,1.19,8,8,0,0,1,3.23,3.44A11.53,11.53,0,0,1,104.77,109.61Zm-13.21,0a8,8,0,0,0,.93,4.29,3.33,3.33,0,0,0,3,1.46,3.27,3.27,0,0,0,3-1.45,8.11,8.11,0,0,0,.92-4.3,7.84,7.84,0,0,0-.93-4.25,3.92,3.92,0,0,0-6,0A7.93,7.93,0,0,0,91.56,109.61Z"/><path d="M113.62,119.2l-7.28-19.1h5.45L115.48,111a19.35,19.35,0,0,1,.77,3.92h.11a16.91,16.91,0,0,1,.76-3.92l3.68-10.88h5.45L119,119.2Z"/><path d="M137.63,119.54a9.85,9.85,0,0,1-7.21-2.54q-2.59-2.55-2.6-7.21c0-3.21.8-5.68,2.4-7.43a8.55,8.55,0,0,1,6.64-2.62,8.45,8.45,0,0,1,6.31,2.3,8.77,8.77,0,0,1,2.26,6.38V111H133.1a5,5,0,0,0,1.32,3.47,4.63,4.63,0,0,0,3.45,1.24,15,15,0,0,0,3.27-.35,16.21,16.21,0,0,0,3.21-1.15v4a12,12,0,0,1-2.92,1A18.7,18.7,0,0,1,137.63,119.54Zm-.73-16.09a3.31,3.31,0,0,0-2.6,1,4.82,4.82,0,0,0-1.08,3h7.32a4.37,4.37,0,0,0-1-3A3.42,3.42,0,0,0,136.9,103.45Z"/><path d="M160.33,99.74a8.67,8.67,0,0,1,1.76.15l-.4,4.89a5.67,5.67,0,0,0-1.53-.17,5.5,5.5,0,0,0-3.89,1.28,4.62,4.62,0,0,0-1.39,3.59v9.72h-5.22V100.1h4l.77,3.21h.26a7.19,7.19,0,0,1,2.4-2.59A5.87,5.87,0,0,1,160.33,99.74Z"/><path d="M105.25,161.2H98.51L87.64,142.3h-.15q.33,5,.33,7.14V161.2H83.08v-25h6.68l10.86,18.71h.12c-.18-3.25-.26-5.54-.26-6.89V136.22h4.77Z"/><path d="M128.49,151.61a10.25,10.25,0,0,1-2.46,7.3,8.91,8.91,0,0,1-6.85,2.63,9.62,9.62,0,0,1-4.86-1.2,8,8,0,0,1-3.23-3.46,11.69,11.69,0,0,1-1.13-5.27,10.23,10.23,0,0,1,2.45-7.28,9,9,0,0,1,6.87-2.59,9.71,9.71,0,0,1,4.85,1.19,8,8,0,0,1,3.23,3.44A11.53,11.53,0,0,1,128.49,151.61Zm-13.21,0a8,8,0,0,0,.93,4.29,3.33,3.33,0,0,0,3,1.46,3.27,3.27,0,0,0,3-1.45,8.11,8.11,0,0,0,.92-4.3,7.84,7.84,0,0,0-.93-4.25,3.92,3.92,0,0,0-6,0A7.93,7.93,0,0,0,115.28,151.61Z"/><path d="M140.85,157.39a11.29,11.29,0,0,0,3.28-.6v3.88a11.75,11.75,0,0,1-4.79.87c-2.08,0-3.6-.52-4.55-1.58a6.87,6.87,0,0,1-1.43-4.74V146h-2.5V143.8l2.88-1.74,1.5-4h3.33v4.07h5.35V146h-5.35v9.21a2,2,0,0,0,.63,1.64A2.46,2.46,0,0,0,140.85,157.39Z"/><path d="M50.43,203.2l-1.81-5.95H39.51L37.7,203.2H32l8.82-25.09h6.48l8.85,25.09Zm-3.08-10.39c-1.67-5.39-2.61-8.43-2.82-9.14s-.37-1.27-.46-1.68q-.55,2.19-3.23,10.82Z"/><path d="M63.42,203.2l-7.28-19.1h5.45L65.28,195a19.35,19.35,0,0,1,.77,3.92h.1a17.54,17.54,0,0,1,.77-3.92L70.6,184.1h5.45l-7.28,19.1Z"/><path d="M90.92,203.2l-1-2.6h-.14a7.59,7.59,0,0,1-2.71,2.3,8.72,8.72,0,0,1-3.63.64A5.86,5.86,0,0,1,79.1,202a6.06,6.06,0,0,1-1.58-4.48A5,5,0,0,1,79.65,193a12.28,12.28,0,0,1,6.41-1.6l3.32-.1v-.84q0-2.91-3-2.91A13.62,13.62,0,0,0,81,189l-1.72-3.52a15.49,15.49,0,0,1,7.31-1.73,9.12,9.12,0,0,1,5.9,1.68,6.19,6.19,0,0,1,2,5.09V203.2Zm-1.54-8.85-2,.07a6.42,6.42,0,0,0-3.38.82,2.57,2.57,0,0,0-1.11,2.29c0,1.47.84,2.2,2.53,2.2a4,4,0,0,0,2.89-1,3.64,3.64,0,0,0,1.09-2.77Z"/><path d="M99.7,179.16c0-1.7,1-2.55,2.84-2.55s2.84.85,2.84,2.55a2.46,2.46,0,0,1-.71,1.88,3,3,0,0,1-2.13.68C100.65,181.72,99.7,180.87,99.7,179.16Zm5.44,24H99.92V184.1h5.22Z"/><path d="M115.82,203.2H110.6V176.61h5.22Z"/><path d="M133.42,203.2l-1-2.6h-.14a7.57,7.57,0,0,1-2.7,2.3,8.73,8.73,0,0,1-3.64.64A5.87,5.87,0,0,1,121.6,202a6.06,6.06,0,0,1-1.58-4.48,5,5,0,0,1,2.13-4.48,12.34,12.34,0,0,1,6.42-1.6l3.31-.1v-.84q0-2.91-3-2.91a13.67,13.67,0,0,0-5.39,1.39l-1.72-3.52a15.55,15.55,0,0,1,7.31-1.73,9.1,9.1,0,0,1,5.9,1.68,6.16,6.16,0,0,1,2.05,5.09V203.2Zm-1.54-8.85-2,.07a6.42,6.42,0,0,0-3.38.82,2.57,2.57,0,0,0-1.11,2.29c0,1.47.84,2.2,2.53,2.2a4,4,0,0,0,2.9-1,3.67,3.67,0,0,0,1.08-2.77Z"/><path d="M153.06,183.74a6.17,6.17,0,0,1,5.29,2.64,12.07,12.07,0,0,1,1.92,7.23c0,3.16-.66,5.6-2,7.34a6.9,6.9,0,0,1-10.65.15h-.36l-.87,2.1h-4V176.61h5.21v6.19c0,.78-.07,2-.21,3.77h.21A6,6,0,0,1,153.06,183.74Zm-1.68,4.17a3.29,3.29,0,0,0-2.82,1.18,6.85,6.85,0,0,0-.92,3.93v.56a8.06,8.06,0,0,0,.91,4.41,3.27,3.27,0,0,0,2.9,1.33,2.89,2.89,0,0,0,2.55-1.48,7.89,7.89,0,0,0,.95-4.29,7.65,7.65,0,0,0-.95-4.23A3,3,0,0,0,151.38,187.91Z"/><path d="M169.79,203.2h-5.22V176.61h5.22Z"/><path d="M183.9,203.54a9.85,9.85,0,0,1-7.21-2.54q-2.59-2.55-2.6-7.21c0-3.21.8-5.68,2.4-7.43a8.55,8.55,0,0,1,6.64-2.62,8.45,8.45,0,0,1,6.31,2.3,8.77,8.77,0,0,1,2.26,6.38V195H179.37a5,5,0,0,0,1.32,3.47,4.63,4.63,0,0,0,3.45,1.24,15,15,0,0,0,3.27-.35,16.21,16.21,0,0,0,3.21-1.15v4a12,12,0,0,1-2.92,1A18.64,18.64,0,0,1,183.9,203.54Zm-.73-16.09a3.31,3.31,0,0,0-2.6,1.05,4.82,4.82,0,0,0-1.08,3h7.32a4.32,4.32,0,0,0-1-3A3.42,3.42,0,0,0,183.17,187.45Z"/></svg>