<?xml version="1.0" encoding="utf-8"?>
<!-- Generator: Adobe Illustrator 25.3.1, SVG Export Plug-In . SVG Version: 6.00 Build 0)  -->
<svg version="1.1" id="UMP-Logo-gray-2_xA0_Image_1_"
	 xmlns="http://www.w3.org/2000/svg" xmlns:xlink="http://www.w3.org/1999/xlink" x="0px" y="0px" viewBox="0 0 46 108"
	 style="enable-background:new 0 0 46 108;" xml:space="preserve">
<style type="text/css">
	.st0{fill:none;}
	.st1{fill:#00274C;}
</style>
<g>
	<path class="st0" d="M46,108.6c-15.3,0-30.7,0-46,0c0-36,0-72,0-108c15.3,0,30.7,0,46,0C46,36.6,46,72.6,46,108.6z M20,63.6
		c2.1,0,4.1,0,6.1,0c0-0.1,0-0.3,0-0.4c0-3.5,0-7,0-10.4c0-0.1,0-0.2,0-0.2c0-0.1,0.1-0.2,0.2-0.3c0.3-0.1,0.6-0.3,0.9-0.4
		c1.4-0.8,2.5-1.9,3.3-3.2s1.1-2.8,1.1-4.3c0-0.9-0.2-1.8-0.5-2.7c-0.5-1.3-1.2-2.5-2.2-3.4c-0.7-0.7-1.5-1.2-2.4-1.6
		c-0.4-0.2-0.3-0.1-0.3-0.5c0-1.8,0-3.6,0-5.4c0-0.5-0.1-1-0.2-1.5c-0.4-1.5-1.3-2.3-2.8-2.8c-0.5-0.2-1.1-0.2-1.6-0.3
		c-0.5,0-1,0-1.6,0c0,0.2,0,0.3,0,0.4c0,3.1,0,6.3,0,9.4c0,0.1,0,0.2,0,0.2c0,0.1,0,0.2-0.2,0.3c-1,0.4-1.8,0.9-2.6,1.6
		c-1,1-1.8,2.1-2.3,3.4c-0.4,1-0.5,2-0.5,3.1c0,0.7,0.1,1.4,0.3,2c0.5,1.7,1.4,3.1,2.8,4.3c0.7,0.6,1.4,1,2.2,1.3
		c0.2,0.1,0.3,0.2,0.2,0.4c0,0.1,0,0.2,0,0.2c0,3.4,0,6.9,0,10.3C20,63.3,20,63.4,20,63.6z M2,106.2c4.3,0,8.6,0,12.9,0
		c0-0.5,0-1,0-1.5c-1.1,0-2.2,0-3.3,0c0-6.1,0-12.3,0-18.4s0.1-12.2,0-18.3c-1.7,0.2-3.4,0.4-5.1,0.6c-1.7,0.1-3.4,0.2-5,0.3
		c0,0.5,0,1.1,0,1.6c0.5,0,1,0,1.5,0c0.4,0,0.9,0.1,1.2,0.4c0.5,0.3,0.7,0.8,0.8,1.4c0.1,0.4,0.1,0.8,0.1,1.2c0,0.5,0,1,0,1.5
		c0,9.7,0,19.5,0,29.2c0,0.1,0,0.2,0,0.3c0,0.1,0,0.1,0,0.2c-1.1,0-2.1,0-3.2,0C2,105.3,2,105.7,2,106.2z M13.7,70.6
		c0.1,0,0.2,0,0.3,0c0.3,0,0.5-0.1,0.8-0.1c1.1-0.1,2.1,0.1,3.2,0.5c0.9,0.4,1.5,1,1.8,2c0.1,0.4,0.2,0.9,0.2,1.4
		c0,10,0,20.1,0,30.1c0,0.1,0,0.1,0,0.2s0,0.1,0,0.2c-0.4,0-0.7,0-1.1,0c-0.3,0-0.7,0-1,0s-0.7,0-1,0c0,0.5,0,1,0,1.5
		c4.3,0,8.5,0,12.8,0c0-0.5,0-1,0-1.5c-1.1,0-2.1,0-3.2,0c0-0.2,0-0.3,0-0.4c0-8.3,0-16.6,0-24.9c0-1.4,0-2.8-0.1-4.2
		c-0.1-1.1-0.2-2.2-0.6-3.2c-0.6-1.5-1.6-2.5-3.1-3.1c-0.7-0.3-1.4-0.4-2.2-0.5c-0.9-0.1-1.7-0.2-2.6,0c-1,0.2-1.9,0.5-2.7,1
		C14.5,69.7,14.1,70.1,13.7,70.6z M40.9,104.8c0-0.2,0-0.3,0-0.5c0-8.5,0-17,0-25.5c0-0.7,0-1.3,0-2s0-1.4-0.1-2
		c-0.1-1-0.3-2-0.6-2.9s-0.9-1.6-1.6-2.2c-0.7-0.5-1.4-0.9-2.3-1.1c-0.7-0.2-1.4-0.3-2.1-0.3c-0.4,0-0.9,0-1.3,0
		c-0.8,0.1-1.5,0.3-2.3,0.6c-0.7,0.3-1.4,0.7-1.9,1.3c-0.1,0.1-0.2,0.2-0.2,0.3c0.2,0,0.3,0,0.4,0c0.4,0,0.9-0.1,1.3-0.1
		s0.7,0.1,1.1,0.1c0.5,0.1,1,0.2,1.5,0.4c0.7,0.3,1.2,0.8,1.5,1.6c0.2,0.5,0.3,1,0.3,1.6c0,10.1,0,20.1,0,30.2c0,0.1,0,0.2,0,0.2
		c0,0.1,0,0.1,0,0.2c-1.1,0-2.1,0-3.2,0c0,0.5,0,1,0,1.5c4.3,0,8.5,0,12.8,0c0-0.5,0-1,0-1.5C43,104.8,42,104.8,40.9,104.8z
		 M40.7,63.6c0-0.1,0-0.3,0-0.4c0-10.8,0-21.5,0-32.3c0-0.6-0.1-1.2-0.2-1.8c-0.4-1.4-1.3-2.3-2.7-2.7c-0.8-0.2-1.6-0.3-2.4-0.3
		c-0.3,0-0.5,0-0.8,0.1c0,12.5,0,24.9,0,37.4C36.6,63.6,38.6,63.6,40.7,63.6z M5.6,26.2c0,12.5,0,24.9,0,37.4c2,0,4.1,0,6.1,0
		c0-0.1,0-0.3,0-0.4c0-10.8,0-21.7,0-32.5c0-0.4,0-0.9-0.1-1.3c-0.2-0.9-0.6-1.7-1.4-2.3c-0.6-0.4-1.2-0.7-1.9-0.8
		C7.5,26.1,6.6,26.1,5.6,26.2z M7.4,8.7c0.3,0.1,31.5,0.1,31.7,0c-0.1,0-0.1-0.1-0.2-0.1c-1.8-0.7-3.5-1.5-5.3-2.2
		c-1.7-0.7-3.5-1.5-5.2-2.2c-1.6-0.7-3.1-1.3-4.7-2c-0.1-0.1-0.2,0-0.4,0c-1,0.4-2.1,0.8-3.1,1.3c-1.4,0.6-2.9,1.2-4.3,1.8
		C14.4,5.8,13,6.4,11.5,7c-1,0.4-2,0.8-3,1.2C8.1,8.3,7.8,8.5,7.4,8.7z M25.2,21c0-0.1,0-0.1,0-0.2c0-1.6,0-3.3,0-4.9
		c0-0.5-0.2-1-0.4-1.5c-0.5-0.9-1.3-1.3-2.2-1.4c-0.5-0.1-1.1-0.1-1.6-0.1c-0.1,0-0.2,0-0.3,0c-0.1,0.4,0,7.8,0,8.1
		C22.2,21,23.7,21,25.2,21z M11.8,21c0-0.1,0-0.2,0-0.3c0-1.4,0-2.8,0-4.3c0-0.4,0-0.8-0.1-1.1c-0.2-1.2-0.9-1.9-2-2.2
		c-0.7-0.2-1.5-0.2-2.2-0.2c-0.1,0-0.1,0-0.2,0.1c0,2.7,0,5.4,0,8C8.7,21,10.3,21,11.8,21z M34.5,21c0.3,0.1,4.3,0.1,4.5,0
		c0-0.1,0-0.2,0-0.3c0-1.4,0-2.9,0-4.3c0-0.4-0.1-0.8-0.1-1.2c-0.3-1.1-1-1.8-2.1-2.1c-0.7-0.2-1.4-0.2-2.1-0.2c-0.1,0-0.1,0-0.2,0
		C34.5,15.7,34.5,18.3,34.5,21z"/>
	<path class="st1" d="M20,63.6c0-0.1,0-0.3,0-0.4c0-3.4,0-6.9,0-10.3c0-0.1,0-0.2,0-0.2c0-0.2,0-0.3-0.2-0.4
		C19,52,18.3,51.5,17.6,51c-1.4-1.1-2.3-2.6-2.8-4.3c-0.2-0.7-0.3-1.3-0.3-2c0-1.1,0.1-2.1,0.5-3.1c0.5-1.3,1.2-2.5,2.3-3.4
		c0.8-0.7,1.6-1.3,2.6-1.6c0.1-0.1,0.2-0.1,0.2-0.3c0-0.1,0-0.2,0-0.2c0-3.1,0-6.3,0-9.4c0-0.1,0-0.2,0-0.4c0.5,0,1.1-0.1,1.6,0
		c0.6,0,1.1,0.1,1.6,0.3c1.4,0.4,2.4,1.3,2.8,2.8c0.1,0.5,0.2,1,0.2,1.5c0,1.8,0,3.6,0,5.4c0,0.4,0,0.3,0.3,0.5
		c0.9,0.4,1.7,0.9,2.4,1.6c1,1,1.8,2.1,2.2,3.4c0.3,0.9,0.5,1.8,0.5,2.7c0,1.5-0.4,3-1.1,4.3c-0.8,1.4-1.9,2.5-3.3,3.2
		c-0.3,0.2-0.6,0.3-0.9,0.4c-0.1,0.1-0.2,0.1-0.2,0.3c0,0.1,0,0.2,0,0.2c0,3.5,0,7,0,10.4c0,0.1,0,0.2,0,0.4
		C24.1,63.6,22.1,63.6,20,63.6z M18.3,44.4c0,2.5,2,4.7,4.7,4.8c2.7,0,4.8-2.1,4.9-4.7c0-2.7-2.2-4.8-4.7-4.8
		C20.4,39.6,18.3,41.8,18.3,44.4z"/>
	<path class="st1" d="M2,106.2c0-0.5,0-1,0-1.5c1.1,0,2.1,0,3.2,0c0-0.1,0-0.1,0-0.2s0-0.2,0-0.3c0-9.7,0-19.5,0-29.2
		c0-0.5,0-1,0-1.5c0-0.4,0-0.8-0.1-1.2c-0.1-0.5-0.3-1-0.8-1.4c-0.4-0.3-0.8-0.3-1.2-0.4c-0.5,0-1,0-1.5,0c0-0.6,0-1.1,0-1.6
		c1.7-0.1,3.3-0.2,5-0.3c1.7-0.1,3.3-0.4,5.1-0.6c0.1,6.1,0,12.2,0,18.3c0,6.1,0,12.2,0,18.4c1.1,0,2.2,0,3.3,0c0,0.5,0,1,0,1.5
		C10.6,106.2,6.3,106.2,2,106.2z"/>
	<path class="st1" d="M13.7,70.6c0.4-0.5,0.8-0.9,1.3-1.2c0.8-0.5,1.7-0.8,2.7-1c0.9-0.2,1.7-0.1,2.6,0c0.8,0.1,1.5,0.2,2.2,0.5
		c1.5,0.6,2.5,1.6,3.1,3.1c0.4,1,0.5,2.1,0.6,3.2c0.1,1.4,0.1,2.8,0.1,4.2c0,8.3,0,16.6,0,24.9c0,0.1,0,0.3,0,0.4c1.1,0,2.1,0,3.2,0
		c0,0.5,0,1,0,1.5c-4.3,0-8.5,0-12.8,0c0-0.5,0-1,0-1.5c0.3,0,0.7,0,1,0s0.7,0,1,0s0.7,0,1.1,0c0-0.1,0-0.1,0-0.2s0-0.1,0-0.2
		c0-10,0-20.1,0-30.1c0-0.5,0-0.9-0.2-1.4c-0.2-1-0.9-1.6-1.8-2c-1-0.4-2.1-0.6-3.2-0.5c-0.3,0-0.5,0.1-0.8,0.1
		C13.9,70.5,13.8,70.6,13.7,70.6z"/>
	<path class="st1" d="M40.9,104.8c1.1,0,2.1,0,3.2,0c0,0.5,0,1,0,1.5c-4.3,0-8.5,0-12.8,0c0-0.5,0-1,0-1.5c1.1,0,2.1,0,3.2,0
		c0-0.1,0-0.1,0-0.2s0-0.2,0-0.2c0-10.1,0-20.1,0-30.2c0-0.5-0.1-1.1-0.3-1.6c-0.3-0.7-0.8-1.2-1.5-1.6c-0.5-0.2-1-0.4-1.5-0.4
		c-0.4-0.1-0.7-0.1-1.1-0.1c-0.5,0-0.9,0.1-1.3,0.1c-0.1,0-0.2,0-0.4,0c0.1-0.1,0.2-0.2,0.2-0.3c0.5-0.6,1.2-1,1.9-1.3
		c0.7-0.3,1.5-0.5,2.3-0.6c0.4,0,0.9,0,1.3,0c0.7,0,1.4,0.1,2.1,0.3c0.8,0.2,1.6,0.6,2.3,1.1c0.7,0.6,1.3,1.3,1.6,2.2
		c0.4,0.9,0.5,1.9,0.6,2.9c0.1,0.7,0.1,1.4,0.1,2c0,0.7,0,1.3,0,2c0,8.5,0,17,0,25.5C40.9,104.4,40.9,104.6,40.9,104.8z"/>
	<path class="st1" d="M40.7,63.6c-2.1,0-4.1,0-6.2,0c0-12.5,0-24.9,0-37.4c0.3,0,0.5,0,0.8-0.1c0.8,0,1.6,0,2.4,0.3
		c1.4,0.4,2.3,1.3,2.7,2.7c0.2,0.6,0.2,1.2,0.2,1.8c0,10.8,0,21.5,0,32.3C40.7,63.3,40.7,63.4,40.7,63.6z"/>
	<path class="st1" d="M5.6,26.2c0.9-0.1,1.9-0.1,2.8,0.1c0.7,0.1,1.3,0.4,1.9,0.8c0.8,0.6,1.2,1.4,1.4,2.3c0.1,0.4,0.1,0.9,0.1,1.3
		c0,10.8,0,21.7,0,32.5c0,0.1,0,0.3,0,0.4c-2.1,0-4.1,0-6.1,0C5.6,51.1,5.6,38.6,5.6,26.2z"/>
	<path class="st1" d="M7.4,8.7c0.4-0.2,0.8-0.3,1.1-0.5c1-0.4,2-0.8,3-1.2c1.5-0.6,2.9-1.2,4.4-1.8c1.4-0.6,2.9-1.2,4.3-1.8
		c1-0.4,2.1-0.8,3.1-1.3c0.1,0,0.2-0.1,0.4,0c1.6,0.7,3.1,1.3,4.7,2c1.7,0.7,3.5,1.5,5.2,2.2c1.8,0.7,3.5,1.5,5.3,2.2
		c0.1,0,0.1,0.1,0.2,0.1C38.9,8.7,7.7,8.7,7.4,8.7z"/>
	<path class="st1" d="M25.2,21c-1.5,0-3,0-4.5,0c-0.1-0.2-0.1-7.6,0-8.1c0.1,0,0.2,0,0.3,0c0.5,0,1.1,0,1.6,0.1
		c0.9,0.1,1.7,0.6,2.2,1.4c0.3,0.5,0.4,1,0.4,1.5c0,1.6,0,3.3,0,4.9C25.2,20.9,25.2,21,25.2,21z"/>
	<path class="st1" d="M11.8,21c-1.5,0-3,0-4.6,0c0-2.7,0-5.4,0-8c0.1,0,0.1,0,0.2-0.1c0.7,0,1.5,0,2.2,0.2c1.1,0.3,1.8,1.1,2,2.2
		c0.1,0.4,0.1,0.7,0.1,1.1c0,1.4,0,2.8,0,4.3C11.8,20.8,11.8,20.9,11.8,21z"/>
	<path class="st1" d="M34.5,21c0-2.7,0-5.4,0-8c0.1,0,0.2,0,0.2,0c0.7,0,1.4,0,2.1,0.2c1.1,0.3,1.8,1,2.1,2.1
		c0.1,0.4,0.1,0.8,0.1,1.2c0,1.4,0,2.9,0,4.3c0,0.1,0,0.2,0,0.3C38.9,21.1,34.9,21.1,34.5,21z"/>
	<path class="st0" d="M18.3,44.4c0-2.6,2.1-4.8,4.8-4.8c2.5,0,4.7,2.1,4.7,4.8c0,2.6-2.2,4.8-4.9,4.7C20.3,49.1,18.3,46.9,18.3,44.4
		z"/>
</g>
</svg>
