<?xml version="1.0" encoding="UTF-8"?>
<svg id="Green" xmlns="http://www.w3.org/2000/svg" version="1.1" viewBox="0 0 1113.3 679.1">
  <!-- Generator: Adobe Illustrator 29.0.0, SVG Export Plug-In . SVG Version: 2.1.0 Build 186)  -->
  <defs>
    <style>
      .st0 {
        fill: #154734;
      }
    </style>
  </defs>
  <path class="st0" d="M654.4,154.2v111.5c0,10.7,3.6,16.8,12.6,16.8s12.2-6.9,12.2-16.8v-111.5h23.3v111.1c0,23.1-10.8,37.7-36,37.7s-35.5-12.6-35.5-37.6v-111.1h23.3Z"/>
  <path class="st0" d="M762.5,300.8l-26.5-146.6h25.2l8,59.6c2.6,19.7,5.9,40.5,7.2,57.3h.4c1.3-15.9,4.8-36.8,7.2-56.9l7.5-60.1h25l-25.8,146.6h-28.5Z"/>
  <path class="st0" d="M926.8,246.3c0-24.9.3-55.9.7-72.7h-.2c-3.5,25.4-11.8,84.8-18.4,127.3h-22c-4.9-38.1-13.3-100.6-16.8-127.4h-.5c.5,17.1,1.2,50.3,1.2,75.5v52h-21.1v-146.6h34.7c5.9,37.3,11.9,79,14,99.6h.2c2.5-20.8,10.7-64.4,16.7-99.6h33.6v146.6h-22.1v-54.5h0Z"/>
  <path class="st0" d="M631.1,376.2h33.6c24,0,36.2,11.5,36.2,37.4v8.6c0,24.2-8.9,40.3-37.5,40.3h-9v60.3h-23.3v-146.6h0ZM654.4,444h6.4c14.5,0,17-8.2,17-22.5v-7.2c0-10.7-2-19.4-15-19.4h-8.5v49.2h0Z"/>
  <path class="st0" d="M760.6,457.2v65.5h-23.3v-146.6h32.3c23,0,36.6,8.9,36.6,35.3v5.6c0,22.5-9.5,28.3-15.4,30.6,8.8,4,13.9,10.2,13.9,30.1s-.2,36.2,1.4,45h-22.5c-2-8.9-1.6-32.9-1.6-43.6,0-17.9-2.4-22-15.9-22h-5.4,0ZM760.6,438.6h5.3c12.3,0,16.9-4.5,16.9-20.5v-5c0-11.3-2.4-18.2-15.6-18.2h-6.6v43.7h0Z"/>
  <path class="st0" d="M902.4,455.8h-33.2v46.2h38.3l-3,20.8h-58.7v-146.6h58.4v21h-35.1v37.9h33.2v20.8h0Z"/>
  <path class="st0" d="M961.8,479.6v9.1c0,10.9,3.4,17,12.2,17s11.4-8.3,11.4-17.9c0-15.8-3.5-20.6-19.7-33-16.3-12.5-25-20.4-25-42.1s6-38.8,33.3-38.8c27.9,0,32.2,19.3,32.2,35.2v7.8h-23.1v-7.2c0-10.2-1.8-16.4-9.5-16.4s-9.6,6.4-9.6,16.1,2,15.4,15.3,24.9c22.6,16.2,29.6,25.6,29.6,50.2s-7.5,40.5-35.7,40.5-34.8-17.3-34.8-36.6v-8.7h23.3,0Z"/>
  <path class="st0" d="M1066.1,479.6v9.1c0,10.9,3.4,17,12.2,17s11.4-8.3,11.4-17.9c0-15.8-3.5-20.6-19.7-33-16.3-12.5-25-20.4-25-42.1s6-38.8,33.3-38.8c27.9,0,32.2,19.3,32.2,35.2v7.8h-23.1v-7.2c0-10.2-1.8-16.4-9.5-16.4s-9.6,6.4-9.6,16.1,2,15.4,15.3,24.9c22.6,16.2,29.6,25.6,29.6,50.2s-7.5,40.5-35.7,40.5-34.8-17.3-34.8-36.6v-8.7h23.3,0Z"/>
  <path class="st0" d="M350.2,659.2c30-12.8,57-31.1,80.1-54.5,23.1-23.3,41.3-50.5,54-80.7,13.1-31.3,19.8-64.5,19.8-98.8v-171.4c0-34.2-6.7-67.5-19.8-98.8-12.7-30.2-30.8-57.4-54-80.7-23.1-23.3-50.1-41.7-80.1-54.4C319.1,6.7,286.1,0,252,0s-67.1,6.7-98.2,20c-30,12.8-57,31.1-80.1,54.4-23.1,23.3-41.3,50.5-54,80.7C6.7,186.4,0,219.6,0,253.9v171.4c0,34.2,6.7,67.5,19.8,98.8,12.7,30.2,30.8,57.4,54,80.7,23.1,23.3,50.1,41.7,80.1,54.5,31.1,13.3,64.1,20,98.2,20s67.1-6.7,98.2-20h0ZM347.1,27.4c29.1,12.4,55.2,30.1,77.6,52.7,22.4,22.6,40,48.9,52.3,78.1,12.7,30.3,19.2,62.5,19.2,95.7v171.4c0,33.2-6.5,65.4-19.2,95.7-12.3,29.3-29.9,55.6-52.3,78.2-22.4,22.6-48.5,40.3-77.6,52.7-30.1,12.8-62.1,19.3-95,19.3s-64.9-6.5-95-19.3c-29.1-12.4-55.2-30.1-77.6-52.7-22.4-22.6-40-48.9-52.3-78.2-12.7-30.3-19.2-62.5-19.2-95.7v-171.4c0-33.2,6.4-65.4,19.2-95.7,12.3-29.3,29.9-55.6,52.3-78.1,22.4-22.6,48.5-40.3,77.6-52.7,30.1-12.8,62.1-19.3,95-19.3s64.9,6.5,95,19.3h0ZM237.7,653.1c0-1.9.4-3.7,1.1-5.4-25.1-1.5-49.6-7.2-72.7-17.1-26.3-11.2-50-27.3-70.3-47.8-20.3-20.5-36.3-44.3-47.4-70.8-11.5-27.5-17.4-56.7-17.4-86.8v-171.4c0-30.1,5.8-59.3,17.4-86.8,11.1-26.5,27.1-50.4,47.4-70.9s44-36.5,70.3-47.8c23.2-9.9,47.6-15.6,72.7-17.1-.7-1.7-1.1-3.5-1.1-5.4s.3-3.2.8-4.6c-26.4,1.5-52,7.5-76.4,17.9-27.5,11.7-52.2,28.5-73.4,49.9-21.2,21.4-37.9,46.3-49.5,74-12,28.7-18.1,59.2-18.1,90.6v171.4c0,31.4,6.1,61.9,18.1,90.6,11.6,27.7,28.3,52.6,49.5,74,21.2,21.4,45.9,38.2,73.4,49.9,24.3,10.4,50,16.4,76.4,17.9-.5-1.4-.8-3-.8-4.6h0ZM464.9,163.3c-11.6-27.7-28.3-52.6-49.5-74-21.2-21.4-45.9-38.2-73.5-49.9-24.3-10.4-50-16.4-76.3-17.9.5,1.4.8,3,.8,4.6s-.4,3.7-1.1,5.4c25.1,1.5,49.6,7.2,72.7,17.1,26.3,11.2,50,27.3,70.3,47.8,20.3,20.5,36.3,44.3,47.4,70.8,11.5,27.5,17.4,56.6,17.4,86.8v171.4c0,30.1-5.8,59.3-17.4,86.8-11.1,26.5-27.1,50.4-47.4,70.8-20.3,20.5-44,36.5-70.3,47.8-23.2,9.9-47.6,15.6-72.7,17.1.7,1.7,1.1,3.5,1.1,5.4s-.3,3.2-.8,4.6c26.4-1.5,52-7.5,76.3-17.9,27.5-11.7,52.2-28.5,73.5-49.9,21.2-21.4,37.9-46.3,49.5-74,12-28.7,18.2-59.2,18.2-90.6v-171.4c0-31.4-6.1-61.9-18.2-90.6h0ZM252,17c-5,0-9,4-9,9s4,9,9,9,9-4,9-9-4-9-9-9ZM252,644.1c-5,0-9,4-9,9s4,9,9,9,9-4,9-9-4-9-9-9ZM296.5,144.7h-7.9v-54.5h12.9c2.2,13.9,4.4,29.4,5.2,37h0c.9-7.7,4-23.9,6.2-37h12.5v54.5h-8.2v-20.3c0-9.3.1-20.8.3-27h0c-1.3,9.5-4.4,31.5-6.8,47.3h-8.2c-1.8-14.1-5-37.4-6.2-47.4h-.2c.2,6.4.4,18.7.4,28.1v19.3h0ZM182.2,131.5v-41.3h8.7v41.4c0,4,1.3,6.2,4.7,6.2s4.5-2.5,4.5-6.2v-41.5h8.7v41.3c0,8.6-4,14-13.4,14s-13.2-4.7-13.2-14h0ZM243.6,144.7l-9.8-54.5h9.4l3,22.2c1,7.3,2.2,15.1,2.7,21.3h.2c.5-5.9,1.8-13.7,2.7-21.1l2.8-22.3h9.3l-9.6,54.5h-10.6ZM460.1,380.5h-148.3c2.8-3,5.1-6,7-9h141.3v-115.1h0v.2c-20.3-4.7-84.2-19.6-90-23-6.9-4-32.3-27.1-32.3-27.1,0,0-6.1-22.6-7.1-26.8s-12.9-6-27.4-6.6-38.5,5-44.3,8.9c-5.8,3.9-38.7,9-41.7,9.1-17.3.6-37,11.6-37,11.6l-58.8,32.8-58.4,20-19-1.1v116.9h116.2c-.4,3.1-.8,6.2-1.1,9H44v7.7h113.9c-.6,1.9-1.7,5.2-3.3,9.7-5.1,2.3-8.4,5-10.3,8.7-2.6,5-2.5,11.1.2,17-2.8,1.3-5.3,2.6-7.9,4-9.1,4.8-17.7,9.4-35.3,9.4s-26.2-4.6-35.3-9.4c-6.3-3.4-12.8-6.8-22-8.8v6.5c0,1.3,0,2.5,0,3.8,6.8,1.8,12,4.5,17.3,7.3,9.8,5.2,19.9,10.6,40,10.6s30.2-5.4,40-10.6c3.2-1.7,6.4-3.4,9.9-4.8,1.5.9,3.1,1.5,4.8,1.8,1,.2,10.2,1.8,18.5,1.8s3.8,0,5.5-.3c6.9-.8,11.1-3.3,13.7-6,7.3,1.8,12.7,4.6,18.2,7.6,9.8,5.2,19.9,10.6,40,10.6s30.2-5.4,40-10.6c9.1-4.8,17.7-9.4,35.3-9.4s26.2,4.6,35.3,9.4c9.8,5.2,19.9,10.6,40,10.6s30.2-5.4,40-10.6c5.3-2.8,10.5-5.5,17.3-7.3,0-1.3,0-2.5,0-3.8v-6.8h0v.3c-9.2,2-15.7,5.5-22,8.8-9.1,4.8-17.7,9.4-35.3,9.4s-26.2-4.6-35.3-9.4c-9.8-5.2-19.9-10.6-40-10.6s-30.2,5.4-40,10.6c-9.1,4.8-17.7,9.4-35.3,9.4s-26.2-4.6-35.3-9.4c-5.5-2.9-11.2-5.9-18.6-8l5-22c2,.6,4.3,1.1,6.8,1.1,4.9,0,9.4-1.7,13.1-4.9,1.8-1.5,3.6-3.5,5.3-5.6h37.3c3.4,3.9,8.1,6.2,13.3,6.2h.2c5.5,0,13-2.6,18.4-4.8.1,0,.3-.1.4-.2,1.6-.2,3.1-.6,4.5-1.2h157.7v-7.7h0ZM234,380.5c.4-.6.8-1.1,1-1.5,1.2-1.8,1.9-3.9,2.2-6,0-.5.1-1,.1-1.4h23.5c-.3,2.9,0,6,.8,9h-27.6,0ZM299.3,378.4c-1.2,1-2.7,1.3-4.1.9-.4.4-.9.7-1.5,1-2.3,1-10.3,4.1-14.6,4.1h0c-2.5,0-4.8-1.2-6.3-3.3-2.5-3.5-2.4-8.9-1.2-12.6,1.7-5,6.4-8.9,7-9.3.5-.4,1-.7,1.6-.8,2.1-.6,5.8-2.2,6.9-3.7l.7-.9c1.6-2.1,4.2-5.7,4-7.3-.3-1.9-.6-3.7-.8-5.2-.5-3.8-.9-6.8-1.9-7.6-3.6-3.1-7.1-6.2-9.9-8.8-2.9-2.7-7.2-3.3-10.8-1.5-7.6,3.9-17.8,7.9-20.7,9-.5.2-.9.3-1.5.5l-9.4,2.8c-3.1,2-10.4,7-13.5,10.8-3,3.6-12.6,8.2-18.1,10.6-.5,1.2-1.1,3-1.4,5,.7.2,1.7.3,2.5.3.6,0,1.2,0,1.7.2,0,0,4.7,1.5,8.9.7,4.3-.8,6.9.5,8.3,1.8,2,1.9,2.5,4.6,2.3,6.5,0,.7-.3,1.4-.7,1.9-.6.9-5.8,8.9-10.1,12.6-2.1,1.8-4.4,2.5-6.6,2.5-3.4,0-6.5-1.5-8.5-3-.7-.4-2.5-1.3-5.2-2.5l-8.3,36.2c-.5,2.2-2.4,4.8-8.9,5.5-1.4.1-2.8.2-4.4.2-7.6,0-16.3-1.5-16.8-1.6-1.3-.2-2.5-1-3.2-2.2-1.1-1.8-3.4-6.3-1.4-10.1.5-.9,1.7-3.2,9.3-5.6,2.6-7.4,5.4-15.4,5.7-17.1.2-2.6,2.2-18.8,2.8-23.5-.7-2.3-.9-4.3-1.1-5.8,0-.5-.1-1-.1-1.2-.2-1.3-.6-3.8-1.2-7.5-.4-2.8-2.1-5.3-4.5-6.8-7.6-4.7-10.4-4.5-10.7-4.5-3.3.3-6.7-.6-10.1-2.8-2.5-1.6-5.7-2-8.6-.9-7.7,2.8-19.5,5.7-22.3,6-6.1.6-9.9-6.6-10.9-8.9,0-.2-.1-.4-.2-.6-.5-1.7-1.6-3.8-2.1-4.3-1.8-1.2-3-3-3.3-5-.3-2.5.8-4.4,1.5-5.4.9-1.5,4.9-7.6,9.7-10.2.7-.4.8-2.6.6-3.6-.3-1.5.2-3,1.3-4.1,10.5-10.6,13.1-11.4,14.4-11.7.4-.2,1-.6,1.7-1.2.1-4.6,2.9-8.9,6.1-11.4,3.7-2.9,6.5-2.1,7.8-1.4,1.9,1,3,3.1,2.8,5.5,0,.2,0,.5.1.9,2.2-2.1,4.9-3.6,7.8-2.8,3.6.9,5.8,4.3,7,7.1h6c5.5-5,25.8-21.3,50.9-20.7,5-3.6,11.8-9.4,13.1-12.8,3.5-8.8,36.5-34.3,63.9-32.2,27,2,52.2,38.6,53.2,40.2.3.5,33.9,49.4,42,61.7,5.3,8,12.6,12.8,16.5,14.9,1,.5,2,.8,3.2,1,3.7.4,10.8,1.1,16.3,1.1,4.5,0,7.5,1.5,9.2,4.3,1.5,2.6,1.1,5.6.2,7.7-.8,3.3-4.1,8.1-13,8-.6,0-1.4,0-2.2,0-9.8.3-32.8,1.1-61.2-33.1-7.8-9.4-14.9-18.1-21.2-25.9-2.2-2.8-5.6-4.1-9.1-3.6-3.5.5-6.4,2.8-7.8,6-1.1,2.7-.5,13.4,3.4,31.3.9,3.9.4,7.9-1.2,11.6-.3.7-.7,2.2-1.2,3.7-1.9,6.9-5.5,19.9-18.8,30.8h0ZM438.1,460.1c6-3.2,12-6.4,20.4-8.4-.5,3.7-1,7.3-1.6,10.9-5.3,1.7-9.6,4-14.1,6.4-9.8,5.2-19.9,10.6-40,10.6s-30.2-5.4-40-10.6c-9.1-4.8-17.7-9.4-35.3-9.4s-26.2,4.6-35.3,9.4c-9.8,5.2-19.9,10.6-40,10.6s-30.2-5.4-40-10.6c-9.1-4.8-17.7-9.4-35.3-9.4s-26.2,4.6-35.3,9.4c-9.8,5.2-19.9,10.6-40,10.6s-30.2-5.4-40-10.6c-4.4-2.4-8.8-4.6-14.1-6.4-.6-3.6-1.2-7.2-1.6-10.9,8.4,2,14.4,5.3,20.4,8.4,9.1,4.8,17.7,9.4,35.3,9.4s26.2-4.6,35.3-9.4c9.8-5.2,19.9-10.6,40-10.6s30.2,5.4,40,10.6c9.1,4.8,17.7,9.4,35.3,9.4s26.2-4.6,35.3-9.4c9.8-5.2,19.9-10.6,40-10.6s30.2,5.4,40,10.6c9.1,4.8,17.7,9.4,35.3,9.4s26.2-4.6,35.3-9.4h0ZM254,585.8h12.9l-1,7h-19.8v-49.5h19.7v7.1h-11.9v12.8h11.2v7h-11.2v15.6h0ZM184.9,543.3h-11.4v49.5h7.9v-20.4h3c9.7,0,12.7-5.4,12.7-13.6v-2.9c0-8.8-4.1-12.6-12.2-12.6h0ZM189.3,558.6c0,4.8-.8,7.6-5.8,7.6h-2.2v-16.6h2.9c4.4,0,5,3,5,6.6v2.4h0ZM336.4,579.8c0,7-2.5,13.7-12.1,13.7s-11.8-5.8-11.8-12.4v-2.9h7.9v3.1c0,3.7,1.1,5.7,4.1,5.7s3.9-2.8,3.9-6c0-5.3-1.2-7-6.7-11.2-5.5-4.2-8.4-6.9-8.4-14.2s2-13.1,11.2-13.1c9.4,0,10.9,6.5,10.9,11.9v2.7h-7.8v-2.4c0-3.5-.6-5.5-3.2-5.5s-3.2,2.2-3.2,5.4.7,5.2,5.2,8.4c7.6,5.5,10,8.7,10,17h0ZM442.8,501.5c-9.8,5.2-19.9,10.6-40,10.6s-30.2-5.4-40-10.6c-9.1-4.8-17.7-9.4-35.3-9.4s-26.2,4.6-35.3,9.4c-9.8,5.2-19.9,10.6-40,10.6s-30.2-5.4-40-10.6c-9.1-4.8-17.7-9.4-35.3-9.4s-26.2,4.6-35.3,9.4c-9.8,5.2-19.9,10.6-40,10.6s-30.2-5.4-40-10.6c-1.3-.7-2.6-1.4-3.9-2.1-1.6-4.3-3.1-8.6-4.4-12.9,4.9,1.8,9,4,13,6.2,9.1,4.8,17.7,9.4,35.3,9.4s26.2-4.6,35.3-9.4c9.8-5.2,19.9-10.6,40-10.6s30.2,5.4,40,10.6c9.1,4.8,17.7,9.4,35.3,9.4s26.2-4.6,35.3-9.4c9.8-5.2,19.9-10.6,40-10.6s30.2,5.4,40,10.6c9.1,4.8,17.7,9.4,35.3,9.4s26.2-4.6,35.3-9.4c4.1-2.2,8.2-4.3,13-6.2-1.3,4.3-2.8,8.7-4.4,12.9-1.3.7-2.6,1.4-3.9,2.1ZM301.2,579.8c0,7-2.5,13.7-12.1,13.7s-11.8-5.8-11.8-12.4v-2.9h7.9v3.1c0,3.7,1.1,5.7,4.1,5.7s3.9-2.8,3.9-6c0-5.3-1.2-7-6.7-11.2-5.5-4.2-8.4-6.9-8.4-14.2s2-13.1,11.2-13.1c9.4,0,10.9,6.5,10.9,11.9v2.7h-7.8v-2.4c0-3.5-.6-5.5-3.2-5.5s-3.2,2.2-3.2,5.4.7,5.2,5.2,8.4c7.6,5.5,10,8.7,10,17h0ZM220.3,543.3h-10.9v49.5h7.9v-22.2h1.8c4.6,0,5.4,1.4,5.4,7.4s-.1,11.7.5,14.7h7.6c-.5-3-.5-11-.5-15.2,0-6.7-1.7-8.8-4.7-10.2,2-.8,5.2-2.7,5.2-10.3v-1.9c0-8.9-4.6-11.9-12.4-11.9h0ZM224.8,557.4c0,5.4-1.5,6.9-5.7,6.9h-1.8v-14.8h2.2c4.5,0,5.3,2.3,5.3,6.2v1.7h0ZM45,446.1c0,0,0-.2,0-.3,0,0,0,.2,0,.3ZM45.6,451.7h0s0,0,0,0ZM47.3,462.6s0,0,0,.1c0,0,0,0,0-.1h0ZM44,429.1h0s0,0,0,0h0ZM53,486.4s0,0,0,.1h0s0,0,0-.1ZM57.4,499.5s0,0,0,0c0,0,0,0,0,0h0Z"/>
</svg>