<?xml version="1.0" encoding="UTF-8"?><svg id="White" xmlns="http://www.w3.org/2000/svg" viewBox="0 0 1345.85 840.19"><defs><style>.cls-1{fill:#fff;stroke-width:0px;}</style></defs><path class="cls-1" d="M770.74,234.75v111.5c0,10.71,3.61,16.8,12.63,16.8s12.23-6.85,12.23-16.77v-111.52h23.34v111.06c0,23.13-10.78,37.67-36,37.67s-35.52-12.6-35.52-37.59v-111.14h23.31Z"/><path class="cls-1" d="M878.79,381.33l-26.45-146.58h25.19l8.04,59.64c2.62,19.74,5.89,40.48,7.25,57.34h.43c1.33-15.9,4.82-36.83,7.25-56.87l7.55-60.1h24.96l-25.76,146.58h-28.45Z"/><path class="cls-1" d="M1043.05,326.8c0-24.91.28-55.93.73-72.73h-.23c-3.48,25.44-11.84,84.81-18.38,127.26h-22c-4.88-38.08-13.32-100.65-16.77-127.45h-.45c.45,17.09,1.16,50.25,1.16,75.46v51.99h-21.12v-146.58h34.73c5.88,37.26,11.94,79.02,13.98,99.56h.23c2.46-20.8,10.65-64.41,16.71-99.56h33.56v146.58h-22.14v-54.53Z"/><path class="cls-1" d="M747.42,456.71h33.62c24.01,0,36.24,11.5,36.24,37.42v8.64c0,24.19-8.91,40.26-37.55,40.26h-9.01v60.26h-23.31v-146.58ZM770.74,524.56h6.39c14.54,0,17.02-8.23,17.02-22.54v-7.21c0-10.66-2-19.44-14.95-19.44h-8.46v49.18Z"/><path class="cls-1" d="M876.87,537.75v65.55h-23.31v-146.58h32.29c23,0,36.58,8.93,36.58,35.32v5.58c0,22.53-9.53,28.25-15.39,30.58,8.82,4.01,13.86,10.17,13.86,30.06,0,12.34-.23,36.15,1.38,45.04h-22.52c-2.01-8.86-1.58-32.93-1.58-43.58,0-17.87-2.37-21.97-15.9-21.97h-5.41ZM876.87,519.08h5.35c12.34,0,16.87-4.51,16.87-20.45v-5.03c0-11.33-2.42-18.23-15.63-18.23h-6.59v43.71Z"/><path class="cls-1" d="M1018.74,536.34h-33.23v46.17h38.3l-2.95,20.79h-58.66v-146.58h58.38v20.98h-35.07v37.85h33.23v20.79Z"/><path class="cls-1" d="M1078.05,560.15v9.06c0,10.91,3.37,16.98,12.24,16.98s11.44-8.35,11.44-17.87c0-15.75-3.5-20.64-19.71-33.05-16.27-12.45-24.96-20.42-24.96-42.11,0-19.32,6.03-38.82,33.31-38.79,27.9.03,32.21,19.31,32.21,35.22v7.83h-23.11v-7.22c0-10.21-1.77-16.38-9.52-16.38s-9.57,6.39-9.57,16.1c0,10.36,2.03,15.43,15.31,24.85,22.62,16.22,29.55,25.64,29.55,50.16,0,20.79-7.51,40.5-35.72,40.5s-34.78-17.28-34.78-36.59v-8.7h23.31Z"/><path class="cls-1" d="M1182.36,560.15v9.06c0,10.91,3.37,16.98,12.24,16.98s11.44-8.35,11.44-17.87c0-15.75-3.5-20.64-19.71-33.05-16.27-12.45-24.96-20.42-24.96-42.11,0-19.32,6.03-38.82,33.31-38.79,27.9.03,32.21,19.31,32.21,35.22v7.83h-23.11v-7.22c0-10.21-1.77-16.38-9.52-16.38s-9.57,6.39-9.57,16.1c0,10.36,2.03,15.43,15.31,24.85,22.62,16.22,29.55,25.64,29.55,50.16,0,20.79-7.51,40.5-35.72,40.5s-34.78-17.28-34.78-36.59v-8.7h23.31Z"/><path class="cls-1" d="M350.31,460.98c.42-.62.76-1.15,1-1.52,1.16-1.8,1.93-3.88,2.22-6.01.06-.48.1-.96.13-1.44h23.45c-.26,2.88-.08,5.96.75,8.97h-27.56ZM276.46,452.01h-116.16v8.97h115.07c.33-2.73.71-5.9,1.09-8.97ZM217.65,517.5c17.59,0,26.21-4.57,35.33-9.42,2.54-1.35,5.11-2.71,7.87-3.99-2.68-5.9-2.77-11.94-.16-16.96,1.93-3.7,5.18-6.49,10.3-8.74,1.56-4.45,2.66-7.79,3.26-9.7h-113.94v30.6c9.2,2.01,15.69,5.44,22.02,8.8,9.12,4.84,17.74,9.42,35.33,9.42ZM300.6,630.08h-2.86v16.62h2.16c4.91,0,5.75-2.78,5.75-7.62v-2.43c0-3.6-.68-6.57-5.05-6.57ZM559.07,582.05c1.32-.7,2.63-1.39,3.96-2.07-.95,2.53-1.93,5.04-2.98,7.54-10.49,24.99-25.5,47.44-44.63,66.72-19.12,19.28-41.37,34.4-66.14,44.96-25.61,10.92-52.84,16.46-80.92,16.46s-55.31-5.54-80.92-16.46c-24.77-10.56-47.02-25.69-66.14-44.96-19.13-19.28-34.15-41.73-44.63-66.72-1.05-2.5-2.03-5.01-2.98-7.54,1.33.68,2.63,1.37,3.95,2.07,9.8,5.2,19.94,10.58,40.02,10.58s30.22-5.38,40.02-10.58c9.12-4.84,17.74-9.42,35.33-9.42s26.21,4.57,35.33,9.42c9.8,5.2,19.94,10.58,40.02,10.58s30.22-5.38,40.02-10.58c9.12-4.84,17.74-9.42,35.33-9.42s26.21,4.57,35.33,9.42c9.8,5.2,19.94,10.58,40.02,10.58s30.22-5.38,40.02-10.58ZM313.47,636.42c0-8.76-4.13-12.64-12.24-12.64h-11.36v49.53h7.88v-20.36h3.04c9.68,0,12.68-5.43,12.68-13.6v-2.92ZM348.99,635.71c0-8.92-4.59-11.93-12.36-11.93h-10.91v49.53h7.88v-22.15h1.83c4.57,0,5.37,1.38,5.37,7.42,0,3.6-.14,11.73.54,14.72h7.61c-.54-3-.47-11.05-.47-15.22,0-6.72-1.7-8.8-4.68-10.16,1.98-.79,5.2-2.72,5.2-10.33v-1.89ZM383.24,666.28h-12.94v-15.6h11.23v-7.02h-11.23v-12.79h11.85v-7.09h-19.72v49.53h19.82l1-7.02ZM417.51,660.34c0-8.29-2.34-11.47-9.98-16.95-4.49-3.19-5.17-4.9-5.17-8.4,0-3.28.68-5.44,3.23-5.44s3.22,2.09,3.22,5.54v2.44h7.81v-2.65c0-5.37-1.46-11.89-10.88-11.9-9.22,0-11.25,6.58-11.25,13.11,0,7.33,2.94,10.02,8.43,14.23,5.48,4.19,6.66,5.84,6.66,11.17,0,3.22-.79,6.04-3.86,6.04s-4.13-2.05-4.13-5.74v-3.06h-7.88v2.94c0,6.52,2.3,12.36,11.75,12.36s12.07-6.66,12.07-13.68ZM452.75,660.34c0-8.29-2.34-11.47-9.98-16.95-4.49-3.19-5.17-4.9-5.17-8.4,0-3.28.68-5.44,3.23-5.44s3.22,2.09,3.22,5.54v2.44h7.81v-2.65c0-5.37-1.46-11.89-10.88-11.9-9.22,0-11.25,6.58-11.25,13.11,0,7.33,2.94,10.02,8.43,14.23,5.48,4.19,6.66,5.84,6.66,11.17,0,3.22-.79,6.04-3.86,6.04s-4.13-2.05-4.13-5.74v-3.06h-7.88v2.94c0,6.52,2.3,12.36,11.75,12.36s12.07-6.66,12.07-13.68ZM335.82,630.08h-2.23v14.77h1.81c4.17,0,5.7-1.52,5.7-6.91v-1.7c0-3.83-.82-6.16-5.28-6.16ZM414.2,469.94c-.14.06-.27.12-.41.18-5.36,2.19-12.89,4.8-18.37,4.8h-.17c-5.2-.05-9.98-2.3-13.34-6.22h-37.32c-1.68,2.03-3.5,4.01-5.3,5.56-3.71,3.18-8.24,4.87-13.1,4.87-2.47,0-4.76-.44-6.77-1.06l-5.04,22.05c7.47,2.05,13.1,5.04,18.63,7.98,9.12,4.84,17.74,9.42,35.33,9.42s26.21-4.57,35.33-9.42c9.8-5.2,19.94-10.58,40.02-10.58s30.22,5.38,40.02,10.58c9.12,4.84,17.74,9.42,35.33,9.42s26.21-4.57,35.33-9.42c6.34-3.36,12.81-6.8,22.02-8.81v-30.59h-157.66c-1.43.65-2.96,1.08-4.53,1.25ZM435.1,452.01c-1.91,2.96-4.22,5.99-7.02,8.97h148.32v-8.97h-141.3ZM519.05,527.5c-20.08,0-30.22-5.38-40.02-10.58-9.12-4.84-17.74-9.42-35.33-9.42s-26.21,4.57-35.33,9.42c-9.8,5.2-19.94,10.58-40.02,10.58s-30.22-5.38-40.02-10.58c-5.55-2.95-10.93-5.79-18.25-7.57-2.59,2.75-6.8,5.25-13.67,6.02-1.64.18-3.48.27-5.47.27-8.32,0-17.51-1.59-18.53-1.77-1.72-.31-3.34-.93-4.82-1.79-3.52,1.45-6.68,3.13-9.91,4.84-9.8,5.2-19.94,10.58-40.02,10.58s-30.22-5.38-40.02-10.58c-5.3-2.82-10.45-5.53-17.28-7.32.13,7.61.65,15.16,1.58,22.63,8.35,2.04,14.44,5.26,20.4,8.42,9.12,4.84,17.74,9.42,35.33,9.42s26.21-4.57,35.33-9.42c9.8-5.2,19.94-10.58,40.02-10.58s30.22,5.38,40.02,10.58c9.12,4.84,17.74,9.42,35.33,9.42s26.21-4.57,35.33-9.42c9.8-5.2,19.94-10.58,40.02-10.58s30.22,5.38,40.02,10.58c9.12,4.84,17.74,9.42,35.33,9.42s26.21-4.57,35.33-9.42c5.96-3.16,12.04-6.39,20.4-8.43.93-7.47,1.44-15.01,1.58-22.63-6.83,1.79-11.98,4.51-17.29,7.32-9.8,5.2-19.94,10.58-40.02,10.58ZM519.05,560.07c-20.08,0-30.22-5.38-40.02-10.58-9.12-4.84-17.74-9.42-35.33-9.42s-26.21,4.57-35.33,9.42c-9.8,5.2-19.94,10.58-40.02,10.58s-30.22-5.38-40.02-10.58c-9.12-4.84-17.74-9.42-35.33-9.42s-26.21,4.57-35.33,9.42c-9.8,5.2-19.94,10.58-40.02,10.58s-30.22-5.38-40.02-10.58c-4.44-2.36-8.77-4.64-14.06-6.37,1.44,8.1,3.35,16.09,5.73,23.95,4.85,1.82,8.97,4,13.02,6.15,9.12,4.84,17.74,9.42,35.33,9.42s26.21-4.57,35.33-9.42c9.8-5.2,19.94-10.58,40.02-10.58s30.22,5.38,40.02,10.58c9.12,4.84,17.74,9.42,35.33,9.42s26.21-4.57,35.33-9.42c9.8-5.2,19.94-10.58,40.02-10.58s30.22,5.38,40.02,10.58c9.12,4.84,17.74,9.42,35.33,9.42s26.21-4.57,35.33-9.42c4.06-2.15,8.17-4.34,13.03-6.16,2.38-7.87,4.29-15.86,5.73-23.96-5.3,1.73-9.62,4.02-14.07,6.38-9.8,5.2-19.94,10.58-40.02,10.58ZM547.71,422.43c-1.63-2.79-4.72-4.22-9.18-4.26-5.5-.05-12.57-.74-16.3-1.15-1.19-.13-2.2-.44-3.18-.96-3.88-2.1-11.18-6.82-16.48-14.88-8.11-12.32-41.72-61.26-42.04-61.74-1.06-1.56-26.21-38.12-53.25-40.17-27.39-2.07-60.46,23.42-63.93,32.24-1.34,3.42-8.1,9.23-13.15,12.82-25.06-.66-45.39,15.69-50.87,20.55l-6.05.12c-1.24-2.86-3.44-6.26-7.03-7.14-2.97-.73-5.63.7-7.84,2.84-.1-.38-.15-.69-.14-.91.18-2.36-.91-4.46-2.85-5.5-1.33-.71-4.11-1.47-7.83,1.43-3.23,2.52-6.04,6.79-6.15,11.43-.68.55-1.33,1-1.69,1.16-1.33.24-3.96,1.06-14.45,11.66-1.08,1.09-1.56,2.63-1.3,4.14.18,1.02.03,3.24-.63,3.6-4.76,2.57-8.75,8.71-9.68,10.22-.68.92-1.79,2.85-1.46,5.35.27,2.01,1.45,3.8,3.26,4.99.57.49,1.62,2.58,2.15,4.29.06.19.13.38.21.57,1.01,2.25,4.77,9.53,10.87,8.89,2.79-.29,14.6-3.19,22.29-6,2.9-1.06,6.03-.74,8.58.9,3.43,2.19,6.84,3.15,10.1,2.83.31-.03,3.13-.15,10.7,4.52,2.45,1.51,4.09,3.98,4.52,6.78.57,3.75.97,6.2,1.22,7.51.05.24.1.74.15,1.22.15,1.46.38,3.51,1.07,5.76-.58,4.67-2.59,20.87-2.81,23.5-.3,1.66-3.01,9.7-5.66,17.08-7.63,2.43-8.83,4.73-9.31,5.64-1.98,3.8.31,8.3,1.38,10.07.71,1.16,1.88,1.96,3.21,2.2.44.08,9.21,1.62,16.78,1.62,1.53,0,3.01-.06,4.36-.21,6.5-.72,8.43-3.37,8.88-5.54l8.28-36.24c2.69,1.23,4.49,2.13,5.19,2.49,2.02,1.47,5.19,2.99,8.55,2.99,2.22,0,4.51-.67,6.59-2.45,4.34-3.73,9.56-11.73,10.14-12.63.38-.58.62-1.24.71-1.93.25-1.88-.21-4.58-2.26-6.53-1.38-1.3-3.93-2.68-8.27-1.84-4.16.8-8.84-.69-8.87-.7-.54-.18-1.13-.26-1.7-.24-.81.03-1.84-.09-2.52-.27.27-2,.91-3.84,1.39-5.03,5.45-2.38,15.11-6.94,18.11-10.59,3.13-3.83,10.36-8.79,13.5-10.78l9.4-2.79c.51-.15.95-.3,1.45-.49,2.94-1.14,13.11-5.16,20.72-9.04,3.55-1.81,7.89-1.21,10.8,1.5,2.78,2.59,6.3,5.72,9.91,8.8.97.83,1.38,3.81,1.9,7.58.21,1.53.45,3.27.77,5.2.28,1.68-2.37,5.22-3.96,7.34l-.66.89c-1.12,1.51-4.78,3.13-6.9,3.74-.6.17-1.16.46-1.64.84-.54.42-5.28,4.29-6.95,9.33-1.23,3.71-1.35,9.04,1.17,12.57,1.51,2.12,3.75,3.3,6.3,3.32h.08c4.33,0,12.25-3.1,14.59-4.06.57-.23,1.08-.57,1.5-.97,1.4.34,2.94.05,4.14-.94,13.3-10.94,16.9-23.86,18.83-30.8.43-1.54.83-2.99,1.16-3.73,1.61-3.63,2.01-7.63,1.17-11.56-3.86-17.95-4.47-28.65-3.35-31.32,1.35-3.27,4.26-5.52,7.76-6.02,3.48-.5,6.89.84,9.09,3.59,6.26,7.8,13.39,16.52,21.2,25.92,28.41,34.19,51.42,33.45,61.23,33.13.84-.03,1.59-.06,2.23-.05,8.85.07,12.19-4.7,12.99-7.99.89-2.1,1.27-5.1-.25-7.69ZM466.53,739.68c30.02-12.8,56.98-31.12,80.12-54.45,23.13-23.31,41.29-50.46,53.97-80.69,13.13-31.28,19.78-64.51,19.78-98.75v-171.4c0-34.24-6.66-67.47-19.78-98.75-12.68-30.23-30.84-57.37-53.97-80.69-23.14-23.33-50.1-41.65-80.12-54.45-31.1-13.26-64.13-19.98-98.18-19.98s-67.08,6.72-98.18,19.98c-30.02,12.8-56.98,31.12-80.12,54.45-23.13,23.31-41.29,50.46-53.97,80.69-13.13,31.28-19.78,64.51-19.78,98.75v171.4c0,34.24,6.66,67.47,19.78,98.75,12.68,30.23,30.84,57.37,53.97,80.69,23.14,23.33,50.1,41.65,80.12,54.45,31.1,13.26,64.13,19.98,98.18,19.98s67.08-6.72,98.18-19.98ZM463.39,107.87c29.07,12.39,55.17,30.13,77.58,52.72,22.4,22.58,39.99,48.88,52.27,78.15,12.71,30.3,19.16,62.48,19.16,95.66v171.4c0,33.17-6.45,65.36-19.16,95.66-12.28,29.27-29.87,55.57-52.27,78.15-22.41,22.59-48.51,40.33-77.58,52.72-30.1,12.83-62.08,19.34-95.04,19.34s-64.94-6.51-95.04-19.34c-29.07-12.39-55.17-30.13-77.58-52.72-22.4-22.58-39.99-48.88-52.27-78.15-12.71-30.3-19.16-62.48-19.16-95.66v-171.4c0-33.18,6.45-65.36,19.16-95.66,12.28-29.27,29.87-55.57,52.27-78.15,22.41-22.59,48.51-40.33,77.58-52.72,30.1-12.83,62.08-19.34,95.04-19.34s64.94,6.51,95.04,19.34ZM576.4,334.39v2.75c-20.28-4.68-84.22-19.59-90.04-22.98-6.93-4.03-32.31-27.1-32.31-27.1,0,0-6.1-22.56-7.09-26.79-.99-4.23-12.94-5.96-27.4-6.55-14.46-.59-38.49,5-44.31,8.92-5.82,3.92-38.66,8.99-41.74,9.1-17.26.57-37.01,11.61-37.01,11.61l-58.81,32.82-58.38,20.03-19.02-1.13v-.68c0-28.37,5.5-55.86,16.35-81.73,10.49-24.99,25.5-47.44,44.63-66.72,19.12-19.27,41.37-34.4,66.14-44.96,25.61-10.92,52.84-16.46,80.92-16.46s55.31,5.54,80.92,16.46c24.77,10.56,47.02,25.69,66.14,44.96,19.13,19.29,34.15,41.73,44.63,66.72,10.85,25.86,16.35,53.36,16.35,81.73ZM325.08,170.71h-8.68v41.46c0,3.69-1.11,6.23-4.55,6.23s-4.7-2.26-4.7-6.24v-41.45h-8.67v41.31c0,9.29,4.27,13.97,13.21,13.97,9.38,0,13.38-5.4,13.38-14v-41.29ZM380.1,170.71h-9.28l-2.81,22.34c-.9,7.45-2.2,15.23-2.69,21.14h-.16c-.5-6.27-1.72-13.98-2.7-21.32l-2.99-22.17h-9.36l9.83,54.49h10.58l9.58-54.49ZM441.87,170.71h-12.48c-2.25,13.07-5.29,29.28-6.21,37.01h-.08c-.76-7.64-3.01-23.16-5.2-37.01h-12.91v54.49h7.85v-19.33c0-9.37-.26-21.7-.43-28.05h.17c1.28,9.96,4.42,33.22,6.23,47.38h8.18c2.43-15.78,5.54-37.85,6.83-47.31h.08c-.17,6.25-.27,17.78-.27,27.04v20.27h8.23v-54.49ZM353.99,733.66c0-1.91.38-3.74,1.07-5.41-25.15-1.49-49.56-7.21-72.72-17.09-26.32-11.22-49.96-27.29-70.27-47.76-20.31-20.48-36.26-44.31-47.39-70.85-11.52-27.46-17.37-56.65-17.37-86.76v-171.4c0-30.1,5.84-59.29,17.37-86.76,11.13-26.54,27.08-50.38,47.39-70.85,20.31-20.47,43.95-36.54,70.27-47.76,23.17-9.88,47.58-15.6,72.72-17.09-.68-1.67-1.07-3.5-1.07-5.41,0-1.61.28-3.15.77-4.59-26.4,1.53-52.02,7.52-76.35,17.89-27.51,11.73-52.22,28.53-73.45,49.92-21.22,21.39-37.88,46.3-49.51,74.02-12.04,28.7-18.15,59.19-18.15,90.62v171.4c0,31.44,6.11,61.93,18.15,90.63,11.63,27.73,28.29,52.63,49.51,74.02,21.22,21.39,45.93,38.19,73.45,49.92,24.32,10.37,49.95,16.36,76.35,17.89-.49-1.44-.77-2.98-.77-4.59ZM581.25,243.77c-11.63-27.73-28.29-52.63-49.51-74.02-21.22-21.39-45.93-38.19-73.45-49.92-24.32-10.37-49.95-16.36-76.34-17.89.49,1.44.77,2.98.77,4.59,0,1.91-.38,3.74-1.07,5.41,25.15,1.49,49.56,7.21,72.72,17.09,26.32,11.22,49.96,27.29,70.27,47.76,20.31,20.48,36.26,44.31,47.39,70.85,11.52,27.47,17.37,56.65,17.37,86.76v171.4c0,30.1-5.84,59.29-17.37,86.76-11.13,26.54-27.08,50.37-47.39,70.85-20.31,20.47-43.95,36.54-70.27,47.76-23.17,9.88-47.57,15.6-72.72,17.09.68,1.67,1.07,3.5,1.07,5.41,0,1.61-.28,3.15-.77,4.59,26.4-1.53,52.02-7.52,76.34-17.89,27.51-11.73,52.23-28.53,73.45-49.92,21.22-21.39,37.88-46.3,49.51-74.02,12.04-28.7,18.15-59.19,18.15-90.63v-171.4c0-31.44-6.11-61.93-18.15-90.63ZM368.35,97.52c-4.97,0-9,4.03-9,9s4.03,9,9,9,9-4.03,9-9-4.03-9-9-9ZM368.35,724.66c-4.97,0-9,4.03-9,9s4.03,9,9,9,9-4.03,9-9-4.03-9-9-9Z"/></svg>