<?xml version="1.0" encoding="UTF-8"?>
<svg id="Layer_1" xmlns="http://www.w3.org/2000/svg" viewBox="0 0 1051.39 120.31">
  <defs>
    <style>
      .cls-1 {
        fill: none;
      }

      .cls-2 {
        fill: #efeff0;
      }
    </style>
  </defs>
  <rect class="cls-1" x="-50.48" y="-51.31" width="1153.33" height="223.09"/>
  <g>
    <path class="cls-2" d="M155.23.04c-2.67,0-3.39.71-4.82,4.82l-26.52,79.87L143.91,2.28c.15-.6-.22-1.21-.83-1.36-.6-.15-1.21.22-1.36.83h0s-21.1,86.9-21.1,86.9L131.4,2.11c.08-.61-.36-1.18-.97-1.25-.62-.08-1.18.36-1.25.97h0l-10.73,86.19V1.91h0c0-.62-.5-1.12-1.12-1.12s-1.12.5-1.12,1.12v86.6L106.31,1.78h0c-.07-.61-.63-1.06-1.24-.99-.62.07-1.06.63-.99,1.24l9.58,84.09L93.92,1.65h0c-.14-.6-.75-.98-1.35-.84-.6.14-.98.74-.84,1.35l18.1,77.49L84.59,4.86C83.16.75,82.45.04,79.77.04c-.07,0-.14.02-.21.02-.06,0-.12-.02-.18-.02-2.67,0-3.39.71-4.82,4.82l-32.64,98.29L8.74,4.86C7.31.75,6.6.04,3.92.04,1.96.04,0,1.65,0,3.43c0,.89,0,1.07.89,3.75l36.75,107.39c1.25,3.57,2.14,4.64,4.1,4.64,2.32,0,3.03-.89,4.28-4.64L79.42,15.02l34.06,99.54c1.25,3.57,2.14,4.64,4.1,4.64,2.32,0,3.03-.89,4.28-4.64L157.91,7.18c.89-2.5.89-2.67.89-3.75,0-1.61-1.78-3.39-3.57-3.39ZM45.9,104.23c-.9,0-1.64-.73-1.64-1.64s.73-1.64,1.64-1.64,1.64.73,1.64,1.64-.73,1.64-1.64,1.64ZM48.33,98.4l-1.73-.56,1.69-5.2,1.73.56-1.69,5.2ZM50.81,90.75l-1.73-.56,1.69-5.19,1.73.56-1.69,5.19Z"/>
    <g>
      <path class="cls-2" d="M1030.83,24.52V3.75h4.21c3.28,0,5.81.45,7.72,1.52,2.75,1.52,4.5,4.9,4.5,8.85,0,6.57-4.19,10.39-11.53,10.39h-4.89ZM1036.1,27.58c4.06-.23,6.12-.61,8.1-1.69,4.04-2.21,6.41-6.41,6.41-11.67,0-4.74-1.83-8.64-5.11-10.93-2.68-1.91-5.58-2.61-10.77-2.61h-4.66c-2.29,0-2.52.23-2.52,2.52v45.91c0,1.99.38,2.52,1.69,2.52,1.21,0,1.59-.53,1.59-2.52v-21.54h1.53l15.35,22.53c.93,1.38,1.07,1.52,1.83,1.52,1,0,1.84-.68,1.84-1.45,0-.45-.16-.7-.84-1.77l-14.44-20.84ZM998.53,3.75h18.56c1.9,0,2.52-.39,2.52-1.53s-.62-1.53-2.52-1.53h-19.33c-2.28,0-2.51.23-2.51,2.52v45.91c0,2.3.23,2.52,2.51,2.52h19.33c1.9,0,2.52-.38,2.52-1.52s-.62-1.53-2.52-1.53h-18.56v-23.29h18.02c1.9,0,2.52-.38,2.52-1.53s-.62-1.53-2.52-1.53h-18.02V3.75ZM975.54,3.75h10.68c1.91,0,2.52-.39,2.52-1.53s-.61-1.53-2.52-1.53h-24.52c-1.9,0-2.51.38-2.51,1.53s.61,1.53,2.51,1.53h10.55v45.36c0,1.99.38,2.52,1.67,2.52,1.22,0,1.61-.53,1.61-2.52V3.75ZM943.16,0c-7.42,0-13.06,5.36-13.06,12.46,0,5.72,2.21,8.47,10.07,12.37,7.57,3.75,7.79,3.9,9.48,4.81,3.2,1.91,4.96,4.59,4.96,7.88,0,6.48-5.65,11.84-12.44,11.84-4.51,0-8.48-2.29-10.55-6.12-1.37-2.59-1.44-2.59-2.28-2.59-.92,0-1.76.76-1.76,1.6,0,.91,1.29,3.2,2.67,4.81,3.21,3.59,7.26,5.42,11.84,5.42,8.86,0,15.96-6.72,15.96-14.97,0-4.12-1.84-7.41-5.35-9.78-2.29-1.46-3.59-2.15-10.16-5.27-6.94-3.37-9.02-5.57-9.02-9.7,0-5.43,4.13-9.63,9.56-9.63,3.28,0,6.11,1.23,8.09,3.58q1.53,1.83,2.21,1.83c.84,0,1.68-.84,1.68-1.68,0-.53-.38-1.13-1.23-2.13-2.75-2.98-6.64-4.74-10.68-4.74M917.49,45.98L878,1.83c-.77-.91-1.22-1.21-1.75-1.21-1.15,0-1.54.61-1.54,2.58v45.91c0,1.99.39,2.52,1.68,2.52,1.22,0,1.6-.53,1.6-2.52V7.41l39.49,43.08c.91,1,1.22,1.23,1.76,1.23,1.15,0,1.52-.69,1.52-2.61V3.2c0-1.97-.37-2.52-1.6-2.52-1.3,0-1.68.55-1.68,2.52v42.78ZM864.02,3.2c0-1.97-.39-2.52-1.61-2.52-1.3,0-1.68.55-1.68,2.52v45.91c0,1.99.38,2.52,1.68,2.52,1.22,0,1.61-.53,1.61-2.52V3.2ZM823.9,46.06l-19.25-43.53c-.61-1.46-.99-1.84-1.75-1.84-1.07,0-1.45.55-1.69,2.38l-4.73,45.9-.07,1.15c0,.92.6,1.52,1.6,1.52,1.22,0,1.52-.46,1.76-2.36l4.2-40.87,18.17,41.16c.77,1.76.99,2.07,1.76,2.07s1.06-.31,1.83-2.07l18.26-41.16,4.34,40.87c.16,1.9.54,2.36,1.76,2.36,1,0,1.68-.6,1.68-1.52q0-.23-.08-1.15l-4.88-45.98c-.14-1.83-.53-2.36-1.67-2.36-.69,0-1.14.44-1.76,1.82l-19.47,43.62ZM781.5,3.75h10.7c1.91,0,2.52-.39,2.52-1.53s-.61-1.53-2.52-1.53h-24.51c-1.92,0-2.52.38-2.52,1.53s.6,1.53,2.52,1.53h10.54v45.36c0,1.99.39,2.52,1.68,2.52,1.22,0,1.6-.53,1.6-2.52V3.75ZM749.12,0c-7.41,0-13.06,5.36-13.06,12.46,0,5.72,2.22,8.47,10.08,12.37,7.56,3.75,7.8,3.9,9.48,4.81,3.21,1.91,4.97,4.59,4.97,7.88,0,6.48-5.66,11.84-12.45,11.84-4.51,0-8.48-2.29-10.55-6.12-1.37-2.59-1.45-2.59-2.29-2.59-.91,0-1.75.76-1.75,1.6,0,.91,1.3,3.2,2.67,4.81,3.21,3.59,7.25,5.42,11.84,5.42,8.85,0,15.96-6.72,15.96-14.97,0-4.12-1.83-7.41-5.35-9.78-2.29-1.46-3.59-2.15-10.16-5.27-6.95-3.37-9.01-5.57-9.01-9.7,0-5.43,4.12-9.63,9.55-9.63,3.28,0,6.11,1.23,8.09,3.58q1.53,1.83,2.22,1.83c.84,0,1.69-.84,1.69-1.68,0-.53-.39-1.13-1.22-2.13-2.75-2.98-6.65-4.74-10.7-4.74M708.72,3.75h18.55c1.91,0,2.52-.39,2.52-1.53s-.61-1.53-2.52-1.53h-19.32c-2.29,0-2.52.23-2.52,2.52v45.91c0,2.3.23,2.52,2.52,2.52h19.32c1.91,0,2.52-.38,2.52-1.52s-.61-1.53-2.52-1.53h-18.55v-23.29h18.02c1.91,0,2.52-.38,2.52-1.53s-.61-1.53-2.52-1.53h-18.02V3.75ZM644.57,44.68l-13.21-41.85c-.61-1.82-.91-2.14-2.06-2.14-.99,0-1.76.7-1.76,1.53,0,.31.07.53.38,1.53l14.52,45.81c.54,1.61.91,1.99,1.75,1.99.91,0,1.22-.38,1.83-1.91l16.97-42.24,15.42,42.24c.61,1.67.92,1.98,1.82,1.98.85,0,1.15-.31,1.77-1.98l16.8-45.83c.31-.91.38-1.21.38-1.67,0-.76-.77-1.46-1.68-1.46-1.15,0-1.45.32-2.06,2.07l-15.21,41.92-15.49-42.07c-.61-1.54-.92-1.92-1.75-1.92-.93,0-1.23.38-1.84,1.92l-16.58,42.07Z"/>
      <path class="cls-2" d="M220.57,45.69c2.14-2.91,2.68-5.34,2.68-12.07V3.37c0-1.99-.37-2.52-1.6-2.52-1.3,0-1.67.54-1.67,2.52v29.33c0,6.27-.39,8.7-1.84,10.91-2.22,3.45-7.26,5.88-12.14,5.88s-10-2.43-12.22-5.88c-1.45-2.21-1.84-4.65-1.84-10.91V3.37c0-1.99-.37-2.52-1.6-2.52s-1.67.54-1.67,2.52v30.24c0,6.73.53,9.16,2.66,12.07,3.06,4.27,8.64,6.94,14.67,6.94s11.53-2.67,14.59-6.94M279.62,49.27V3.37c0-1.99-.38-2.52-1.6-2.52-1.3,0-1.67.54-1.67,2.52v42.77L236.84,1.99c-.76-.93-1.21-1.22-1.75-1.22-1.15,0-1.53.61-1.53,2.6v45.91c0,1.98.38,2.52,1.67,2.52s1.6-.54,1.6-2.52V7.57l39.5,43.08c.91.98,1.21,1.22,1.75,1.22,1.15,0,1.52-.68,1.52-2.59M292.07,49.27V3.37c0-1.99-.38-2.52-1.6-2.52-1.31,0-1.69.54-1.69,2.52v45.91c0,1.98.38,2.52,1.69,2.52,1.21,0,1.6-.54,1.6-2.52M335.01,3.82c.38-1.07.38-1.15.38-1.6,0-.7-.76-1.45-1.53-1.45-1.14,0-1.45.3-2.05,2.06l-13.98,42.09-14.2-42.09c-.61-1.76-.91-2.06-2.06-2.06-.84,0-1.68.7-1.68,1.45,0,.39,0,.45.38,1.6l15.73,45.98c.53,1.52.92,1.99,1.76,1.99.98,0,1.3-.37,1.83-1.99l15.43-45.98ZM346,48.74v-23.3h18.03c1.91,0,2.52-.38,2.52-1.53s-.61-1.53-2.52-1.53h-18.03V3.88h18.57c1.9,0,2.51-.37,2.51-1.52s-.61-1.52-2.51-1.52h-19.33c-2.3,0-2.52.22-2.52,2.52v45.91c0,2.28.23,2.52,2.52,2.52h19.33c1.9,0,2.51-.37,2.51-1.52s-.61-1.53-2.51-1.53h-18.57ZM383.97,24.68h-4.89V3.88h4.2c3.29,0,5.8.48,7.72,1.55,2.74,1.53,4.5,4.89,4.5,8.85,0,6.59-4.2,10.41-11.53,10.41M398.79,48.58l-14.44-20.85c4.05-.24,6.12-.62,8.1-1.68,4.05-2.21,6.42-6.42,6.42-11.69,0-4.74-1.83-8.62-5.12-10.92-2.67-1.91-5.57-2.59-10.77-2.59h-4.65c-2.3,0-2.52.22-2.52,2.52v45.91c0,1.98.38,2.52,1.68,2.52,1.21,0,1.6-.54,1.6-2.52v-21.54h1.53l15.35,22.54c.91,1.36,1.06,1.52,1.84,1.52.98,0,1.82-.69,1.82-1.45,0-.47-.15-.7-.84-1.76M411.01,12.92c0-5.43,4.12-9.63,9.54-9.63,3.28,0,6.11,1.22,8.09,3.58q1.53,1.85,2.22,1.85c.84,0,1.68-.85,1.68-1.69,0-.53-.39-1.14-1.22-2.14-2.75-2.98-6.64-4.74-10.68-4.74-7.42,0-13.07,5.35-13.07,12.46,0,5.73,2.22,8.47,10.08,12.38,7.56,3.74,7.79,3.89,9.47,4.81,3.21,1.91,4.96,4.57,4.96,7.86,0,6.5-5.64,11.83-12.45,11.83-4.51,0-8.47-2.29-10.54-6.09-1.38-2.61-1.45-2.61-2.3-2.61-.91,0-1.76.77-1.76,1.59,0,.94,1.3,3.21,2.67,4.82,3.21,3.6,7.26,5.43,11.85,5.43,8.86,0,15.96-6.73,15.96-14.97,0-4.14-1.83-7.41-5.35-9.77-2.29-1.47-3.58-2.14-10.15-5.28-6.95-3.35-9.01-5.57-9.01-9.69M447.91,49.27V3.37c0-1.99-.38-2.52-1.61-2.52-1.29,0-1.67.54-1.67,2.52v45.91c0,1.98.38,2.52,1.67,2.52s1.61-.54,1.61-2.52M516.89,4.05c.45-.85.68-1.38.68-1.76,0-.77-.84-1.45-1.83-1.45-.84,0-1,.16-1.83,1.62l-13.98,23.96-13.53-23.89-.37-.62c-.38-.69-.81-.97-1.41-1.06h0s-.05,0-.05,0c-.1-.01-.56-.03-.69,0h-27.03c-1.92,0-2.52.37-2.52,1.52s.6,1.52,2.52,1.52h10.54v45.39c0,1.98.37,2.52,1.68,2.52,1.22,0,1.6-.54,1.6-2.52V3.88h12.59c.03.07.04.11.08.17l14.9,25.98v19.25c0,1.98.38,2.52,1.68,2.52,1.22,0,1.6-.54,1.6-2.52v-19.25l15.36-25.98ZM580.82,26.42c0,12.61-10.39,23.07-23,23.07s-22.91-10.53-22.91-22.76c0-6.03,1.91-11.3,5.81-15.58,4.43-4.96,10.7-7.86,16.96-7.86,12.75,0,23.14,10.39,23.14,23.14M584.25,26.37c0-14.29-11.99-26.22-26.43-26.22s-26.34,11.99-26.34,25.83c0,14.59,11.84,26.65,26.2,26.65s26.58-11.84,26.58-26.26M611.98,2.37c0-1.15-.62-1.52-2.52-1.52h-15.5c-2.3,0-2.53.22-2.53,2.52v45.91c0,1.98.38,2.52,1.68,2.52,1.22,0,1.6-.54,1.6-2.52v-23.84h14.2c1.91,0,2.52-.38,2.52-1.53s-.61-1.53-2.52-1.53h-14.2V3.88h14.74c1.9,0,2.52-.37,2.52-1.52"/>
    </g>
    <path class="cls-2" d="M362.29,77.12c1.45-.86,1.76-1.16,1.76-2,0-.47-.15-.85-.6-1.47-2.84-4.21-7.32-6.59-12.62-6.59-8.69,0-15.3,5.83-15.3,13.58,0,5.77,3.39,10,10.54,13.02q6.91,2.9,8.67,4.04c2.31,1.62,3.53,3.86,3.53,6.77,0,4.94-3.53,8.53-8.38,8.53-4.53,0-7.97-2.9-8.51-7.21-.24-1.37-.69-2-1.69-2q-.39,0-1.55.31l-2.3.46c-1.91.47-2.37.78-2.37,1.93,0,.69.38,2.23.84,3.52,2.47,6.37,8.32,10.31,15.31,10.31,9.46,0,16.43-6.99,16.43-16.37,0-7.08-3.69-11.69-11.99-15.15q-6.76-2.76-8.22-3.77c-1.7-1.15-2.45-2.59-2.45-4.3,0-3.61,3.22-6.37,7.44-6.37,2.86,0,5.15,1.14,6.45,3.23.61,1,1,1.23,1.7,1.23.46,0,.61-.09,1.85-.85l1.46-.84ZM325.01,77.12c1.46-.86,1.76-1.16,1.76-2,0-.47-.15-.85-.59-1.47-2.86-4.21-7.32-6.59-12.62-6.59-8.68,0-15.28,5.83-15.28,13.58,0,5.77,3.37,10,10.52,13.02q6.92,2.9,8.68,4.04c2.32,1.62,3.54,3.86,3.54,6.77,0,4.94-3.54,8.53-8.38,8.53-4.52,0-7.99-2.9-8.53-7.21-.22-1.37-.69-2-1.69-2q-.38,0-1.54.31l-2.3.46c-1.92.47-2.38.78-2.38,1.93,0,.69.38,2.23.84,3.52,2.46,6.37,8.3,10.31,15.29,10.31,9.44,0,16.45-6.99,16.45-16.37,0-7.08-3.69-11.69-12-15.15q-6.76-2.76-8.22-3.77c-1.69-1.15-2.46-2.59-2.46-4.3,0-3.61,3.24-6.37,7.45-6.37,2.84,0,5.15,1.14,6.45,3.23.63,1,1.01,1.23,1.71,1.23.45,0,.61-.09,1.84-.85l1.45-.84ZM270.01,75.34h17.68c2.61,0,2.85-.22,2.85-2.85v-1.6c0-1.69,0-1.85-.47-2.38-.45-.47-.62-.47-2.38-.47h-22.6c-2.61,0-2.85.24-2.85,2.85v45.56c0,2.62.24,2.86,2.85,2.86h22.6c2.61,0,2.85-.24,2.85-2.86v-1.59c0-1.69,0-1.86-.47-2.38-.45-.46-.62-.46-2.38-.46h-17.68v-17.06h17.05c1.78,0,1.93,0,2.38-.46.47-.54.47-.69.47-2.38v-1.62c0-1.69,0-1.83-.47-2.37-.45-.46-.6-.46-2.38-.46h-17.05v-12.31ZM232.15,91.57v-16.23h2.77c3.6,0,5.83.54,7.68,1.78,1.84,1.31,3.01,3.61,3.01,6.07,0,2.66-1.24,5.15-3.23,6.53-1.78,1.22-4.3,1.84-7.76,1.84h-2.46ZM241.76,97.48c6.83-1.44,11.37-7.22,11.37-14.36,0-4.94-2.37-9.53-6.14-12.06-3.24-2.17-6.93-3.02-13.53-3.02h-6.22c-2.61,0-2.85.24-2.85,2.85v45.56c0,1.79,0,1.95.46,2.38.54.48.7.48,2.38.48h2.08c1.69,0,1.83,0,2.38-.48.46-.43.46-.59.46-2.38v-18.11h1.38l13.46,19.37q1.14,1.61,3.22,1.61h3c2,0,2.76-.48,2.76-1.61,0-.48-.22-1-.99-2l-13.22-18.23ZM196.92,91.33v-16.12h2.54c4,0,6.29.54,8.16,1.83,1.76,1.31,2.84,3.61,2.84,6.08s-1,4.76-2.62,6.14c-1.76,1.48-4.06,2.07-8.05,2.07h-2.86ZM196.92,98.48h3.62c5.6,0,9.91-1.45,12.9-4.37,2.76-2.62,4.45-6.7,4.45-10.84,0-4.68-2.14-9.29-5.6-11.99-3.31-2.45-6.54-3.23-14.36-3.23h-5.92c-2.61,0-2.84.24-2.84,2.85v45.56c0,1.79,0,1.95.45,2.38.54.48.7.48,2.39.48h2.08c1.69,0,1.83,0,2.37-.48.46-.43.46-.59.46-2.38v-17.97Z"/>
  </g>
</svg>