<?xml version="1.0" encoding="UTF-8"?>
<svg id="Layer_1" xmlns="http://www.w3.org/2000/svg" viewBox="0 0 522.15 184.24">
  <defs>
    <style>
      .cls-1 {
        fill: none;
      }

      .cls-2 {
        fill: #efeff0;
      }
    </style>
  </defs>
  <rect class="cls-1" width="522.15" height="184.24"/>
  <g>
    <path class="cls-2" d="M328.85,124.6c.93-.54,1.13-.73,1.13-1.27,0-.29-.1-.54-.39-.93-1.81-2.7-4.66-4.22-8.04-4.22-5.54,0-9.76,3.73-9.76,8.68,0,3.68,2.16,6.38,6.72,8.29q4.41,1.86,5.54,2.6c1.47,1.03,2.26,2.45,2.26,4.32,0,3.14-2.26,5.45-5.35,5.45-2.89,0-5.1-1.87-5.44-4.61-.15-.88-.44-1.27-1.08-1.27q-.25,0-.98.19l-1.47.29c-1.22.29-1.52.49-1.52,1.23,0,.44.25,1.42.54,2.26,1.57,4.07,5.3,6.57,9.76,6.57,6.04,0,10.5-4.46,10.5-10.45,0-4.51-2.36-7.45-7.65-9.66q-4.32-1.77-5.25-2.4c-1.08-.74-1.57-1.67-1.57-2.75,0-2.31,2.06-4.07,4.76-4.07,1.82,0,3.29.74,4.12,2.06.39.64.64.78,1.08.78.29,0,.39-.05,1.18-.54l.93-.54ZM305.06,124.6c.93-.54,1.13-.73,1.13-1.27,0-.29-.1-.54-.39-.93-1.82-2.7-4.66-4.22-8.05-4.22-5.54,0-9.76,3.73-9.76,8.68,0,3.68,2.16,6.38,6.72,8.29q4.41,1.86,5.54,2.6c1.47,1.03,2.26,2.45,2.26,4.32,0,3.14-2.26,5.45-5.35,5.45-2.89,0-5.1-1.87-5.44-4.61-.15-.88-.44-1.27-1.08-1.27q-.24,0-.98.19l-1.47.29c-1.22.29-1.52.49-1.52,1.23,0,.44.24,1.42.54,2.26,1.57,4.07,5.3,6.57,9.76,6.57,6.03,0,10.5-4.46,10.5-10.45,0-4.51-2.36-7.45-7.65-9.66q-4.32-1.77-5.25-2.4c-1.08-.74-1.57-1.67-1.57-2.75,0-2.31,2.06-4.07,4.76-4.07,1.82,0,3.29.74,4.12,2.06.39.64.64.78,1.08.78.3,0,.39-.05,1.18-.54l.93-.54ZM269.95,123.47h11.28c1.67,0,1.82-.15,1.82-1.82v-1.03c0-1.08,0-1.18-.29-1.52-.29-.3-.39-.3-1.52-.3h-14.42c-1.67,0-1.81.15-1.81,1.82v29.09c0,1.67.15,1.82,1.81,1.82h14.42c1.67,0,1.82-.15,1.82-1.82v-1.03c0-1.08,0-1.18-.29-1.52-.29-.29-.39-.29-1.52-.29h-11.28v-10.89h10.89c1.13,0,1.23,0,1.52-.3.3-.34.3-.44.3-1.52v-1.03c0-1.08,0-1.18-.3-1.52-.29-.29-.39-.29-1.52-.29h-10.89v-7.85ZM245.79,133.83v-10.35h1.76c2.31,0,3.73.34,4.91,1.13,1.18.84,1.92,2.31,1.92,3.88,0,1.72-.79,3.29-2.06,4.17-1.13.78-2.75,1.18-4.95,1.18h-1.57ZM251.92,137.6c4.37-.93,7.26-4.61,7.26-9.17,0-3.14-1.52-6.08-3.92-7.7-2.06-1.37-4.41-1.91-8.63-1.91h-3.97c-1.67,0-1.82.15-1.82,1.82v29.09c0,1.13,0,1.23.29,1.52.34.3.44.3,1.52.3h1.32c1.08,0,1.18,0,1.52-.3.3-.29.3-.39.3-1.52v-11.58h.88l8.58,12.36q.74,1.03,2.06,1.03h1.91c1.28,0,1.77-.3,1.77-1.03,0-.29-.15-.64-.64-1.28l-8.44-11.63ZM223.3,133.68v-10.3h1.62c2.55,0,4.02.34,5.2,1.18,1.13.84,1.81,2.31,1.81,3.88s-.64,3.04-1.67,3.93c-1.13.93-2.6,1.32-5.15,1.32h-1.82ZM223.3,138.24h2.3c3.58,0,6.33-.93,8.24-2.79,1.77-1.67,2.84-4.27,2.84-6.92,0-2.99-1.37-5.94-3.58-7.65-2.11-1.57-4.17-2.06-9.17-2.06h-3.78c-1.67,0-1.82.15-1.82,1.82v29.09c0,1.13,0,1.23.29,1.52.34.3.44.3,1.52.3h1.32c1.08,0,1.18,0,1.52-.3.29-.29.29-.39.29-1.52v-11.48Z"/>
    <path class="cls-2" d="M475.66,91.31v-13.34h2.7c2.11,0,3.73.29,4.96.98,1.76.98,2.89,3.14,2.89,5.69,0,4.22-2.7,6.67-7.41,6.67h-3.14ZM479.05,93.27c2.6-.15,3.93-.39,5.2-1.08,2.6-1.42,4.12-4.12,4.12-7.51,0-3.04-1.18-5.54-3.29-7.01-1.72-1.23-3.58-1.67-6.92-1.67h-2.99c-1.47,0-1.62.15-1.62,1.62v29.48c0,1.28.25,1.62,1.08,1.62.78,0,1.03-.34,1.03-1.62v-13.83h.98l9.86,14.47c.59.88.69.98,1.18.98.64,0,1.18-.44,1.18-.93,0-.29-.1-.44-.54-1.13l-9.27-13.39ZM454.91,77.96h11.92c1.23,0,1.62-.24,1.62-.98s-.39-.98-1.62-.98h-12.41c-1.47,0-1.62.15-1.62,1.62v29.48c0,1.47.15,1.62,1.62,1.62h12.41c1.23,0,1.62-.25,1.62-.98s-.39-.98-1.62-.98h-11.92v-14.96h11.58c1.23,0,1.62-.25,1.62-.98s-.39-.98-1.62-.98h-11.58v-11.87ZM440.15,77.96h6.87c1.23,0,1.62-.24,1.62-.98s-.39-.98-1.62-.98h-15.75c-1.23,0-1.62.25-1.62.98s.39.98,1.62.98h6.77v29.14c0,1.28.25,1.62,1.08,1.62.79,0,1.03-.34,1.03-1.62v-29.14ZM419.35,75.56c-4.76,0-8.39,3.43-8.39,7.99,0,3.68,1.42,5.45,6.47,7.95,4.86,2.4,5,2.5,6.08,3.09,2.06,1.23,3.19,2.95,3.19,5.05,0,4.17-3.63,7.6-8,7.6-2.89,0-5.45-1.47-6.77-3.92-.88-1.67-.93-1.67-1.47-1.67-.59,0-1.13.49-1.13,1.03,0,.59.83,2.06,1.72,3.09,2.06,2.3,4.66,3.48,7.6,3.48,5.69,0,10.25-4.32,10.25-9.62,0-2.65-1.18-4.76-3.43-6.28-1.47-.93-2.31-1.38-6.53-3.39-4.46-2.16-5.79-3.58-5.79-6.23,0-3.48,2.65-6.18,6.13-6.18,2.11,0,3.92.79,5.2,2.3q.98,1.18,1.42,1.18c.54,0,1.08-.54,1.08-1.08,0-.34-.25-.74-.79-1.37-1.76-1.91-4.27-3.04-6.87-3.04M402.87,105.09l-25.36-28.36c-.49-.59-.79-.79-1.13-.79-.74,0-.98.39-.98,1.67v29.48c0,1.28.25,1.62,1.08,1.62.79,0,1.03-.34,1.03-1.62v-26.78l25.36,27.67c.59.64.78.79,1.13.79.74,0,.98-.44.98-1.67v-29.48c0-1.27-.24-1.62-1.03-1.62-.83,0-1.08.34-1.08,1.62v27.47ZM368.53,77.62c0-1.27-.25-1.62-1.03-1.62-.83,0-1.08.34-1.08,1.62v29.48c0,1.28.25,1.62,1.08,1.62.79,0,1.03-.34,1.03-1.62v-29.48ZM342.76,105.14l-12.36-27.96c-.39-.93-.64-1.18-1.13-1.18-.69,0-.93.34-1.08,1.52l-3.04,29.48-.05.74c0,.59.39.98,1.03.98.78,0,.98-.29,1.13-1.52l2.7-26.24,11.67,26.44c.49,1.13.64,1.33,1.13,1.33s.69-.2,1.18-1.33l11.72-26.44,2.8,26.24c.1,1.23.34,1.52,1.13,1.52.64,0,1.08-.39,1.08-.98q0-.15-.05-.74l-3.14-29.53c-.1-1.18-.34-1.52-1.08-1.52-.44,0-.74.29-1.13,1.18l-12.51,28.01ZM315.53,77.96h6.87c1.23,0,1.62-.24,1.62-.98s-.39-.98-1.62-.98h-15.75c-1.23,0-1.62.25-1.62.98s.39.98,1.62.98h6.77v29.14c0,1.28.24,1.62,1.08,1.62.79,0,1.03-.34,1.03-1.62v-29.14ZM294.73,75.56c-4.76,0-8.39,3.43-8.39,7.99,0,3.68,1.42,5.45,6.47,7.95,4.86,2.4,5,2.5,6.08,3.09,2.06,1.23,3.19,2.95,3.19,5.05,0,4.17-3.63,7.6-8,7.6-2.89,0-5.45-1.47-6.77-3.92-.88-1.67-.93-1.67-1.47-1.67-.59,0-1.13.49-1.13,1.03,0,.59.83,2.06,1.72,3.09,2.06,2.3,4.66,3.48,7.6,3.48,5.69,0,10.25-4.32,10.25-9.62,0-2.65-1.18-4.76-3.43-6.28-1.47-.93-2.31-1.38-6.52-3.39-4.46-2.16-5.79-3.58-5.79-6.23,0-3.48,2.65-6.18,6.13-6.18,2.11,0,3.92.79,5.2,2.3q.98,1.18,1.42,1.18c.54,0,1.08-.54,1.08-1.08,0-.34-.24-.74-.78-1.37-1.77-1.91-4.27-3.04-6.87-3.04M268.78,77.96h11.92c1.23,0,1.62-.24,1.62-.98s-.39-.98-1.62-.98h-12.41c-1.47,0-1.62.15-1.62,1.62v29.48c0,1.47.15,1.62,1.62,1.62h12.41c1.23,0,1.62-.25,1.62-.98s-.39-.98-1.62-.98h-11.92v-14.96h11.58c1.23,0,1.62-.25,1.62-.98s-.39-.98-1.62-.98h-11.58v-11.87ZM227.59,104.26l-8.49-26.88c-.39-1.18-.59-1.37-1.32-1.37-.64,0-1.13.44-1.13.98,0,.2.05.34.25.98l9.32,29.43c.34,1.03.59,1.28,1.13,1.28.59,0,.79-.25,1.18-1.23l10.89-27.13,9.91,27.13c.39,1.08.59,1.28,1.18,1.28.54,0,.74-.2,1.13-1.28l10.79-29.43c.2-.59.25-.79.25-1.08,0-.49-.49-.93-1.08-.93-.74,0-.93.2-1.32,1.32l-9.76,26.93-9.96-27.03c-.39-.98-.59-1.23-1.13-1.23-.59,0-.79.25-1.18,1.23l-10.65,27.03Z"/>
    <path class="cls-2" d="M238.24,61.99c1.37-1.86,1.72-3.43,1.72-7.75v-19.42c0-1.28-.25-1.62-1.03-1.62-.83,0-1.08.34-1.08,1.62v18.84c0,4.02-.25,5.59-1.18,7.01-1.42,2.21-4.66,3.78-7.8,3.78s-6.43-1.57-7.85-3.78c-.93-1.42-1.18-2.99-1.18-7.01v-18.84c0-1.28-.24-1.62-1.03-1.62-.83,0-1.08.34-1.08,1.62v19.42c0,4.32.34,5.89,1.72,7.75,1.96,2.75,5.54,4.46,9.42,4.46s7.41-1.72,9.37-4.46M276.16,64.29v-29.48c0-1.28-.24-1.62-1.03-1.62-.83,0-1.08.34-1.08,1.62v27.47l-25.36-28.35c-.49-.59-.78-.78-1.13-.78-.73,0-.98.39-.98,1.67v29.48c0,1.27.25,1.62,1.08,1.62.79,0,1.03-.34,1.03-1.62v-26.79l25.36,27.67c.59.64.78.79,1.13.79.74,0,.98-.44.98-1.67M284.15,64.29v-29.48c0-1.28-.25-1.62-1.03-1.62-.83,0-1.08.34-1.08,1.62v29.48c0,1.27.25,1.62,1.08,1.62.79,0,1.03-.34,1.03-1.62M311.73,35.1c.25-.69.25-.74.25-1.03,0-.44-.49-.93-.98-.93-.74,0-.93.2-1.32,1.32l-8.98,27.03-9.13-27.03c-.39-1.13-.59-1.32-1.32-1.32-.54,0-1.08.44-1.08.93,0,.25,0,.29.24,1.03l10.11,29.53c.34.98.59,1.28,1.13,1.28.64,0,.83-.25,1.18-1.28l9.91-29.53ZM318.79,63.95v-14.96h11.58c1.23,0,1.62-.24,1.62-.98s-.39-.98-1.62-.98h-11.58v-11.87h11.92c1.23,0,1.62-.25,1.62-.98s-.39-.98-1.62-.98h-12.41c-1.47,0-1.62.15-1.62,1.62v29.48c0,1.47.15,1.62,1.62,1.62h12.41c1.23,0,1.62-.25,1.62-.98s-.39-.98-1.62-.98h-11.92ZM343.17,48.5h-3.14v-13.34h2.7c2.11,0,3.73.29,4.96.98,1.77.98,2.89,3.14,2.89,5.69,0,4.22-2.7,6.67-7.41,6.67M352.69,63.85l-9.27-13.39c2.6-.15,3.92-.39,5.2-1.08,2.6-1.42,4.12-4.12,4.12-7.51,0-3.04-1.18-5.54-3.29-7.01-1.72-1.23-3.58-1.67-6.92-1.67h-2.99c-1.47,0-1.62.15-1.62,1.62v29.48c0,1.27.24,1.62,1.08,1.62.78,0,1.03-.34,1.03-1.62v-13.83h.98l9.86,14.47c.59.88.69.98,1.18.98.64,0,1.18-.44,1.18-.93,0-.3-.1-.44-.54-1.13M360.54,40.94c0-3.48,2.65-6.18,6.13-6.18,2.11,0,3.92.79,5.2,2.31q.98,1.18,1.42,1.18c.54,0,1.08-.54,1.08-1.08,0-.34-.24-.74-.78-1.38-1.77-1.91-4.27-3.04-6.87-3.04-4.76,0-8.39,3.43-8.39,8,0,3.68,1.42,5.44,6.47,7.95,4.86,2.4,5,2.5,6.08,3.09,2.06,1.23,3.19,2.94,3.19,5.05,0,4.17-3.63,7.6-8,7.6-2.89,0-5.45-1.47-6.77-3.92-.88-1.67-.93-1.67-1.47-1.67-.59,0-1.13.49-1.13,1.03,0,.59.83,2.06,1.72,3.09,2.06,2.31,4.66,3.48,7.6,3.48,5.69,0,10.25-4.32,10.25-9.61,0-2.65-1.18-4.76-3.43-6.28-1.47-.93-2.31-1.37-6.52-3.38-4.46-2.16-5.79-3.58-5.79-6.23M384.24,64.29v-29.48c0-1.28-.24-1.62-1.03-1.62-.83,0-1.08.34-1.08,1.62v29.48c0,1.27.25,1.62,1.08,1.62.79,0,1.03-.34,1.03-1.62M428.54,35.25c.29-.54.44-.88.44-1.13,0-.49-.54-.93-1.18-.93-.54,0-.64.1-1.17,1.03l-8.98,15.4-8.68-15.35-.24-.39c-.24-.45-.52-.62-.91-.68h0s-.02,0-.02,0c-.07,0-.36-.02-.45,0h-17.36c-1.23,0-1.62.24-1.62.98s.39.98,1.62.98h6.77v29.14c0,1.27.24,1.62,1.08,1.62.79,0,1.03-.34,1.03-1.62v-29.14h6.87s.06,0,.09,0h1.13s.03.06.05.1l9.57,16.68v12.36c0,1.27.25,1.62,1.08,1.62.78,0,1.03-.34,1.03-1.62v-12.36l9.86-16.68ZM469.6,49.62c0,8.09-6.67,14.82-14.77,14.82s-14.72-6.77-14.72-14.62c0-3.88,1.23-7.26,3.73-10.01,2.85-3.19,6.87-5.05,10.89-5.05,8.19,0,14.86,6.67,14.86,14.86M471.81,49.58c0-9.17-7.7-16.83-16.97-16.83s-16.92,7.7-16.92,16.58c0,9.37,7.6,17.12,16.83,17.12s17.07-7.6,17.07-16.88M489.61,34.17c0-.74-.39-.98-1.62-.98h-9.96c-1.47,0-1.62.15-1.62,1.62v29.48c0,1.27.24,1.62,1.08,1.62.79,0,1.03-.34,1.03-1.62v-15.31h9.12c1.23,0,1.62-.24,1.62-.98s-.39-.98-1.62-.98h-9.12v-11.87h9.47c1.23,0,1.62-.25,1.62-.98"/>
    <path class="cls-2" d="M187.77,32.54c-2.67,0-3.39.71-4.82,4.82l-26.52,79.87,20.02-82.44c.15-.6-.22-1.21-.83-1.36-.6-.15-1.21.22-1.36.83h0s-21.1,86.9-21.1,86.9l10.78-86.54c.08-.61-.36-1.18-.97-1.25-.62-.08-1.18.36-1.25.97h0l-10.73,86.19V34.41h0c0-.62-.5-1.12-1.12-1.12s-1.12.5-1.12,1.12v86.6l-9.88-86.73h0c-.07-.61-.63-1.06-1.24-.99-.62.07-1.06.63-.99,1.24l9.58,84.09-19.74-84.48h0c-.14-.6-.75-.98-1.35-.84-.6.14-.98.74-.84,1.35l18.1,77.49-25.25-74.8c-1.43-4.1-2.14-4.82-4.82-4.82-.07,0-.14.02-.21.02-.06,0-.12-.02-.18-.02-2.67,0-3.39.71-4.82,4.82l-32.64,98.29L41.28,37.35c-1.43-4.1-2.14-4.82-4.82-4.82-1.96,0-3.92,1.61-3.92,3.39,0,.89,0,1.07.89,3.75l36.75,107.39c1.25,3.57,2.14,4.64,4.1,4.64,2.32,0,3.03-.89,4.28-4.64l33.4-99.54,34.06,99.54c1.25,3.57,2.14,4.64,4.1,4.64,2.32,0,3.03-.89,4.28-4.64l36.03-107.39c.89-2.5.89-2.67.89-3.75,0-1.61-1.78-3.39-3.57-3.39ZM78.44,136.73c-.9,0-1.64-.73-1.64-1.64s.73-1.64,1.64-1.64,1.64.73,1.64,1.64-.73,1.64-1.64,1.64ZM80.87,130.9l-1.73-.56,1.69-5.2,1.73.56-1.69,5.2ZM83.35,123.25l-1.73-.56,1.69-5.19,1.73.56-1.69,5.19Z"/>
  </g>
</svg>