<?xml version="1.0" encoding="UTF-8"?>
<svg id="Layer_1" data-name="Layer 1" xmlns="http://www.w3.org/2000/svg" version="1.1" viewBox="0 0 188.3 60">
  <defs>
    <style>
      .cls-1 {
        fill: #154734;
        stroke-width: 0px;
      }
    </style>
  </defs>
  <path class="cls-1" d="M69,8c.2,0,.3.2.4.4v10.1c0,1.3.3,2.4.8,3.2s1.2,1.6,2.1,2,2,.6,3.2.6,2.5-.3,3.4-.8,1.5-1.2,1.9-2.1.6-1.9.6-3.1v-10.1c0-.2.2-.3.4-.4h1.7v-1.4h-6.1v1.3h1.2c.3,0,.5,0,.7.2.2,0,.3.2.4.4s0,.4,0,.7v9.4c0,1-.2,1.8-.5,2.5-.3.6-.8,1.1-1.3,1.5-.6.3-1.3.5-2.1.5s-1.6-.2-2.2-.5-1-.9-1.2-1.5c-.3-.6-.4-1.4-.4-2.3v-10.2c0-.2.2-.3.4-.4h1.7v-1.4h-7.2v1.3h1c.3,0,.5,0,.7.2h.4Z"/>
  <path class="cls-1" d="M93.3,22.2c0,.2-.2.3-.4.4-.2,0-.4.1-.7.2h-.5v1.2h6.2v-1.2h-.7c-.3,0-.5,0-.7-.2s-.3-.2-.4-.4v-7.8c0-.9-.2-1.6-.4-2.1s-.7-1-1.2-1.2c-.5-.3-1.1-.4-1.8-.4s-1.6.2-2.3.5-1.3.9-1.9,1.6v-2.2l-4.3,1.1v1.1h.6c.3.1.5.2.7.2.2.1.3.2.4.4s0,.4,0,.7v8.1c0,.2-.2.3-.4.4-.2,0-.4.1-.7.1h-.8v1.2h6.3v-1.1h-.5c-.3,0-.5,0-.7-.2s-.3-.2-.4-.4v-8.5c.4-.4.8-.7,1.2-.9.4-.2.9-.3,1.4-.3s.9.1,1.2.3c.3.2.5.5.7.9s.2.9.2,1.4v6.3c-.2.4-.2.6-.3.8h.4-.2Z"/>
  <path class="cls-1" d="M101.5,7.7c.3.2.6.2,1,.2s.7,0,1-.2.5-.3.7-.6.2-.6.2-.9,0-.7-.2-.9c-.2-.3-.4-.5-.7-.6-.3-.2-.6-.2-1-.2s-.7,0-1,.2-.5.4-.7.7-.2.5-.2.9,0,.7.2.9c.2.2.4.4.7.5h0Z"/>
  <path class="cls-1" d="M106,22.7h-.8c-.3,0-.5,0-.7-.2s-.3-.2-.4-.4v-11.6l-4.6,1.1v1.1h.6c.3.1.5.2.7.2s.3.2.4.4,0,.4,0,.7v8.1c0,.2-.2.3-.4.4-.2,0-.4.1-.7.1h-.8v1.2h6.7v-1.1h0,0Z"/>
  <path class="cls-1" d="M107.4,12.7c0,.2.3.5.4.9l4.2,10.3h1.2l4.1-10.1c.2-.5.4-.9.5-1.1s.3-.4.5-.5.5-.2.9-.2v-1.2h-4.9v1.2h.8c.3,0,.6.2.8.3s.2.3.3.5,0,.5-.2.8l-2.6,7-2.6-7c-.2-.3-.2-.6-.2-.8s0-.4.3-.5c.2-.1.3-.2.6-.2h.7v-1.2h-6.1v1.2c.4,0,.7.1.9.2,0,.1.2.3.3.4h0Z"/>
  <path class="cls-1" d="M122,23.4c.8.5,1.8.8,2.9.8s1.7-.2,2.3-.5c.7-.3,1.2-.8,1.6-1.4s.6-1.3.8-2.1l-1-.3c-.1.4-.3.8-.5,1.2-.2.3-.5.6-1,.8s-.9.3-1.5.3-1.4-.2-1.9-.6c-.4-.4-.8-1-1-1.7s-.3-1.6-.3-2.7h7.3c0-1.5-.2-2.7-.4-3.7-.3-1-.8-1.7-1.5-2.2s-1.6-.7-2.7-.7-2.3.3-3.1.9-1.5,1.4-1.8,2.4-.6,2.3-.6,3.6.2,2.5.6,3.6.9,1.7,1.7,2.2h0ZM123.5,12.4c.4-.4.8-.6,1.5-.6s.9.2,1.2.5.5.8.6,1.4c0,.6.2,1.4.2,2.3h-4.4c0-.6,0-1.2.2-1.7,0-.8.4-1.4.8-1.8h0Z"/>
  <path class="cls-1" d="M138,22.7h-1c-.3,0-.5,0-.7-.2-.2,0-.3-.2-.4-.4-.1-.2-.1-.4-.1-.8v-6.1c.3-.6.8-1.1,1.3-1.4s1.2-.5,1.9-.5h.6c.2,0,.4,0,.7.1v-2.8h-.9c-.6,0-1.1.2-1.6.5s-.9.8-1.3,1.4-.7,1.3-1,2.2v-4.1l-4.3,1.1v1.1h.6c.3.1.5.2.7.2.2.1.3.2.4.4s.1.4.1.7v7.3c0,.3,0,.6-.1.8-.1.2-.2.3-.4.4-.2,0-.4.1-.7.1h-.8v1.2h6.9v-1.1h-.2.3Z"/>
  <path class="cls-1" d="M143.3,17.3c.4.3.9.5,1.4.8l1.7.7c.4.2.6.3.9.5.3.2.5.4.6.7s.3.6.3,1.1-.1.8-.3,1.1-.4.6-.6.8c-.3.2-.6.3-1.1.3s-1-.2-1.4-.4c-.4-.3-.8-.7-1-1.2s-.4-1.2-.5-2h-1.3v3.6c.5.3,1.1.6,1.8.8.6.2,1.4.3,2.2.3s1.8-.2,2.6-.5,1.2-.8,1.6-1.5.5-1.4.5-2.2-.2-1.4-.4-1.9-.6-.9-1-1.1c-.4-.3-.8-.5-1.4-.6l-1.7-.8c-.4-.2-.8-.3-1-.5s-.5-.4-.6-.6c-.2-.3-.3-.6-.3-1s0-.6.2-.9.3-.5.6-.6c.3-.2.6-.2.9-.2s.9.1,1.2.4.6.6.9,1.1.4,1,.5,1.6h1.3v-3.1c-.5-.4-1.1-.6-1.8-.9s-1.3-.3-2.1-.3-1.7.2-2.3.4c-.6.3-1.1.7-1.5,1.2s-.5,1.2-.5,1.9.2,1.4.4,1.8.6.9,1.1,1.2h.1Z"/>
  <path class="cls-1" d="M154.5,7.7c.3.2.6.2,1,.2s.7,0,1-.2.5-.3.6-.6c.2-.3.2-.6.2-.9s0-.7-.2-.9-.4-.5-.6-.6c-.3-.2-.6-.2-1-.2s-.7,0-1,.2-.5.4-.7.7-.2.5-.2.9,0,.7.2.9c.2.2.4.4.7.5h0Z"/>
  <path class="cls-1" d="M159,22.7h-.8c-.3,0-.5,0-.7-.2s-.3-.2-.4-.4c-.1-.2-.1-.4-.1-.8v-10.8l-4.6,1.1v1.1h.6c.3.1.5.2.7.2s.3.2.4.4c.1.2.1.4.1.7v7.3c0,.3,0,.6-.1.8-.1.2-.2.3-.4.4-.2,0-.4.1-.7.1h-.8v1.2h6.7v-1.1h.1Z"/>
  <path class="cls-1" d="M161.6,21.1c0,.7.1,1.2.4,1.7s.6.8,1,1,1,.3,1.6.3,1.1-.1,1.6-.3,1.1-.4,1.7-.8l-.3-1.1c-.3.2-.6.3-1,.3-.3.1-.6.1-.8.1-.4,0-.6,0-.9-.2-.2-.1-.4-.3-.4-.6-.1-.3-.2-.6-.2-1v-8.5h3.4v-1.3h-3.4v-4.2l-2.7.5v3.7h-2.1v1.3h2.1v8.9h0v.2h0Z"/>
  <path class="cls-1" d="M169.9,28.7c.4.2.9.2,1.3.2.9,0,1.7-.3,2.3-.8s1.1-1.1,1.5-1.8.8-1.6,1.2-2.6l3.7-9.8c.2-.5.3-.8.5-1s.3-.4.5-.5.5-.2.9-.2v-1.2h-5v1.2h.9c.3,0,.6.1.8.2s.3.3.3.5,0,.5-.2.8l-2.6,7.4-2.6-7.5c-.1-.3-.2-.6-.1-.8,0-.2.1-.4.2-.5s.3-.2.6-.2h.7v-1.2h-6.1v1.2c.4,0,.7.1.9.2.2.1.4.3.5.4.1.2.3.5.4.9l4.2,10.7c-.2.6-.4,1.1-.6,1.5s-.4.6-.7.9c-.3.2-.5.3-.9.3s-.4,0-.5-.1c-.2-.1-.4-.2-.6-.4-.2-.2-.3-.3-.4-.3-.1-.1-.3-.2-.4-.2s-.3-.1-.5-.1-.5,0-.8.2-.4.3-.5.5-.2.4-.2.7.1.8.4,1c.1.2.4.4.9.5h0Z"/>
  <path class="cls-1" d="M76.6,35.3c-.8-.5-1.8-.9-3-.9s-2.3.3-3.1.8-1.5,1.3-1.9,2.4-.7,2.2-.7,3.6.2,2.5.6,3.6,1,1.8,1.9,2.4c.9.5,1.9.8,3.1.8s2.3-.3,3.1-.9c.9-.5,1.5-1.3,1.9-2.4.4-1,.7-2.2.7-3.6s-.2-2.5-.7-3.6c-.4-.9-1-1.7-1.8-2.3h0ZM75.9,44.6c-.2.8-.4,1.3-.8,1.7s-.9.6-1.5.6-1.2-.2-1.7-.7-.8-1.2-1-2.1-.3-2-.3-3.4,0-2.1.2-2.8.4-1.3.8-1.7.9-.6,1.5-.6,1.2.2,1.7.7.8,1.2,1,2.1c.2.9.3,2,.3,3.4s0,2.1-.2,2.8Z"/>
  <path class="cls-1" d="M88.6,28.1c-.5-.2-1.1-.3-1.7-.3-1.1,0-2,.3-2.7.8s-1.1,1.2-1.4,2.1-.4,1.8-.4,2.9v1.2h-2.3v1.2h2.3v10.1c0,.2-.2.3-.4.4s-.4,0-.7,0h-.8v1.2h7.2v-1.2h-1.2c-.3,0-.5,0-.7-.2-.2,0-.3-.2-.4-.4s0-.4,0-.8v-9.2h3.4v-1.2h-3.4v-4.1c0-.5.2-.9.4-1.2s.4-.5.8-.5.4,0,.5.1c.2,0,.3.2.4.3,0,.1.2.3.3.5.2.3.3.5.4.6s.3.3.4.4c.2.1.4.2.7.2s.7-.1.9-.3c.2-.2.3-.5.3-.9s-.2-.8-.5-1.1c-.4-.3-.8-.6-1.3-.8h0v.2Z"/>
  <path class="cls-1" d="M110.6,31.7v-1.4h-5.5v1.4h1c.4,0,.7.2.9.3s.3.3.3.5c0,.3,0,.5-.2.9l-3.5,10.1-3.4-10.2c0-.4-.2-.7-.2-.9s0-.4.3-.5.4-.2.7-.2h.8v-1.4h-6.5v1.4c.4,0,.7,0,.9.2.2.1.4.3.5.5s.3.5.4.9l5.1,14.6h1.3l5-14.2c.2-.5.4-.9.5-1.1.2-.3.3-.4.5-.6.2-.2.5-.2.9-.2h.2,0Z"/>
  <path class="cls-1" d="M119.2,37.4c-.3-1-.8-1.7-1.5-2.2s-1.6-.7-2.7-.7-2.3.3-3.1.9-1.5,1.4-1.8,2.4-.6,2.3-.6,3.6.2,2.5.6,3.6,1,1.7,1.8,2.3,1.8.8,2.9.8,1.7-.2,2.3-.5,1.2-.8,1.6-1.3c.4-.6.7-1.3.8-2.1l-1-.3c0,.4-.3.8-.5,1.2-.2.3-.5.6-1,.8s-.9.3-1.5.3-1.4-.2-1.9-.6c-.4-.4-.8-1-1-1.7s-.3-1.6-.3-2.7h7.3c0-1.6-.2-2.8-.5-3.7h0ZM112.4,39.8c0-.7,0-1.2.2-1.7.2-.8.4-1.4.8-1.8s.8-.7,1.5-.7.9.2,1.2.5.5.8.6,1.3c0,.6.2,1.3.2,2.3h-4.5,0Z"/>
  <path class="cls-1" d="M129.3,34.6c-.6,0-1.1.2-1.6.5s-.9.8-1.3,1.3-.7,1.3-1,2.2v-4.1l-4.3,1.1v1.1h.6c.3,0,.5.2.7.2s.3.2.4.4,0,.4,0,.7v8.1c0,.2-.2.3-.4.4s-.4,0-.7,0h-.8v1.2h6.9v-1.2h-1c-.3,0-.5,0-.7-.2-.2,0-.3-.2-.4-.4s0-.4,0-.8v-6c.3-.7.8-1.1,1.3-1.4s1.2-.5,2-.5h1.3v-2.8h-1.1.2v.2Z"/>
  <path class="cls-1" d="M151.1,46.5c-.2,0-.3-.2-.4-.4-.1-.2-.1-.4-.1-.8v-7c0-.9-.1-1.6-.4-2.2-.3-.5-.6-1-1.1-1.2s-1.1-.4-1.8-.4-1.5.2-2.2.5-1.3.9-1.9,1.6c-.2-.8-.6-1.3-1.1-1.6s-1.2-.5-1.9-.5-1.5.2-2.2.5-1.4.9-1.9,1.6v-2.2l-4.3,1.1v1.1h.6c.3,0,.5.2.7.2s.3.2.4.4.1.4.1.7v7.3c0,.3,0,.6-.1.8s-.2.3-.4.4-.4,0-.7,0h-.8v1.2h6.3v-1.2h-.5c-.3,0-.5,0-.7-.2s-.3-.2-.4-.4-.1-.4-.1-.8v-7.7c.4-.4.8-.7,1.2-.9s.9-.3,1.2-.3.9,0,1.2.3.5.5.6.9.2.9.2,1.4v6.3c0,.3,0,.6-.1.8s-.2.3-.4.4-.4,0-.6.2h-.5v1.2h6v-1.2h-.5c-.3,0-.5,0-.7-.2-.2,0-.3-.2-.4-.4s-.1-.4-.1-.8v-7.7c.4-.4.8-.7,1.2-.9s.9-.3,1.3-.3.9,0,1.2.3.5.5.6.9.2.9.2,1.4v6.3c0,.3,0,.6-.2.8s-.2.3-.4.4c-.2,0-.4,0-.7.2h-.5v1.2h6.3v-1.2h-1.5.3,0Z"/>
  <path class="cls-1" d="M162.2,35.3c-.8-.5-1.8-.9-3-.9s-2.3.3-3.1.8-1.5,1.3-1.9,2.4-.6,2.2-.6,3.6.2,2.5.6,3.6c.4,1,1,1.8,1.9,2.4.9.5,1.9.8,3.1.8s2.3-.3,3.1-.9c.9-.5,1.5-1.3,1.9-2.4.4-1,.6-2.2.6-3.6s-.2-2.5-.6-3.6c-.4-.9-1-1.7-1.8-2.3h-.2ZM161.6,44.6c-.2.8-.4,1.3-.8,1.7s-.9.6-1.5.6-1.2-.2-1.7-.7-.8-1.2-1-2.1-.3-2-.3-3.4,0-2.1.3-2.8.4-1.3.8-1.7.9-.6,1.5-.6,1.2.2,1.7.7c.4.5.8,1.2,1,2.1.2.9.3,2,.3,3.4s-.1,2.1-.3,2.8Z"/>
  <path class="cls-1" d="M178.5,46.5c-.2,0-.3-.2-.4-.4-.1-.2-.1-.4-.1-.8v-7c0-.9-.2-1.6-.4-2.1s-.6-1-1.2-1.2c-.5-.3-1.1-.4-1.8-.4s-1.6.2-2.3.5-1.4.9-1.9,1.6v-2.2l-4.3,1.1v1.1h.6c.3,0,.5.2.7.2s.3.2.4.4.1.4.1.7v7.3c0,.3,0,.6-.1.8s-.2.3-.4.4h-1.5v1.2h6.3v-1.2h-.5c-.3,0-.5,0-.6-.2s-.3-.2-.4-.4c-.1-.2-.1-.4-.1-.8v-7.7c.4-.4.8-.7,1.2-.9s.9-.3,1.4-.3.9,0,1.2.3.5.5.7.9.2.9.2,1.4v6.3c0,.3,0,.6-.2.8s-.2.3-.4.4c-.2,0-.4,0-.6.2h-.5v1.2h6.3v-1.2h-1.4Z"/>
  <path class="cls-1" d="M188,46c-.3.2-.6.3-1,.3h-.8c-.4,0-.6,0-.9-.2-.2,0-.4-.3-.4-.6-.1-.3-.2-.6-.2-1v-8.6h3.4v-1.3h-3.4v-4.2l-2.7.5v3.7h-2.1v1.3h2.1v8.9c0,.7.1,1.2.4,1.7s.6.8,1,1,1,.3,1.6.3,1.1,0,1.6-.3,1.1-.4,1.7-.8l-.3-1h0v.2h0Z"/>
  <path class="cls-1" d="M0,0v23c0,7.6,3.8,15.5,11.3,23.5,7.2,7.6,15,12.3,16.5,13.2l.5.3.5-.3c1.5-.9,9.3-5.5,16.5-13.2,7.5-8,11.3-15.9,11.3-23.5V0H0ZM44.1,15.6h-3l-7.3,21.2h2.1v6.2h-15v-6.2h2.1l-7.3-21.2h-3v-6.2h11.4v6.2h-2.1l6.5,19,6.6-19h-2.1v-6.2h11.4v6.2s-.3,0-.3,0Z"/>
</svg>