<?xml version="1.0" encoding="UTF-8"?>
<svg id="Layer_1" data-name="Layer 1" xmlns="http://www.w3.org/2000/svg" version="1.1" viewBox="0 0 52 41">
  <defs>
    <style>
      .cls-1 {
        fill: #000;
        stroke-width: 0px;
      }
    </style>
  </defs>
  <path class="cls-1" d="M36,17h-20c-1.7,0-3,1.3-3,3v13c0,1.7,1.3,3,3,3h20c1.7,0,3-1.3,3-3v-13c0-1.7-1.3-3-3-3ZM37,33c0,.6-.4,1-1,1h-20c-.6,0-1-.4-1-1v-10h22v10ZM37,21H15v-1c0-.6.4-1,1-1h20c.6,0,1,.4,1,1v1ZM23,4c-1.7,0-3,1.3-3,3s1.3,3,3,3,3-1.3,3-3c0-1.7-1.3-3-3-3ZM15,4c-1.7,0-3,1.3-3,3s1.3,3,3,3,3-1.3,3-3c0-1.7-1.3-3-3-3ZM7,4c-1.7,0-3,1.3-3,3s1.3,3,3,3,3-1.3,3-3c0-1.7-1.3-3-3-3ZM23,4c-1.7,0-3,1.3-3,3s1.3,3,3,3,3-1.3,3-3c0-1.7-1.3-3-3-3ZM15,4c-1.7,0-3,1.3-3,3s1.3,3,3,3,3-1.3,3-3c0-1.7-1.3-3-3-3ZM7,4c-1.7,0-3,1.3-3,3s1.3,3,3,3,3-1.3,3-3c0-1.7-1.3-3-3-3ZM36,17h-20c-1.7,0-3,1.3-3,3v13c0,1.7,1.3,3,3,3h20c1.7,0,3-1.3,3-3v-13c0-1.7-1.3-3-3-3ZM37,33c0,.6-.4,1-1,1h-20c-.6,0-1-.4-1-1v-10h22v10ZM37,21H15v-1c0-.6.4-1,1-1h20c.6,0,1,.4,1,1v1ZM47,0H5C2.2,0,0,2.2,0,5v31c0,2.8,2.2,5,5,5h42c2.8,0,5-2.2,5-5V5c0-2.8-2.2-5-5-5ZM50,36c0,1.7-1.3,3-3,3H5c-1.7,0-3-1.3-3-3V14h48v22ZM50,12H2v-7c0-1.7,1.3-3,3-3h42c1.7,0,3,1.3,3,3v7ZM16,36h20c1.7,0,3-1.3,3-3v-13c0-1.7-1.3-3-3-3h-20c-1.7,0-3,1.3-3,3v13c0,1.7,1.3,3,3,3ZM15,20c0-.6.4-1,1-1h20c.6,0,1,.4,1,1v1H15v-1ZM15,23h22v10c0,.6-.4,1-1,1h-20c-.6,0-1-.4-1-1v-10ZM23,4c-1.7,0-3,1.3-3,3s1.3,3,3,3,3-1.3,3-3c0-1.7-1.3-3-3-3ZM15,4c-1.7,0-3,1.3-3,3s1.3,3,3,3,3-1.3,3-3c0-1.7-1.3-3-3-3ZM7,4c-1.7,0-3,1.3-3,3s1.3,3,3,3,3-1.3,3-3c0-1.7-1.3-3-3-3Z"/>
  <path class="cls-1" d="M37,20v1H15v-1c0-.6.4-1,1-1h20c.6,0,1,.4,1,1Z"/>
</svg>