<?xml version="1.0" encoding="iso-8859-1"?>
<!-- Generator: Adobe Illustrator 16.0.0, SVG Export Plug-In . SVG Version: 6.00 Build 0)  -->
<!DOCTYPE svg PUBLIC "-//W3C//DTD SVG 1.1//EN" "http://www.w3.org/Graphics/SVG/1.1/DTD/svg11.dtd">
<svg version="1.1" id="Capa_1" xmlns="http://www.w3.org/2000/svg" xmlns:xlink="http://www.w3.org/1999/xlink" x="0px" y="0px"
	 width="96.992px" height="96.992px" viewBox="0 0 96.992 96.992" style="enable-background:new 0 0 96.992 96.992;"
	 xml:space="preserve">
<g>
	<path d="M82.297,17.002L66.028,0.732C65.559,0.263,64.924,0,64.26,0H16.463c-1.381,0-2.5,1.119-2.5,2.5v91.992
		c0,1.381,1.119,2.5,2.5,2.5h64.066c1.381,0,2.5-1.119,2.5-2.5V18.769C83.029,18.105,82.766,17.471,82.297,17.002z M48.634,62.209
		c0,0.775-0.448,1.48-1.149,1.811c-0.271,0.127-0.562,0.189-0.851,0.189c-0.457,0-0.91-0.156-1.276-0.46l-10.933-9.06h-5.823
		c-1.104,0-2-0.896-2-2V44.72c0-1.104,0.896-2,2-2h5.823l10.933-9.06c0.598-0.495,1.426-0.601,2.127-0.27
		c0.701,0.329,1.149,1.034,1.149,1.81V62.209z M56.319,59.084c-0.048,0.003-0.097,0.005-0.144,0.005
		c-0.529,0-1.039-0.209-1.414-0.586l-0.27-0.269c-0.701-0.7-0.783-1.811-0.191-2.605c1.496-2.019,2.287-4.413,2.287-6.924
		c0-2.701-0.898-5.234-2.597-7.326c-0.646-0.795-0.587-1.95,0.138-2.675l0.268-0.268c0.399-0.399,0.936-0.617,1.516-0.583
		c0.564,0.028,1.091,0.294,1.447,0.731c2.355,2.883,3.602,6.383,3.602,10.12c0,3.479-1.102,6.794-3.183,9.581
		C57.432,58.751,56.898,59.042,56.319,59.084z M64.588,65.264c-0.361,0.428-0.885,0.686-1.443,0.709
		c-0.027,0-0.057,0.002-0.084,0.002c-0.529,0-1.039-0.211-1.414-0.586l-0.264-0.264c-0.734-0.732-0.783-1.906-0.115-2.701
		c3.226-3.836,5.002-8.708,5.002-13.719c0-5.212-1.901-10.229-5.354-14.128c-0.7-0.791-0.665-1.989,0.08-2.737l0.263-0.263
		c0.389-0.391,0.895-0.606,1.475-0.588c0.551,0.016,1.07,0.259,1.438,0.671c4.174,4.699,6.473,10.753,6.473,17.045
		C70.641,54.76,68.491,60.641,64.588,65.264z M62.051,22.342c-0.337,0-0.658-0.133-0.896-0.371
		c-0.237-0.238-0.372-0.561-0.372-0.897l0.002-15.126L77.18,22.343L62.051,22.342L62.051,22.342z"/>
</g>
<g>
</g>
<g>
</g>
<g>
</g>
<g>
</g>
<g>
</g>
<g>
</g>
<g>
</g>
<g>
</g>
<g>
</g>
<g>
</g>
<g>
</g>
<g>
</g>
<g>
</g>
<g>
</g>
<g>
</g>
</svg>
